{"glyphs":{"0":{"ha":884,"x_min":101,"x_max":783,"o":"m 442 -13 q 188 99 275 -13 q 101 426 101 211 l 101 580 q 188 910 101 797 q 443 1023 275 1023 q 696 910 610 1023 q 783 580 783 797 l 783 426 q 696 99 783 211 q 442 -13 609 -13 m 442 101 q 607 177 557 101 q 657 426 657 253 l 657 580 q 607 833 657 756 q 442 909 557 909 q 277 833 327 909 q 227 580 227 756 l 227 426 q 277 177 227 253 q 442 101 327 101 m 442 407 q 376 420 402 407 q 351 473 351 434 l 351 535 q 376 588 351 573 q 442 602 402 602 q 507 588 482 602 q 532 535 532 573 l 532 473 q 506 420 532 434 q 442 407 481 407 z "},"1":{"ha":884,"x_min":126,"x_max":821,"o":"m 164 0 l 164 114 l 442 114 l 442 859 l 405 859 q 295 751 362 783 q 139 735 227 720 l 126 859 q 304 886 223 847 q 446 1010 385 924 l 568 1010 l 568 114 l 821 114 l 821 0 l 164 0 z "},"2":{"ha":884,"x_min":101,"x_max":783,"o":"m 101 0 l 101 215 q 157 396 101 330 q 340 501 212 463 l 511 552 q 614 604 583 572 q 644 698 644 635 l 644 750 q 602 873 644 837 q 442 909 559 909 q 292 864 335 909 q 240 693 250 819 l 114 706 q 198 951 124 879 q 441 1023 271 1023 q 688 958 606 1023 q 770 763 770 894 l 770 679 q 716 528 770 585 q 537 434 662 471 l 364 384 q 265 333 302 366 q 227 217 227 299 l 227 114 l 783 114 l 783 0 l 101 0 z "},"3":{"ha":884,"x_min":88,"x_max":783,"o":"m 429 -13 q 166 59 235 -13 q 88 274 97 131 l 215 287 q 269 136 227 173 q 429 98 311 98 q 606 138 556 98 q 657 274 657 177 l 657 308 q 609 441 657 403 q 442 480 561 480 l 316 480 l 316 593 l 442 593 q 589 623 547 593 q 631 727 631 653 l 631 768 q 586 879 631 847 q 429 912 542 912 q 290 876 331 912 q 240 742 250 841 l 114 755 q 200 960 122 898 q 429 1023 278 1023 q 670 963 582 1023 q 758 768 758 904 l 758 727 q 705 607 758 652 q 559 557 653 563 l 559 520 q 727 451 672 511 q 783 308 783 390 l 783 274 q 704 62 783 138 q 429 -13 625 -13 z "},"4":{"ha":884,"x_min":88,"x_max":846,"o":"m 227 379 l 568 379 l 568 879 l 227 379 m 846 265 l 694 265 l 694 0 l 568 0 l 568 265 l 88 265 l 88 379 l 511 1010 l 694 1010 l 694 379 l 846 379 l 846 265 z "},"5":{"ha":884,"x_min":88,"x_max":783,"o":"m 441 -13 q 171 49 245 -13 q 88 279 97 110 l 215 292 q 266 136 223 172 q 442 101 308 101 q 607 144 557 101 q 657 273 657 187 l 657 333 q 616 465 657 424 q 486 505 576 505 l 126 505 l 126 1010 l 732 1010 l 732 896 l 253 896 l 253 625 l 486 625 q 710 556 636 625 q 783 345 783 486 l 783 260 q 694 61 783 135 q 441 -13 606 -13 z "},"6":{"ha":884,"x_min":101,"x_max":783,"o":"m 442 -13 q 182 85 264 -13 q 101 348 101 183 l 101 655 q 190 927 101 832 q 444 1023 279 1023 q 670 968 595 1023 q 771 790 746 913 l 634 761 q 581 874 617 838 q 442 909 544 909 q 277 850 326 909 q 227 655 227 792 l 227 534 l 253 534 q 339 605 287 580 q 479 630 391 630 q 706 547 630 630 q 783 331 783 463 l 783 303 q 694 69 783 150 q 442 -13 606 -13 m 441 101 q 602 150 551 101 q 654 301 654 198 l 654 317 q 602 468 654 419 q 441 516 551 516 q 279 468 331 516 q 227 317 227 419 l 227 301 q 279 150 227 198 q 441 101 331 101 z "},"7":{"ha":884,"x_min":101,"x_max":783,"o":"m 316 0 q 446 489 384 312 q 657 884 509 667 l 101 884 l 101 1010 l 783 1010 l 783 884 q 569 458 639 648 q 455 0 500 268 l 316 0 z "},"8":{"ha":884,"x_min":101,"x_max":783,"o":"m 442 -13 q 182 52 263 -13 q 101 261 101 117 l 101 289 q 153 444 101 384 q 299 514 206 505 l 299 551 q 176 607 226 557 q 126 740 126 658 l 126 780 q 201 965 126 908 q 442 1023 277 1023 q 682 965 607 1023 q 758 780 758 908 l 758 740 q 708 607 758 658 q 585 551 658 557 l 585 514 q 730 444 678 505 q 783 289 783 383 l 783 261 q 702 52 783 117 q 442 -13 621 -13 m 442 587 q 590 619 548 587 q 631 734 631 652 l 631 768 q 590 879 631 847 q 442 912 548 912 q 294 879 336 912 q 253 768 253 847 l 253 734 q 294 619 253 652 q 442 587 336 587 m 442 98 q 609 137 562 98 q 657 274 657 176 l 657 295 q 609 434 657 395 q 442 473 562 473 q 275 434 322 473 q 227 295 227 395 l 227 274 q 275 137 227 176 q 442 98 322 98 z "},"9":{"ha":884,"x_min":101,"x_max":783,"o":"m 443 494 q 604 543 551 494 q 657 693 657 592 l 657 710 q 604 860 657 811 q 443 909 551 909 q 283 860 336 909 q 230 710 230 811 l 230 693 q 283 543 230 592 q 443 494 336 494 m 439 -13 q 213 42 289 -13 q 112 220 138 97 l 250 249 q 309 133 269 164 q 442 101 350 101 q 606 160 556 101 q 657 355 657 220 l 657 476 l 631 476 q 539 403 596 427 q 400 380 482 380 q 177 463 253 380 q 101 679 101 547 l 101 707 q 189 941 101 860 q 442 1023 278 1023 q 701 925 620 1023 q 783 662 783 827 l 783 355 q 701 88 783 188 q 439 -13 619 -13 z "},"\u0000":{"ha":0,"x_min":0,"x_max":0,"o":""},"\r":{"ha":0,"x_min":0,"x_max":0,"o":""}," ":{"ha":884,"x_min":0,"x_max":0,"o":""}," ":{"ha":884,"x_min":0,"x_max":0,"o":""},"A":{"ha":884,"x_min":51,"x_max":835,"o":"m 580 404 l 441 867 l 301 404 l 580 404 m 701 0 l 614 290 l 266 290 l 179 0 l 51 0 l 376 1010 l 509 1010 l 835 0 l 701 0 z "},"À":{"ha":884,"x_min":51,"x_max":835,"o":"m 580 404 l 441 867 l 301 404 l 580 404 m 701 0 l 614 290 l 266 290 l 179 0 l 51 0 l 376 1010 l 509 1010 l 835 0 l 701 0 m 444 1136 l 198 1389 l 388 1389 l 559 1136 l 444 1136 z "},"Á":{"ha":884,"x_min":51,"x_max":835,"o":"m 580 404 l 441 867 l 301 404 l 580 404 m 701 0 l 614 290 l 266 290 l 179 0 l 51 0 l 376 1010 l 509 1010 l 835 0 l 701 0 m 299 1136 l 471 1389 l 660 1389 l 414 1136 l 299 1136 z "},"Â":{"ha":884,"x_min":51,"x_max":835,"o":"m 580 404 l 441 867 l 301 404 l 580 404 m 701 0 l 614 290 l 266 290 l 179 0 l 51 0 l 376 1010 l 509 1010 l 835 0 l 701 0 m 225 1141 l 177 1222 l 396 1410 l 487 1410 l 710 1222 l 662 1141 l 442 1288 l 225 1141 z "},"Ã":{"ha":884,"x_min":51,"x_max":835,"o":"m 580 404 l 441 867 l 301 404 l 580 404 m 701 0 l 614 290 l 266 290 l 179 0 l 51 0 l 376 1010 l 509 1010 l 835 0 l 701 0 m 543 1149 q 470 1172 500 1149 q 418 1222 441 1194 q 376 1271 395 1249 q 333 1294 356 1294 q 292 1271 309 1294 q 275 1176 274 1247 l 275 1162 l 178 1162 l 178 1181 q 221 1338 178 1275 q 343 1402 264 1402 q 422 1379 391 1402 q 475 1330 453 1356 q 514 1279 496 1302 q 553 1256 532 1256 q 594 1280 577 1256 q 611 1375 611 1303 l 611 1389 l 708 1389 l 708 1370 q 665 1211 708 1274 q 543 1149 622 1149 z "},"Ä":{"ha":884,"x_min":51,"x_max":835,"o":"m 580 404 l 441 867 l 301 404 l 580 404 m 701 0 l 614 290 l 266 290 l 179 0 l 51 0 l 376 1010 l 509 1010 l 835 0 l 701 0 m 298 1149 q 239 1164 261 1149 q 216 1221 216 1179 l 216 1230 q 239 1289 216 1273 q 298 1304 261 1304 q 357 1289 335 1304 q 380 1230 380 1273 l 380 1221 q 357 1164 380 1179 q 298 1149 333 1149 m 588 1149 q 529 1164 552 1149 q 506 1221 506 1179 l 506 1230 q 529 1289 506 1273 q 588 1304 552 1304 q 648 1289 625 1304 q 670 1230 670 1273 l 670 1221 q 647 1164 670 1179 q 588 1149 624 1149 z "},"Å":{"ha":884,"x_min":51,"x_max":835,"o":"m 580 404 l 441 867 l 301 404 l 580 404 m 701 0 l 614 290 l 266 290 l 179 0 l 51 0 l 376 1010 l 509 1010 l 835 0 l 701 0 m 443 1117 q 297 1162 352 1117 q 241 1301 241 1207 l 241 1341 q 297 1482 241 1436 q 443 1528 352 1528 q 590 1482 534 1528 q 645 1341 645 1436 l 645 1301 q 590 1162 645 1207 q 443 1117 534 1117 m 443 1207 q 520 1229 494 1207 q 547 1301 547 1250 l 547 1341 q 520 1415 547 1391 q 443 1438 494 1438 q 366 1415 391 1438 q 340 1341 340 1391 l 340 1301 q 366 1229 340 1250 q 443 1207 391 1207 z "},"Ā":{"ha":884,"x_min":51,"x_max":835,"o":"m 580 404 l 441 867 l 301 404 l 580 404 m 701 0 l 614 290 l 266 290 l 179 0 l 51 0 l 376 1010 l 509 1010 l 835 0 l 701 0 m 191 1206 l 191 1319 l 696 1319 l 696 1206 l 191 1206 z "},"Ă":{"ha":884,"x_min":51,"x_max":835,"o":"m 580 404 l 441 867 l 301 404 l 580 404 m 701 0 l 614 290 l 266 290 l 179 0 l 51 0 l 376 1010 l 509 1010 l 835 0 l 701 0 m 443 1128 q 236 1187 321 1128 q 150 1393 152 1246 l 277 1393 q 319 1265 278 1302 q 443 1227 360 1227 q 568 1265 527 1227 q 610 1393 609 1302 l 736 1393 q 650 1187 735 1246 q 443 1128 566 1128 z "},"Ą":{"ha":884,"x_min":51,"x_max":912,"o":"m 580 404 l 441 867 l 301 404 l 580 404 m 701 0 l 614 290 l 266 290 l 179 0 l 51 0 l 376 1010 l 509 1010 l 835 0 l 701 0 m 785 -271 q 651 -232 706 -271 q 596 -121 596 -192 q 644 -11 596 -59 q 750 59 692 37 l 784 29 q 725 -29 741 3 q 710 -86 710 -61 q 733 -140 710 -121 q 799 -158 756 -158 q 857 -154 822 -158 q 912 -145 891 -150 l 912 -259 q 851 -268 888 -264 q 785 -271 814 -271 z "},"Ǻ":{"ha":884,"x_min":51,"x_max":835,"o":"m 580 404 l 441 867 l 301 404 l 580 404 m 701 0 l 614 290 l 266 290 l 179 0 l 51 0 l 376 1010 l 509 1010 l 835 0 l 701 0 m 443 1117 q 297 1162 352 1117 q 241 1301 241 1207 l 241 1341 q 297 1482 241 1436 q 443 1528 352 1528 q 590 1482 534 1528 q 645 1341 645 1436 l 645 1301 q 590 1162 645 1207 q 443 1117 534 1117 m 443 1207 q 520 1229 494 1207 q 547 1301 547 1250 l 547 1341 q 520 1415 547 1391 q 443 1438 494 1438 q 366 1415 391 1438 q 340 1341 340 1391 l 340 1301 q 366 1229 340 1250 q 443 1207 391 1207 m 374 1515 l 545 1768 l 735 1768 l 489 1515 l 374 1515 z "},"B":{"ha":884,"x_min":126,"x_max":788,"o":"m 126 0 l 126 1010 l 439 1010 q 672 952 597 1010 q 747 773 747 894 l 747 716 q 711 608 747 652 q 610 553 674 564 l 610 516 q 740 455 692 509 q 788 314 788 400 l 788 258 q 705 63 788 126 q 448 0 621 0 l 126 0 m 253 581 l 452 581 q 583 614 542 581 q 624 721 624 648 l 624 756 q 583 863 624 830 q 452 896 542 896 l 253 896 l 253 581 m 253 114 l 477 114 q 617 151 573 114 q 662 271 662 188 l 662 312 q 617 432 662 395 q 477 470 573 470 l 253 470 l 253 114 z "},"":{"ha":884,"x_min":126,"x_max":788,"o":"m 126 0 l 126 1010 l 439 1010 q 672 952 597 1010 q 747 773 747 894 l 747 716 q 711 608 747 652 q 610 553 674 564 l 610 516 q 740 455 692 509 q 788 314 788 400 l 788 258 q 705 63 788 126 q 448 0 621 0 l 126 0 m 253 581 l 452 581 q 583 614 542 581 q 624 721 624 648 l 624 756 q 583 863 624 830 q 452 896 542 896 l 253 896 l 253 581 m 253 114 l 477 114 q 617 151 573 114 q 662 271 662 188 l 662 312 q 617 432 662 395 q 477 470 573 470 l 253 470 l 253 114 z "},"C":{"ha":884,"x_min":101,"x_max":808,"o":"m 455 -13 q 189 78 278 -13 q 101 350 101 168 l 101 655 q 189 931 101 840 q 456 1023 278 1023 q 714 941 630 1023 q 808 681 798 860 l 682 668 q 621 857 669 804 q 455 909 572 909 q 278 852 330 909 q 227 655 227 794 l 227 350 q 278 157 227 213 q 455 101 330 101 q 621 152 572 101 q 682 337 669 203 l 808 324 q 714 68 798 148 q 455 -13 630 -13 z "},"Ç":{"ha":884,"x_min":101,"x_max":808,"o":"m 455 -13 q 189 78 278 -13 q 101 350 101 168 l 101 655 q 189 931 101 840 q 456 1023 278 1023 q 714 941 630 1023 q 808 681 798 860 l 682 668 q 621 857 669 804 q 455 909 572 909 q 278 852 330 909 q 227 655 227 794 l 227 350 q 278 157 227 213 q 455 101 330 101 q 621 152 572 101 q 682 337 669 203 l 808 324 q 714 68 798 148 q 455 -13 630 -13 m 417 0 l 442 53 q 548 6 497 43 q 598 -115 598 -32 q 542 -235 598 -197 q 414 -273 485 -273 q 278 -242 331 -273 q 221 -139 226 -211 l 332 -126 q 352 -160 335 -150 q 408 -169 369 -169 q 465 -153 446 -169 q 485 -95 485 -138 q 469 -31 485 -52 q 417 0 453 -10 z "},"Ć":{"ha":884,"x_min":101,"x_max":808,"o":"m 455 -13 q 189 78 278 -13 q 101 350 101 168 l 101 655 q 189 931 101 840 q 456 1023 278 1023 q 714 941 630 1023 q 808 681 798 860 l 682 668 q 621 857 669 804 q 455 909 572 909 q 278 852 330 909 q 227 655 227 794 l 227 350 q 278 157 227 213 q 455 101 330 101 q 621 152 572 101 q 682 337 669 203 l 808 324 q 714 68 798 148 q 455 -13 630 -13 m 361 1136 l 533 1389 l 722 1389 l 476 1136 l 361 1136 z "},"Ĉ":{"ha":884,"x_min":101,"x_max":808,"o":"m 455 -13 q 189 78 278 -13 q 101 350 101 168 l 101 655 q 189 931 101 840 q 456 1023 278 1023 q 714 941 630 1023 q 808 681 798 860 l 682 668 q 621 857 669 804 q 455 909 572 909 q 278 852 330 909 q 227 655 227 794 l 227 350 q 278 157 227 213 q 455 101 330 101 q 621 152 572 101 q 682 337 669 203 l 808 324 q 714 68 798 148 q 455 -13 630 -13 m 236 1141 l 188 1222 l 408 1410 l 499 1410 l 721 1222 l 673 1141 l 453 1288 l 236 1141 z "},"Ċ":{"ha":884,"x_min":101,"x_max":808,"o":"m 455 -13 q 189 78 278 -13 q 101 350 101 168 l 101 655 q 189 931 101 840 q 456 1023 278 1023 q 714 941 630 1023 q 808 681 798 860 l 682 668 q 621 857 669 804 q 455 909 572 909 q 278 852 330 909 q 227 655 227 794 l 227 350 q 278 157 227 213 q 455 101 330 101 q 621 152 572 101 q 682 337 669 203 l 808 324 q 714 68 798 148 q 455 -13 630 -13 m 455 1149 q 377 1164 407 1149 q 347 1221 347 1179 l 347 1230 q 377 1289 347 1273 q 455 1304 407 1304 q 532 1289 503 1304 q 562 1230 562 1273 l 562 1221 q 532 1164 562 1179 q 455 1149 501 1149 z "},"Č":{"ha":884,"x_min":101,"x_max":808,"o":"m 455 -13 q 189 78 278 -13 q 101 350 101 168 l 101 655 q 189 931 101 840 q 456 1023 278 1023 q 714 941 630 1023 q 808 681 798 860 l 682 668 q 621 857 669 804 q 455 909 572 909 q 278 852 330 909 q 227 655 227 794 l 227 350 q 278 157 227 213 q 455 101 330 101 q 621 152 572 101 q 682 337 669 203 l 808 324 q 714 68 798 148 q 455 -13 630 -13 m 410 1141 l 188 1330 l 236 1410 l 456 1264 l 673 1410 l 721 1330 l 501 1141 l 410 1141 z "},"D":{"ha":884,"x_min":126,"x_max":783,"o":"m 126 0 l 126 1010 l 405 1010 q 682 910 582 1010 q 783 643 783 809 l 783 362 q 682 98 783 197 q 404 0 581 0 l 126 0 m 253 114 l 404 114 q 594 182 532 114 q 657 362 657 251 l 657 643 q 594 824 657 753 q 404 896 532 896 l 253 896 l 253 114 z "},"Ď":{"ha":884,"x_min":126,"x_max":783,"o":"m 126 0 l 126 1010 l 405 1010 q 682 910 582 1010 q 783 643 783 809 l 783 362 q 682 98 783 197 q 404 0 581 0 l 126 0 m 253 114 l 404 114 q 594 182 532 114 q 657 362 657 251 l 657 643 q 594 824 657 753 q 404 896 532 896 l 253 896 l 253 114 m 398 1141 l 176 1330 l 223 1410 l 443 1264 l 660 1410 l 708 1330 l 489 1141 l 398 1141 z "},"E":{"ha":884,"x_min":126,"x_max":783,"o":"m 126 0 l 126 1010 l 783 1010 l 783 896 l 253 896 l 253 606 l 720 606 l 720 492 l 253 492 l 253 114 l 783 114 l 783 0 l 126 0 z "},"":{"ha":884,"x_min":126,"x_max":783,"o":"m 126 0 l 126 1010 l 783 1010 l 783 896 l 253 896 l 253 606 l 720 606 l 720 492 l 253 492 l 253 114 l 783 114 l 783 0 l 126 0 z "},"È":{"ha":884,"x_min":126,"x_max":783,"o":"m 126 0 l 126 1010 l 783 1010 l 783 896 l 253 896 l 253 606 l 720 606 l 720 492 l 253 492 l 253 114 l 783 114 l 783 0 l 126 0 m 456 1136 l 210 1389 l 399 1389 l 571 1136 l 456 1136 z "},"É":{"ha":884,"x_min":126,"x_max":783,"o":"m 126 0 l 126 1010 l 783 1010 l 783 896 l 253 896 l 253 606 l 720 606 l 720 492 l 253 492 l 253 114 l 783 114 l 783 0 l 126 0 m 336 1136 l 508 1389 l 697 1389 l 451 1136 l 336 1136 z "},"Ê":{"ha":884,"x_min":126,"x_max":783,"o":"m 126 0 l 126 1010 l 783 1010 l 783 896 l 253 896 l 253 606 l 720 606 l 720 492 l 253 492 l 253 114 l 783 114 l 783 0 l 126 0 m 249 1141 l 201 1222 l 420 1410 l 511 1410 l 734 1222 l 686 1141 l 466 1288 l 249 1141 z "},"Ë":{"ha":884,"x_min":126,"x_max":783,"o":"m 126 0 l 126 1010 l 783 1010 l 783 896 l 253 896 l 253 606 l 720 606 l 720 492 l 253 492 l 253 114 l 783 114 l 783 0 l 126 0 m 322 1149 q 263 1164 285 1149 q 240 1221 240 1179 l 240 1230 q 263 1289 240 1273 q 322 1304 285 1304 q 381 1289 359 1304 q 404 1230 404 1273 l 404 1221 q 381 1164 404 1179 q 322 1149 357 1149 m 612 1149 q 553 1164 576 1149 q 530 1221 530 1179 l 530 1230 q 553 1289 530 1273 q 612 1304 576 1304 q 672 1289 649 1304 q 694 1230 694 1273 l 694 1221 q 671 1164 694 1179 q 612 1149 648 1149 z "},"Ē":{"ha":884,"x_min":126,"x_max":783,"o":"m 126 0 l 126 1010 l 783 1010 l 783 896 l 253 896 l 253 606 l 720 606 l 720 492 l 253 492 l 253 114 l 783 114 l 783 0 l 126 0 m 215 1206 l 215 1319 l 720 1319 l 720 1206 l 215 1206 z "},"Ĕ":{"ha":884,"x_min":126,"x_max":783,"o":"m 126 0 l 126 1010 l 783 1010 l 783 896 l 253 896 l 253 606 l 720 606 l 720 492 l 253 492 l 253 114 l 783 114 l 783 0 l 126 0 m 467 1128 q 260 1187 345 1128 q 174 1393 176 1246 l 301 1393 q 343 1265 302 1302 q 467 1227 384 1227 q 592 1265 551 1227 q 634 1393 633 1302 l 760 1393 q 674 1187 759 1246 q 467 1128 590 1128 z "},"Ė":{"ha":884,"x_min":126,"x_max":783,"o":"m 126 0 l 126 1010 l 783 1010 l 783 896 l 253 896 l 253 606 l 720 606 l 720 492 l 253 492 l 253 114 l 783 114 l 783 0 l 126 0 m 467 1149 q 390 1164 419 1149 q 360 1221 360 1179 l 360 1230 q 390 1289 360 1273 q 467 1304 419 1304 q 545 1289 515 1304 q 574 1230 574 1273 l 574 1221 q 544 1164 574 1179 q 467 1149 514 1149 z "},"Ę":{"ha":884,"x_min":126,"x_max":783,"o":"m 126 0 l 126 1010 l 783 1010 l 783 896 l 253 896 l 253 606 l 720 606 l 720 492 l 253 492 l 253 114 l 783 114 l 783 0 l 126 0 m 657 -271 q 522 -232 577 -271 q 467 -121 467 -192 q 515 -11 467 -59 q 621 59 563 37 l 655 29 q 597 -29 612 3 q 581 -86 581 -61 q 604 -140 581 -121 q 670 -158 628 -158 q 728 -154 693 -158 q 783 -145 763 -150 l 783 -259 q 722 -268 759 -264 q 657 -271 686 -271 z "},"Ě":{"ha":884,"x_min":126,"x_max":783,"o":"m 126 0 l 126 1010 l 783 1010 l 783 896 l 253 896 l 253 606 l 720 606 l 720 492 l 253 492 l 253 114 l 783 114 l 783 0 l 126 0 m 436 1141 l 213 1330 l 261 1410 l 481 1264 l 698 1410 l 746 1330 l 527 1141 l 436 1141 z "},"F":{"ha":884,"x_min":126,"x_max":783,"o":"m 126 0 l 126 1010 l 783 1010 l 783 896 l 253 896 l 253 505 l 694 505 l 694 391 l 253 391 l 253 0 l 126 0 z "},"G":{"ha":884,"x_min":101,"x_max":808,"o":"m 467 -13 q 196 81 290 -13 q 101 350 101 176 l 101 655 q 193 927 101 832 q 456 1023 285 1023 q 693 944 611 1023 q 783 706 774 866 l 657 693 q 600 860 646 811 q 455 909 553 909 q 280 850 332 909 q 227 655 227 792 l 227 350 q 283 158 227 215 q 467 101 338 101 q 633 166 583 101 q 682 385 682 231 l 442 385 l 442 499 l 808 499 l 808 362 q 720 85 808 182 q 467 -13 631 -13 z "},"Ĝ":{"ha":884,"x_min":101,"x_max":808,"o":"m 467 -13 q 196 81 290 -13 q 101 350 101 176 l 101 655 q 193 927 101 832 q 456 1023 285 1023 q 693 944 611 1023 q 783 706 774 866 l 657 693 q 600 860 646 811 q 455 909 553 909 q 280 850 332 909 q 227 655 227 792 l 227 350 q 283 158 227 215 q 467 101 338 101 q 633 166 583 101 q 682 385 682 231 l 442 385 l 442 499 l 808 499 l 808 362 q 720 85 808 182 q 467 -13 631 -13 m 249 1141 l 201 1222 l 420 1410 l 511 1410 l 734 1222 l 686 1141 l 466 1288 l 249 1141 z "},"Ğ":{"ha":884,"x_min":101,"x_max":808,"o":"m 467 -13 q 196 81 290 -13 q 101 350 101 176 l 101 655 q 193 927 101 832 q 456 1023 285 1023 q 693 944 611 1023 q 783 706 774 866 l 657 693 q 600 860 646 811 q 455 909 553 909 q 280 850 332 909 q 227 655 227 792 l 227 350 q 283 158 227 215 q 467 101 338 101 q 633 166 583 101 q 682 385 682 231 l 442 385 l 442 499 l 808 499 l 808 362 q 720 85 808 182 q 467 -13 631 -13 m 467 1128 q 260 1187 345 1128 q 174 1393 176 1246 l 301 1393 q 343 1265 302 1302 q 467 1227 384 1227 q 592 1265 551 1227 q 634 1393 633 1302 l 760 1393 q 674 1187 759 1246 q 467 1128 590 1128 z "},"Ġ":{"ha":884,"x_min":101,"x_max":808,"o":"m 467 -13 q 196 81 290 -13 q 101 350 101 176 l 101 655 q 193 927 101 832 q 456 1023 285 1023 q 693 944 611 1023 q 783 706 774 866 l 657 693 q 600 860 646 811 q 455 909 553 909 q 280 850 332 909 q 227 655 227 792 l 227 350 q 283 158 227 215 q 467 101 338 101 q 633 166 583 101 q 682 385 682 231 l 442 385 l 442 499 l 808 499 l 808 362 q 720 85 808 182 q 467 -13 631 -13 m 455 1149 q 377 1164 407 1149 q 347 1221 347 1179 l 347 1230 q 377 1289 347 1273 q 455 1304 407 1304 q 532 1289 503 1304 q 562 1230 562 1273 l 562 1221 q 532 1164 562 1179 q 455 1149 501 1149 z "},"Ģ":{"ha":884,"x_min":101,"x_max":808,"o":"m 467 -13 q 196 81 290 -13 q 101 350 101 176 l 101 655 q 193 927 101 832 q 456 1023 285 1023 q 693 944 611 1023 q 783 706 774 866 l 657 693 q 600 860 646 811 q 455 909 553 909 q 280 850 332 909 q 227 655 227 792 l 227 350 q 283 158 227 215 q 467 101 338 101 q 633 166 583 101 q 682 385 682 231 l 442 385 l 442 499 l 808 499 l 808 362 q 720 85 808 182 q 467 -13 631 -13 m 285 -379 l 407 -126 l 596 -126 l 400 -379 l 285 -379 z "},"H":{"ha":884,"x_min":126,"x_max":758,"o":"m 126 0 l 126 1010 l 253 1010 l 253 606 l 631 606 l 631 1010 l 758 1010 l 758 0 l 631 0 l 631 492 l 253 492 l 253 0 l 126 0 z "},"Ĥ":{"ha":884,"x_min":126,"x_max":758,"o":"m 126 0 l 126 1010 l 253 1010 l 253 606 l 631 606 l 631 1010 l 758 1010 l 758 0 l 631 0 l 631 492 l 253 492 l 253 0 l 126 0 m 223 1141 l 176 1222 l 395 1410 l 486 1410 l 708 1222 l 660 1141 l 441 1288 l 223 1141 z "},"I":{"ha":884,"x_min":126,"x_max":758,"o":"m 126 0 l 126 114 l 379 114 l 379 896 l 126 896 l 126 1010 l 758 1010 l 758 896 l 505 896 l 505 114 l 758 114 l 758 0 l 126 0 z "},"Ì":{"ha":884,"x_min":126,"x_max":758,"o":"m 126 0 l 126 114 l 379 114 l 379 896 l 126 896 l 126 1010 l 758 1010 l 758 896 l 505 896 l 505 114 l 758 114 l 758 0 l 126 0 m 443 1136 l 197 1389 l 386 1389 l 558 1136 l 443 1136 z "},"Í":{"ha":884,"x_min":126,"x_max":758,"o":"m 126 0 l 126 114 l 379 114 l 379 896 l 126 896 l 126 1010 l 758 1010 l 758 896 l 505 896 l 505 114 l 758 114 l 758 0 l 126 0 m 298 1136 l 470 1389 l 659 1389 l 413 1136 l 298 1136 z "},"Î":{"ha":884,"x_min":126,"x_max":758,"o":"m 126 0 l 126 114 l 379 114 l 379 896 l 126 896 l 126 1010 l 758 1010 l 758 896 l 505 896 l 505 114 l 758 114 l 758 0 l 126 0 m 223 1141 l 176 1222 l 395 1410 l 486 1410 l 708 1222 l 660 1141 l 441 1288 l 223 1141 z "},"Ï":{"ha":884,"x_min":126,"x_max":758,"o":"m 126 0 l 126 114 l 379 114 l 379 896 l 126 896 l 126 1010 l 758 1010 l 758 896 l 505 896 l 505 114 l 758 114 l 758 0 l 126 0 m 297 1149 q 237 1164 260 1149 q 215 1221 215 1179 l 215 1230 q 237 1289 215 1273 q 297 1304 260 1304 q 356 1289 333 1304 q 379 1230 379 1273 l 379 1221 q 355 1164 379 1179 q 297 1149 332 1149 m 587 1149 q 528 1164 551 1149 q 505 1221 505 1179 l 505 1230 q 528 1289 505 1273 q 587 1304 551 1304 q 646 1289 624 1304 q 669 1230 669 1273 l 669 1221 q 646 1164 669 1179 q 587 1149 622 1149 z "},"Ĩ":{"ha":884,"x_min":126,"x_max":758,"o":"m 126 0 l 126 114 l 379 114 l 379 896 l 126 896 l 126 1010 l 758 1010 l 758 896 l 505 896 l 505 114 l 758 114 l 758 0 l 126 0 m 542 1149 q 469 1172 499 1149 q 417 1222 439 1194 q 374 1271 394 1249 q 332 1294 355 1294 q 290 1271 308 1294 q 274 1176 273 1247 l 274 1162 l 177 1162 l 177 1181 q 220 1338 177 1275 q 342 1402 263 1402 q 421 1379 390 1402 q 473 1330 452 1356 q 513 1279 495 1302 q 552 1256 530 1256 q 593 1280 576 1256 q 610 1375 610 1303 l 610 1389 l 707 1389 l 707 1370 q 664 1211 707 1274 q 542 1149 621 1149 z "},"Ī":{"ha":884,"x_min":126,"x_max":758,"o":"m 126 0 l 126 114 l 379 114 l 379 896 l 126 896 l 126 1010 l 758 1010 l 758 896 l 505 896 l 505 114 l 758 114 l 758 0 l 126 0 m 189 1206 l 189 1319 l 694 1319 l 694 1206 l 189 1206 z "},"Ĭ":{"ha":884,"x_min":126,"x_max":758,"o":"m 126 0 l 126 114 l 379 114 l 379 896 l 126 896 l 126 1010 l 758 1010 l 758 896 l 505 896 l 505 114 l 758 114 l 758 0 l 126 0 m 442 1128 q 235 1187 319 1128 q 149 1393 150 1246 l 275 1393 q 318 1265 277 1302 q 442 1227 359 1227 q 566 1265 525 1227 q 609 1393 607 1302 l 735 1393 q 649 1187 734 1246 q 442 1128 564 1128 z "},"Į":{"ha":884,"x_min":126,"x_max":758,"o":"m 126 0 l 126 114 l 379 114 l 379 896 l 126 896 l 126 1010 l 758 1010 l 758 896 l 505 896 l 505 114 l 758 114 l 758 0 l 126 0 m 537 -271 q 402 -232 457 -271 q 347 -121 347 -192 q 395 -11 347 -59 q 501 59 443 37 l 535 29 q 477 -29 492 3 q 461 -86 461 -61 q 484 -140 461 -121 q 551 -158 508 -158 q 608 -154 573 -158 q 663 -145 643 -150 l 663 -259 q 602 -268 639 -264 q 537 -271 566 -271 z "},"İ":{"ha":884,"x_min":126,"x_max":758,"o":"m 126 0 l 126 114 l 379 114 l 379 896 l 126 896 l 126 1010 l 758 1010 l 758 896 l 505 896 l 505 114 l 758 114 l 758 0 l 126 0 m 442 1149 q 364 1164 394 1149 q 335 1221 335 1179 l 335 1230 q 364 1289 335 1273 q 442 1304 394 1304 q 520 1289 490 1304 q 549 1230 549 1273 l 549 1221 q 519 1164 549 1179 q 442 1149 489 1149 z "},"J":{"ha":884,"x_min":76,"x_max":758,"o":"m 415 -13 q 167 69 250 -13 q 76 324 85 152 l 202 338 q 255 149 211 197 q 417 101 299 101 q 578 157 525 101 q 631 327 631 213 l 631 896 l 379 896 l 379 1010 l 758 1010 l 758 328 q 670 75 758 163 q 415 -13 582 -13 z "},"Ĵ":{"ha":884,"x_min":76,"x_max":822,"o":"m 415 -13 q 167 69 250 -13 q 76 324 85 152 l 202 338 q 255 149 211 197 q 417 101 299 101 q 578 157 525 101 q 631 327 631 213 l 631 896 l 379 896 l 379 1010 l 758 1010 l 758 328 q 670 75 758 163 q 415 -13 582 -13 m 337 1141 l 289 1222 l 509 1410 l 600 1410 l 822 1222 l 774 1141 l 554 1288 l 337 1141 z "},"K":{"ha":884,"x_min":126,"x_max":832,"o":"m 253 480 l 253 0 l 126 0 l 126 1010 l 253 1010 l 253 593 l 295 593 l 686 1010 l 832 1010 l 399 545 l 828 0 l 677 0 l 299 480 l 253 480 z "},"Ķ":{"ha":884,"x_min":126,"x_max":832,"o":"m 253 480 l 253 0 l 126 0 l 126 1010 l 253 1010 l 253 593 l 295 593 l 686 1010 l 832 1010 l 399 545 l 828 0 l 677 0 l 299 480 l 253 480 m 273 -379 l 394 -126 l 583 -126 l 388 -379 l 273 -379 z "},"L":{"ha":884,"x_min":189,"x_max":758,"o":"m 189 0 l 189 1010 l 316 1010 l 316 114 l 758 114 l 758 0 l 189 0 z "},"Ĺ":{"ha":884,"x_min":189,"x_max":758,"o":"m 189 0 l 189 1010 l 316 1010 l 316 114 l 758 114 l 758 0 l 189 0 m 235 1136 l 407 1389 l 596 1389 l 350 1136 l 235 1136 z "},"Ļ":{"ha":884,"x_min":189,"x_max":758,"o":"m 189 0 l 189 1010 l 316 1010 l 316 114 l 758 114 l 758 0 l 189 0 m 292 -379 l 413 -126 l 602 -126 l 407 -379 l 292 -379 z "},"Ľ":{"ha":884,"x_min":189,"x_max":775,"o":"m 189 0 l 189 1010 l 316 1010 l 316 114 l 758 114 l 758 0 l 189 0 m 487 638 l 590 1010 l 775 1010 l 578 638 l 487 638 z "},"M":{"ha":884,"x_min":88,"x_max":795,"o":"m 381 253 l 202 807 l 202 0 l 88 0 l 88 1010 l 259 1010 l 446 403 l 631 1010 l 795 1010 l 795 0 l 682 0 l 682 808 l 503 253 l 381 253 z "},"N":{"ha":884,"x_min":126,"x_max":758,"o":"m 577 0 l 240 851 l 240 0 l 126 0 l 126 1010 l 299 1010 l 644 140 l 644 1010 l 758 1010 l 758 0 l 577 0 z "},"Ñ":{"ha":884,"x_min":126,"x_max":758,"o":"m 577 0 l 240 851 l 240 0 l 126 0 l 126 1010 l 299 1010 l 644 140 l 644 1010 l 758 1010 l 758 0 l 577 0 m 567 1149 q 494 1172 524 1149 q 442 1222 465 1194 q 400 1271 419 1249 q 357 1294 380 1294 q 316 1271 333 1294 q 299 1176 298 1247 l 299 1162 l 202 1162 l 202 1181 q 245 1338 202 1275 q 367 1402 288 1402 q 446 1379 415 1402 q 499 1330 477 1356 q 538 1279 520 1302 q 577 1256 556 1256 q 618 1280 601 1256 q 635 1375 635 1303 l 635 1389 l 732 1389 l 732 1370 q 689 1211 732 1274 q 567 1149 646 1149 z "},"Ń":{"ha":884,"x_min":126,"x_max":758,"o":"m 577 0 l 240 851 l 240 0 l 126 0 l 126 1010 l 299 1010 l 644 140 l 644 1010 l 758 1010 l 758 0 l 577 0 m 323 1136 l 495 1389 l 684 1389 l 438 1136 l 323 1136 z "},"Ņ":{"ha":884,"x_min":126,"x_max":758,"o":"m 577 0 l 240 851 l 240 0 l 126 0 l 126 1010 l 299 1010 l 644 140 l 644 1010 l 758 1010 l 758 0 l 577 0 m 247 -379 l 369 -126 l 558 -126 l 362 -379 l 247 -379 z "},"Ň":{"ha":884,"x_min":126,"x_max":758,"o":"m 577 0 l 240 851 l 240 0 l 126 0 l 126 1010 l 299 1010 l 644 140 l 644 1010 l 758 1010 l 758 0 l 577 0 m 423 1141 l 201 1330 l 249 1410 l 468 1264 l 686 1410 l 734 1330 l 514 1141 l 423 1141 z "},"O":{"ha":884,"x_min":101,"x_max":783,"o":"m 442 -13 q 188 80 275 -13 q 101 350 101 173 l 101 655 q 189 929 101 835 q 443 1023 277 1023 q 696 929 609 1023 q 783 655 783 835 l 783 350 q 696 80 783 173 q 442 -13 609 -13 m 442 101 q 607 158 558 101 q 657 350 657 215 l 657 655 q 607 851 657 793 q 442 909 558 909 q 277 851 326 909 q 227 655 227 793 l 227 350 q 277 158 227 215 q 442 101 326 101 z "},"Ò":{"ha":884,"x_min":101,"x_max":783,"o":"m 442 -13 q 188 80 275 -13 q 101 350 101 173 l 101 655 q 189 929 101 835 q 443 1023 277 1023 q 696 929 609 1023 q 783 655 783 835 l 783 350 q 696 80 783 173 q 442 -13 609 -13 m 442 101 q 607 158 558 101 q 657 350 657 215 l 657 655 q 607 851 657 793 q 442 909 558 909 q 277 851 326 909 q 227 655 227 793 l 227 350 q 277 158 227 215 q 442 101 326 101 m 443 1136 l 197 1389 l 386 1389 l 558 1136 l 443 1136 z "},"Ó":{"ha":884,"x_min":101,"x_max":783,"o":"m 442 -13 q 188 80 275 -13 q 101 350 101 173 l 101 655 q 189 929 101 835 q 443 1023 277 1023 q 696 929 609 1023 q 783 655 783 835 l 783 350 q 696 80 783 173 q 442 -13 609 -13 m 442 101 q 607 158 558 101 q 657 350 657 215 l 657 655 q 607 851 657 793 q 442 909 558 909 q 277 851 326 909 q 227 655 227 793 l 227 350 q 277 158 227 215 q 442 101 326 101 m 348 1136 l 520 1389 l 710 1389 l 463 1136 l 348 1136 z "},"Ô":{"ha":884,"x_min":101,"x_max":783,"o":"m 442 -13 q 188 80 275 -13 q 101 350 101 173 l 101 655 q 189 929 101 835 q 443 1023 277 1023 q 696 929 609 1023 q 783 655 783 835 l 783 350 q 696 80 783 173 q 442 -13 609 -13 m 442 101 q 607 158 558 101 q 657 350 657 215 l 657 655 q 607 851 657 793 q 442 909 558 909 q 277 851 326 909 q 227 655 227 793 l 227 350 q 277 158 227 215 q 442 101 326 101 m 223 1141 l 176 1222 l 395 1410 l 486 1410 l 708 1222 l 660 1141 l 441 1288 l 223 1141 z "},"Õ":{"ha":884,"x_min":101,"x_max":783,"o":"m 442 -13 q 188 80 275 -13 q 101 350 101 173 l 101 655 q 189 929 101 835 q 443 1023 277 1023 q 696 929 609 1023 q 783 655 783 835 l 783 350 q 696 80 783 173 q 442 -13 609 -13 m 442 101 q 607 158 558 101 q 657 350 657 215 l 657 655 q 607 851 657 793 q 442 909 558 909 q 277 851 326 909 q 227 655 227 793 l 227 350 q 277 158 227 215 q 442 101 326 101 m 542 1149 q 469 1172 499 1149 q 417 1222 439 1194 q 374 1271 394 1249 q 332 1294 355 1294 q 290 1271 308 1294 q 274 1176 273 1247 l 274 1162 l 177 1162 l 177 1181 q 220 1338 177 1275 q 342 1402 263 1402 q 421 1379 390 1402 q 473 1330 452 1356 q 513 1279 495 1302 q 552 1256 530 1256 q 593 1280 576 1256 q 610 1375 610 1303 l 610 1389 l 707 1389 l 707 1370 q 664 1211 707 1274 q 542 1149 621 1149 z "},"Ö":{"ha":884,"x_min":101,"x_max":783,"o":"m 442 -13 q 188 80 275 -13 q 101 350 101 173 l 101 655 q 189 929 101 835 q 443 1023 277 1023 q 696 929 609 1023 q 783 655 783 835 l 783 350 q 696 80 783 173 q 442 -13 609 -13 m 442 101 q 607 158 558 101 q 657 350 657 215 l 657 655 q 607 851 657 793 q 442 909 558 909 q 277 851 326 909 q 227 655 227 793 l 227 350 q 277 158 227 215 q 442 101 326 101 m 297 1149 q 237 1164 260 1149 q 215 1221 215 1179 l 215 1230 q 237 1289 215 1273 q 297 1304 260 1304 q 356 1289 333 1304 q 379 1230 379 1273 l 379 1221 q 355 1164 379 1179 q 297 1149 332 1149 m 587 1149 q 528 1164 551 1149 q 505 1221 505 1179 l 505 1230 q 528 1289 505 1273 q 587 1304 551 1304 q 646 1289 624 1304 q 669 1230 669 1273 l 669 1221 q 646 1164 669 1179 q 587 1149 622 1149 z "},"Ō":{"ha":884,"x_min":101,"x_max":783,"o":"m 442 -13 q 188 80 275 -13 q 101 350 101 173 l 101 655 q 189 929 101 835 q 443 1023 277 1023 q 696 929 609 1023 q 783 655 783 835 l 783 350 q 696 80 783 173 q 442 -13 609 -13 m 442 101 q 607 158 558 101 q 657 350 657 215 l 657 655 q 607 851 657 793 q 442 909 558 909 q 277 851 326 909 q 227 655 227 793 l 227 350 q 277 158 227 215 q 442 101 326 101 m 189 1206 l 189 1319 l 694 1319 l 694 1206 l 189 1206 z "},"Ŏ":{"ha":884,"x_min":101,"x_max":783,"o":"m 442 -13 q 188 80 275 -13 q 101 350 101 173 l 101 655 q 189 929 101 835 q 443 1023 277 1023 q 696 929 609 1023 q 783 655 783 835 l 783 350 q 696 80 783 173 q 442 -13 609 -13 m 442 101 q 607 158 558 101 q 657 350 657 215 l 657 655 q 607 851 657 793 q 442 909 558 909 q 277 851 326 909 q 227 655 227 793 l 227 350 q 277 158 227 215 q 442 101 326 101 m 442 1128 q 235 1187 319 1128 q 149 1393 150 1246 l 275 1393 q 318 1265 277 1302 q 442 1227 359 1227 q 566 1265 525 1227 q 609 1393 607 1302 l 735 1393 q 649 1187 734 1246 q 442 1128 564 1128 z "},"Ő":{"ha":884,"x_min":101,"x_max":783,"o":"m 442 -13 q 188 80 275 -13 q 101 350 101 173 l 101 655 q 189 929 101 835 q 443 1023 277 1023 q 696 929 609 1023 q 783 655 783 835 l 783 350 q 696 80 783 173 q 442 -13 609 -13 m 442 101 q 607 158 558 101 q 657 350 657 215 l 657 655 q 607 851 657 793 q 442 909 558 909 q 277 851 326 909 q 227 655 227 793 l 227 350 q 277 158 227 215 q 442 101 326 101 m 513 1136 l 583 1389 l 760 1389 l 602 1136 l 513 1136 m 222 1136 l 293 1389 l 470 1389 l 312 1136 l 222 1136 z "},"P":{"ha":884,"x_min":126,"x_max":795,"o":"m 126 0 l 126 1010 l 481 1010 q 717 944 639 1010 q 795 744 795 878 l 795 620 q 717 420 795 486 q 480 354 638 354 l 253 354 l 253 0 l 126 0 m 253 465 l 480 465 q 626 501 582 465 q 669 622 669 537 l 669 739 q 626 860 669 824 q 480 896 582 896 l 253 896 l 253 465 z "},"Q":{"ha":884,"x_min":101,"x_max":821,"o":"m 821 -241 q 533 -223 634 -282 q 429 -13 433 -164 q 184 83 268 -9 q 101 350 101 176 l 101 655 q 188 929 101 836 q 443 1023 274 1023 q 697 929 611 1023 q 783 655 783 836 l 783 350 q 725 116 783 205 q 556 0 668 28 q 617 -121 558 -90 q 802 -128 677 -152 l 821 -241 m 442 114 q 607 168 558 114 q 657 350 657 222 l 657 655 q 607 841 657 785 q 442 896 558 896 q 277 841 326 896 q 227 655 227 785 l 227 350 q 277 168 227 222 q 442 114 326 114 z "},"R":{"ha":884,"x_min":126,"x_max":832,"o":"m 253 503 l 505 503 q 651 540 607 503 q 694 665 694 577 l 694 744 q 651 862 694 827 q 505 896 607 896 l 253 896 l 253 503 m 253 0 l 126 0 l 126 1010 l 506 1010 q 742 944 664 1010 q 821 744 821 878 l 821 665 q 759 476 821 544 q 573 395 698 408 l 832 0 l 688 0 l 432 391 l 253 391 l 253 0 z "},"Ŕ":{"ha":884,"x_min":126,"x_max":832,"o":"m 253 503 l 505 503 q 651 540 607 503 q 694 665 694 577 l 694 744 q 651 862 694 827 q 505 896 607 896 l 253 896 l 253 503 m 253 0 l 126 0 l 126 1010 l 506 1010 q 742 944 664 1010 q 821 744 821 878 l 821 665 q 759 476 821 544 q 573 395 698 408 l 832 0 l 688 0 l 432 391 l 253 391 l 253 0 m 393 1136 l 564 1389 l 754 1389 l 508 1136 l 393 1136 z "},"Ŗ":{"ha":884,"x_min":126,"x_max":832,"o":"m 253 503 l 505 503 q 651 540 607 503 q 694 665 694 577 l 694 744 q 651 862 694 827 q 505 896 607 896 l 253 896 l 253 503 m 253 0 l 126 0 l 126 1010 l 506 1010 q 742 944 664 1010 q 821 744 821 878 l 821 665 q 759 476 821 544 q 573 395 698 408 l 832 0 l 688 0 l 432 391 l 253 391 l 253 0 m 254 -379 l 375 -126 l 564 -126 l 369 -379 l 254 -379 z "},"Ř":{"ha":884,"x_min":126,"x_max":832,"o":"m 253 503 l 505 503 q 651 540 607 503 q 694 665 694 577 l 694 744 q 651 862 694 827 q 505 896 607 896 l 253 896 l 253 503 m 253 0 l 126 0 l 126 1010 l 506 1010 q 742 944 664 1010 q 821 744 821 878 l 821 665 q 759 476 821 544 q 573 395 698 408 l 832 0 l 688 0 l 432 391 l 253 391 l 253 0 m 404 1141 l 182 1330 l 230 1410 l 449 1264 l 667 1410 l 715 1330 l 495 1141 l 404 1141 z "},"S":{"ha":884,"x_min":69,"x_max":797,"o":"m 458 -8 q 246 29 345 -8 q 69 163 148 66 l 160 249 q 287 141 213 177 q 462 106 361 106 q 613 150 556 106 q 670 268 670 193 q 621 378 670 340 q 427 460 572 417 q 176 574 242 513 q 109 750 109 636 q 196 948 109 881 q 409 1015 284 1015 q 610 978 515 1015 q 779 846 706 941 l 692 759 q 566 866 641 831 q 412 902 490 902 q 284 869 332 902 q 236 761 236 837 q 289 656 236 694 q 495 573 341 617 q 733 463 669 523 q 797 289 797 403 q 693 68 797 144 q 458 -8 590 -8 z "},"":{"ha":884,"x_min":69,"x_max":797,"o":"m 458 -8 q 246 29 345 -8 q 69 163 148 66 l 160 249 q 287 141 213 177 q 462 106 361 106 q 613 150 556 106 q 670 268 670 193 q 621 378 670 340 q 427 460 572 417 q 176 574 242 513 q 109 750 109 636 q 196 948 109 881 q 409 1015 284 1015 q 610 978 515 1015 q 779 846 706 941 l 692 759 q 566 866 641 831 q 412 902 490 902 q 284 869 332 902 q 236 761 236 837 q 289 656 236 694 q 495 573 341 617 q 733 463 669 523 q 797 289 797 403 q 693 68 797 144 q 458 -8 590 -8 z "},"Ś":{"ha":884,"x_min":69,"x_max":797,"o":"m 458 -8 q 246 29 345 -8 q 69 163 148 66 l 160 249 q 287 141 213 177 q 462 106 361 106 q 613 150 556 106 q 670 268 670 193 q 621 378 670 340 q 427 460 572 417 q 176 574 242 513 q 109 750 109 636 q 196 948 109 881 q 409 1015 284 1015 q 610 978 515 1015 q 779 846 706 941 l 692 759 q 566 866 641 831 q 412 902 490 902 q 284 869 332 902 q 236 761 236 837 q 289 656 236 694 q 495 573 341 617 q 733 463 669 523 q 797 289 797 403 q 693 68 797 144 q 458 -8 590 -8 m 299 1136 l 471 1389 l 660 1389 l 414 1136 l 299 1136 z "},"Ŝ":{"ha":884,"x_min":69,"x_max":797,"o":"m 458 -8 q 246 29 345 -8 q 69 163 148 66 l 160 249 q 287 141 213 177 q 462 106 361 106 q 613 150 556 106 q 670 268 670 193 q 621 378 670 340 q 427 460 572 417 q 176 574 242 513 q 109 750 109 636 q 196 948 109 881 q 409 1015 284 1015 q 610 978 515 1015 q 779 846 706 941 l 692 759 q 566 866 641 831 q 412 902 490 902 q 284 869 332 902 q 236 761 236 837 q 289 656 236 694 q 495 573 341 617 q 733 463 669 523 q 797 289 797 403 q 693 68 797 144 q 458 -8 590 -8 m 225 1141 l 177 1222 l 396 1410 l 487 1410 l 710 1222 l 662 1141 l 442 1288 l 225 1141 z "},"Ş":{"ha":884,"x_min":69,"x_max":797,"o":"m 458 -8 q 246 29 345 -8 q 69 163 148 66 l 160 249 q 287 141 213 177 q 462 106 361 106 q 613 150 556 106 q 670 268 670 193 q 621 378 670 340 q 427 460 572 417 q 176 574 242 513 q 109 750 109 636 q 196 948 109 881 q 409 1015 284 1015 q 610 978 515 1015 q 779 846 706 941 l 692 759 q 566 866 641 831 q 412 902 490 902 q 284 869 332 902 q 236 761 236 837 q 289 656 236 694 q 495 573 341 617 q 733 463 669 523 q 797 289 797 403 q 693 68 797 144 q 458 -8 590 -8 m 405 0 l 431 53 q 537 6 486 43 q 587 -115 587 -32 q 530 -235 587 -197 q 403 -273 473 -273 q 267 -242 319 -273 q 210 -139 215 -211 l 321 -126 q 340 -160 323 -150 q 396 -169 357 -169 q 454 -153 434 -169 q 473 -95 473 -138 q 458 -31 473 -52 q 405 0 442 -10 z "},"Š":{"ha":884,"x_min":69,"x_max":797,"o":"m 458 -8 q 246 29 345 -8 q 69 163 148 66 l 160 249 q 287 141 213 177 q 462 106 361 106 q 613 150 556 106 q 670 268 670 193 q 621 378 670 340 q 427 460 572 417 q 176 574 242 513 q 109 750 109 636 q 196 948 109 881 q 409 1015 284 1015 q 610 978 515 1015 q 779 846 706 941 l 692 759 q 566 866 641 831 q 412 902 490 902 q 284 869 332 902 q 236 761 236 837 q 289 656 236 694 q 495 573 341 617 q 733 463 669 523 q 797 289 797 403 q 693 68 797 144 q 458 -8 590 -8 m 399 1141 l 177 1330 l 225 1410 l 444 1264 l 662 1410 l 710 1330 l 490 1141 l 399 1141 z "},"Ș":{"ha":884,"x_min":69,"x_max":797,"o":"m 458 -8 q 246 29 345 -8 q 69 163 148 66 l 160 249 q 287 141 213 177 q 462 106 361 106 q 613 150 556 106 q 670 268 670 193 q 621 378 670 340 q 427 460 572 417 q 176 574 242 513 q 109 750 109 636 q 196 948 109 881 q 409 1015 284 1015 q 610 978 515 1015 q 779 846 706 941 l 692 759 q 566 866 641 831 q 412 902 490 902 q 284 869 332 902 q 236 761 236 837 q 289 656 236 694 q 495 573 341 617 q 733 463 669 523 q 797 289 797 403 q 693 68 797 144 q 458 -8 590 -8 m 247 -379 l 369 -126 l 558 -126 l 362 -379 l 247 -379 z "},"T":{"ha":884,"x_min":63,"x_max":821,"o":"m 379 0 l 379 896 l 63 896 l 63 1010 l 821 1010 l 821 896 l 505 896 l 505 0 l 379 0 z "},"Ţ":{"ha":884,"x_min":63,"x_max":821,"o":"m 379 0 l 379 896 l 63 896 l 63 1010 l 821 1010 l 821 896 l 505 896 l 505 0 l 379 0 m 388 0 l 413 53 q 519 6 468 43 q 569 -115 569 -32 q 513 -235 569 -197 q 385 -273 456 -273 q 249 -242 302 -273 q 192 -139 197 -211 l 303 -126 q 323 -160 306 -150 q 379 -169 340 -169 q 436 -153 417 -169 q 456 -95 456 -138 q 440 -31 456 -52 q 388 0 424 -10 z "},"Ť":{"ha":884,"x_min":63,"x_max":821,"o":"m 379 0 l 379 896 l 63 896 l 63 1010 l 821 1010 l 821 896 l 505 896 l 505 0 l 379 0 m 398 1141 l 176 1330 l 223 1410 l 443 1264 l 660 1410 l 708 1330 l 489 1141 l 398 1141 z "},"Ț":{"ha":884,"x_min":63,"x_max":821,"o":"m 379 0 l 379 896 l 63 896 l 63 1010 l 821 1010 l 821 896 l 505 896 l 505 0 l 379 0 m 246 -379 l 367 -126 l 557 -126 l 361 -379 l 246 -379 z "},"U":{"ha":884,"x_min":126,"x_max":758,"o":"m 442 -13 q 205 78 284 -13 q 126 350 126 168 l 126 1010 l 253 1010 l 253 350 q 296 158 253 215 q 442 101 340 101 q 588 158 544 101 q 631 350 631 215 l 631 1010 l 758 1010 l 758 350 q 679 78 758 168 q 442 -13 600 -13 z "},"Ù":{"ha":884,"x_min":126,"x_max":758,"o":"m 442 -13 q 205 78 284 -13 q 126 350 126 168 l 126 1010 l 253 1010 l 253 350 q 296 158 253 215 q 442 101 340 101 q 588 158 544 101 q 631 350 631 215 l 631 1010 l 758 1010 l 758 350 q 679 78 758 168 q 442 -13 600 -13 m 443 1136 l 197 1389 l 386 1389 l 558 1136 l 443 1136 z "},"Ú":{"ha":884,"x_min":126,"x_max":758,"o":"m 442 -13 q 205 78 284 -13 q 126 350 126 168 l 126 1010 l 253 1010 l 253 350 q 296 158 253 215 q 442 101 340 101 q 588 158 544 101 q 631 350 631 215 l 631 1010 l 758 1010 l 758 350 q 679 78 758 168 q 442 -13 600 -13 m 298 1136 l 470 1389 l 659 1389 l 413 1136 l 298 1136 z "},"Û":{"ha":884,"x_min":126,"x_max":758,"o":"m 442 -13 q 205 78 284 -13 q 126 350 126 168 l 126 1010 l 253 1010 l 253 350 q 296 158 253 215 q 442 101 340 101 q 588 158 544 101 q 631 350 631 215 l 631 1010 l 758 1010 l 758 350 q 679 78 758 168 q 442 -13 600 -13 m 223 1141 l 176 1222 l 395 1410 l 486 1410 l 708 1222 l 660 1141 l 441 1288 l 223 1141 z "},"Ü":{"ha":884,"x_min":126,"x_max":758,"o":"m 442 -13 q 205 78 284 -13 q 126 350 126 168 l 126 1010 l 253 1010 l 253 350 q 296 158 253 215 q 442 101 340 101 q 588 158 544 101 q 631 350 631 215 l 631 1010 l 758 1010 l 758 350 q 679 78 758 168 q 442 -13 600 -13 m 297 1149 q 237 1164 260 1149 q 215 1221 215 1179 l 215 1230 q 237 1289 215 1273 q 297 1304 260 1304 q 356 1289 333 1304 q 379 1230 379 1273 l 379 1221 q 355 1164 379 1179 q 297 1149 332 1149 m 587 1149 q 528 1164 551 1149 q 505 1221 505 1179 l 505 1230 q 528 1289 505 1273 q 587 1304 551 1304 q 646 1289 624 1304 q 669 1230 669 1273 l 669 1221 q 646 1164 669 1179 q 587 1149 622 1149 z "},"Ũ":{"ha":884,"x_min":126,"x_max":758,"o":"m 442 -13 q 205 78 284 -13 q 126 350 126 168 l 126 1010 l 253 1010 l 253 350 q 296 158 253 215 q 442 101 340 101 q 588 158 544 101 q 631 350 631 215 l 631 1010 l 758 1010 l 758 350 q 679 78 758 168 q 442 -13 600 -13 m 542 1149 q 469 1172 499 1149 q 417 1222 439 1194 q 374 1271 394 1249 q 332 1294 355 1294 q 290 1271 308 1294 q 274 1176 273 1247 l 274 1162 l 177 1162 l 177 1181 q 220 1338 177 1275 q 342 1402 263 1402 q 421 1379 390 1402 q 473 1330 452 1356 q 513 1279 495 1302 q 552 1256 530 1256 q 593 1280 576 1256 q 610 1375 610 1303 l 610 1389 l 707 1389 l 707 1370 q 664 1211 707 1274 q 542 1149 621 1149 z "},"Ū":{"ha":884,"x_min":126,"x_max":758,"o":"m 442 -13 q 205 78 284 -13 q 126 350 126 168 l 126 1010 l 253 1010 l 253 350 q 296 158 253 215 q 442 101 340 101 q 588 158 544 101 q 631 350 631 215 l 631 1010 l 758 1010 l 758 350 q 679 78 758 168 q 442 -13 600 -13 m 189 1206 l 189 1319 l 694 1319 l 694 1206 l 189 1206 z "},"Ŭ":{"ha":884,"x_min":126,"x_max":758,"o":"m 442 -13 q 205 78 284 -13 q 126 350 126 168 l 126 1010 l 253 1010 l 253 350 q 296 158 253 215 q 442 101 340 101 q 588 158 544 101 q 631 350 631 215 l 631 1010 l 758 1010 l 758 350 q 679 78 758 168 q 442 -13 600 -13 m 442 1128 q 235 1187 319 1128 q 149 1393 150 1246 l 275 1393 q 318 1265 277 1302 q 442 1227 359 1227 q 566 1265 525 1227 q 609 1393 607 1302 l 735 1393 q 649 1187 734 1246 q 442 1128 564 1128 z "},"Ů":{"ha":884,"x_min":126,"x_max":758,"o":"m 442 -13 q 205 78 284 -13 q 126 350 126 168 l 126 1010 l 253 1010 l 253 350 q 296 158 253 215 q 442 101 340 101 q 588 158 544 101 q 631 350 631 215 l 631 1010 l 758 1010 l 758 350 q 679 78 758 168 q 442 -13 600 -13 m 442 1117 q 295 1162 351 1117 q 240 1301 240 1207 l 240 1341 q 295 1482 240 1436 q 442 1528 351 1528 q 588 1482 533 1528 q 644 1341 644 1436 l 644 1301 q 588 1162 644 1207 q 442 1117 533 1117 m 442 1207 q 519 1229 492 1207 q 545 1301 545 1250 l 545 1341 q 519 1415 545 1391 q 442 1438 492 1438 q 364 1415 390 1438 q 338 1341 338 1391 l 338 1301 q 364 1229 338 1250 q 442 1207 390 1207 z "},"Ű":{"ha":884,"x_min":126,"x_max":773,"o":"m 442 -13 q 205 78 284 -13 q 126 350 126 168 l 126 1010 l 253 1010 l 253 350 q 296 158 253 215 q 442 101 340 101 q 588 158 544 101 q 631 350 631 215 l 631 1010 l 758 1010 l 758 350 q 679 78 758 168 q 442 -13 600 -13 m 525 1136 l 596 1389 l 773 1389 l 615 1136 l 525 1136 m 235 1136 l 306 1389 l 482 1389 l 324 1136 l 235 1136 z "},"Ų":{"ha":884,"x_min":126,"x_max":758,"o":"m 442 -13 q 205 78 284 -13 q 126 350 126 168 l 126 1010 l 253 1010 l 253 350 q 296 158 253 215 q 442 101 340 101 q 588 158 544 101 q 631 350 631 215 l 631 1010 l 758 1010 l 758 350 q 679 78 758 168 q 442 -13 600 -13 m 524 -271 q 390 -232 444 -271 q 335 -121 335 -192 q 383 -11 335 -59 q 489 59 431 37 l 523 29 q 464 -29 480 3 q 448 -86 448 -61 q 472 -140 448 -121 q 538 -158 495 -158 q 595 -154 561 -158 q 650 -145 630 -150 l 650 -259 q 590 -268 626 -264 q 524 -271 553 -271 z "},"V":{"ha":884,"x_min":51,"x_max":835,"o":"m 509 0 l 376 0 l 51 1010 l 187 1010 l 444 160 l 702 1010 l 835 1010 l 509 0 z "},"W":{"ha":884,"x_min":30,"x_max":854,"o":"m 591 0 l 442 602 l 293 0 l 167 0 l 30 1010 l 155 1010 l 246 186 l 379 758 l 511 758 l 644 186 l 735 1010 l 854 1010 l 717 0 l 591 0 z "},"Ŵ":{"ha":884,"x_min":30,"x_max":854,"o":"m 591 0 l 442 602 l 293 0 l 167 0 l 30 1010 l 155 1010 l 246 186 l 379 758 l 511 758 l 644 186 l 735 1010 l 854 1010 l 717 0 l 591 0 m 223 1141 l 176 1222 l 395 1410 l 486 1410 l 708 1222 l 660 1141 l 441 1288 l 223 1141 z "},"Ẁ":{"ha":884,"x_min":30,"x_max":854,"o":"m 591 0 l 442 602 l 293 0 l 167 0 l 30 1010 l 155 1010 l 246 186 l 379 758 l 511 758 l 644 186 l 735 1010 l 854 1010 l 717 0 l 591 0 m 456 1136 l 210 1389 l 399 1389 l 571 1136 l 456 1136 z "},"Ẃ":{"ha":884,"x_min":30,"x_max":854,"o":"m 591 0 l 442 602 l 293 0 l 167 0 l 30 1010 l 155 1010 l 246 186 l 379 758 l 511 758 l 644 186 l 735 1010 l 854 1010 l 717 0 l 591 0 m 311 1136 l 482 1389 l 672 1389 l 426 1136 l 311 1136 z "},"Ẅ":{"ha":884,"x_min":30,"x_max":854,"o":"m 591 0 l 442 602 l 293 0 l 167 0 l 30 1010 l 155 1010 l 246 186 l 379 758 l 511 758 l 644 186 l 735 1010 l 854 1010 l 717 0 l 591 0 m 297 1149 q 237 1164 260 1149 q 215 1221 215 1179 l 215 1230 q 237 1289 215 1273 q 297 1304 260 1304 q 356 1289 333 1304 q 379 1230 379 1273 l 379 1221 q 355 1164 379 1179 q 297 1149 332 1149 m 587 1149 q 528 1164 551 1149 q 505 1221 505 1179 l 505 1230 q 528 1289 505 1273 q 587 1304 551 1304 q 646 1289 624 1304 q 669 1230 669 1273 l 669 1221 q 646 1164 669 1179 q 587 1149 622 1149 z "},"X":{"ha":884,"x_min":25,"x_max":861,"o":"m 712 0 l 443 414 l 173 0 l 25 0 l 378 515 l 57 1010 l 202 1010 l 457 616 l 715 1010 l 861 1010 l 523 516 l 857 0 l 712 0 z "},"Y":{"ha":884,"x_min":18,"x_max":865,"o":"m 505 0 l 379 0 l 379 379 l 18 1010 l 159 1010 l 449 492 l 726 1010 l 865 1010 l 505 379 l 505 0 z "},"Ý":{"ha":884,"x_min":18,"x_max":865,"o":"m 505 0 l 379 0 l 379 379 l 18 1010 l 159 1010 l 449 492 l 726 1010 l 865 1010 l 505 379 l 505 0 m 298 1136 l 470 1389 l 659 1389 l 413 1136 l 298 1136 z "},"Ŷ":{"ha":884,"x_min":18,"x_max":865,"o":"m 505 0 l 379 0 l 379 379 l 18 1010 l 159 1010 l 449 492 l 726 1010 l 865 1010 l 505 379 l 505 0 m 223 1141 l 176 1222 l 395 1410 l 486 1410 l 708 1222 l 660 1141 l 441 1288 l 223 1141 z "},"Ÿ":{"ha":884,"x_min":18,"x_max":865,"o":"m 505 0 l 379 0 l 379 379 l 18 1010 l 159 1010 l 449 492 l 726 1010 l 865 1010 l 505 379 l 505 0 m 297 1149 q 237 1164 260 1149 q 215 1221 215 1179 l 215 1230 q 237 1289 215 1273 q 297 1304 260 1304 q 356 1289 333 1304 q 379 1230 379 1273 l 379 1221 q 355 1164 379 1179 q 297 1149 332 1149 m 587 1149 q 528 1164 551 1149 q 505 1221 505 1179 l 505 1230 q 528 1289 505 1273 q 587 1304 551 1304 q 646 1289 624 1304 q 669 1230 669 1273 l 669 1221 q 646 1164 669 1179 q 587 1149 622 1149 z "},"Ỳ":{"ha":884,"x_min":18,"x_max":865,"o":"m 505 0 l 379 0 l 379 379 l 18 1010 l 159 1010 l 449 492 l 726 1010 l 865 1010 l 505 379 l 505 0 m 443 1136 l 197 1389 l 386 1389 l 558 1136 l 443 1136 z "},"Z":{"ha":884,"x_min":101,"x_max":783,"o":"m 783 0 l 101 0 l 101 114 l 631 896 l 101 896 l 101 1010 l 783 1010 l 783 896 l 251 114 l 783 114 l 783 0 z "},"Ź":{"ha":884,"x_min":101,"x_max":783,"o":"m 783 0 l 101 0 l 101 114 l 631 896 l 101 896 l 101 1010 l 783 1010 l 783 896 l 251 114 l 783 114 l 783 0 m 336 1136 l 508 1389 l 697 1389 l 451 1136 l 336 1136 z "},"Ż":{"ha":884,"x_min":101,"x_max":783,"o":"m 783 0 l 101 0 l 101 114 l 631 896 l 101 896 l 101 1010 l 783 1010 l 783 896 l 251 114 l 783 114 l 783 0 m 442 1149 q 364 1164 394 1149 q 335 1221 335 1179 l 335 1230 q 364 1289 335 1273 q 442 1304 394 1304 q 520 1289 490 1304 q 549 1230 549 1273 l 549 1221 q 519 1164 549 1179 q 442 1149 489 1149 z "},"Ž":{"ha":884,"x_min":101,"x_max":783,"o":"m 783 0 l 101 0 l 101 114 l 631 896 l 101 896 l 101 1010 l 783 1010 l 783 896 l 251 114 l 783 114 l 783 0 m 398 1141 l 176 1330 l 223 1410 l 443 1264 l 660 1410 l 708 1330 l 489 1141 l 398 1141 z "},"Æ":{"ha":884,"x_min":0,"x_max":871,"o":"m 374 909 l 222 391 l 455 391 l 455 909 l 374 909 m 455 290 l 193 290 l 109 0 l 0 0 l 307 1010 l 871 1010 l 871 909 l 568 909 l 568 593 l 859 593 l 859 492 l 568 492 l 568 101 l 871 101 l 871 0 l 455 0 l 455 290 z "},"Ǽ":{"ha":884,"x_min":0,"x_max":871,"o":"m 374 909 l 222 391 l 455 391 l 455 909 l 374 909 m 455 290 l 193 290 l 109 0 l 0 0 l 307 1010 l 871 1010 l 871 909 l 568 909 l 568 593 l 859 593 l 859 492 l 568 492 l 568 101 l 871 101 l 871 0 l 455 0 l 455 290 m 462 1136 l 634 1389 l 823 1389 l 577 1136 l 462 1136 z "},"Ð":{"ha":884,"x_min":0,"x_max":783,"o":"m 126 0 l 126 499 l 0 499 l 0 612 l 126 612 l 126 1010 l 405 1010 q 682 910 582 1010 q 783 643 783 809 l 783 362 q 682 98 783 197 q 404 0 581 0 l 126 0 m 253 114 l 404 114 q 594 182 532 114 q 657 362 657 251 l 657 643 q 594 824 657 753 q 404 896 532 896 l 253 896 l 253 612 l 442 612 l 442 499 l 253 499 l 253 114 z "},"Ø":{"ha":884,"x_min":101,"x_max":783,"o":"m 254 192 l 535 898 q 492 906 515 903 q 442 909 470 909 q 276 852 324 909 q 227 655 227 794 l 227 350 q 234 260 227 299 q 254 192 240 221 m 442 101 q 608 158 559 101 q 657 350 657 215 l 657 655 q 646 766 657 720 q 615 843 636 813 l 327 120 q 378 106 350 111 q 442 101 407 101 m 442 -13 q 364 -7 400 -13 q 295 11 327 -1 l 240 -126 l 114 -126 l 193 74 q 124 189 148 120 q 101 350 101 259 l 101 655 q 189 929 101 835 q 443 1023 277 1023 q 508 1019 477 1023 q 567 1006 539 1015 l 619 1136 l 745 1136 l 670 952 q 754 832 726 907 q 783 655 783 758 l 783 350 q 695 80 783 173 q 442 -13 607 -13 z "},"Ǿ":{"ha":884,"x_min":101,"x_max":783,"o":"m 254 192 l 535 898 q 492 906 515 903 q 442 909 470 909 q 276 852 324 909 q 227 655 227 794 l 227 350 q 234 260 227 299 q 254 192 240 221 m 442 101 q 608 158 559 101 q 657 350 657 215 l 657 655 q 646 766 657 720 q 615 843 636 813 l 327 120 q 378 106 350 111 q 442 101 407 101 m 442 -13 q 364 -7 400 -13 q 295 11 327 -1 l 240 -126 l 114 -126 l 193 74 q 124 189 148 120 q 101 350 101 259 l 101 655 q 189 929 101 835 q 443 1023 277 1023 q 508 1019 477 1023 q 567 1006 539 1015 l 619 1136 l 745 1136 l 670 952 q 754 832 726 907 q 783 655 783 758 l 783 350 q 695 80 783 173 q 442 -13 607 -13 m 348 1136 l 520 1389 l 710 1389 l 463 1136 l 348 1136 z "},"Þ":{"ha":884,"x_min":126,"x_max":795,"o":"m 126 0 l 126 1010 l 253 1010 l 253 846 l 481 846 q 717 778 638 846 q 795 580 795 711 l 795 463 q 716 259 795 328 q 480 189 636 189 l 253 189 l 253 0 l 126 0 m 253 301 l 480 301 q 626 338 582 301 q 669 463 669 375 l 669 580 q 626 698 669 663 q 480 732 582 732 l 253 732 l 253 301 z "},"Đ":{"ha":884,"x_min":0,"x_max":783,"o":"m 126 0 l 126 499 l 0 499 l 0 612 l 126 612 l 126 1010 l 405 1010 q 682 910 582 1010 q 783 643 783 809 l 783 362 q 682 98 783 197 q 404 0 581 0 l 126 0 m 253 114 l 404 114 q 594 182 532 114 q 657 362 657 251 l 657 643 q 594 824 657 753 q 404 896 532 896 l 253 896 l 253 612 l 442 612 l 442 499 l 253 499 l 253 114 z "},"Ħ":{"ha":884,"x_min":0,"x_max":884,"o":"m 253 543 l 631 543 l 631 707 l 253 707 l 253 543 m 253 429 l 253 0 l 126 0 l 126 707 l 0 707 l 0 821 l 126 821 l 126 1010 l 253 1010 l 253 821 l 631 821 l 631 1010 l 758 1010 l 758 821 l 884 821 l 884 707 l 758 707 l 758 0 l 631 0 l 631 429 l 253 429 z "},"Ĳ":{"ha":884,"x_min":76,"x_max":809,"o":"m 202 0 l 76 0 l 76 1010 l 202 1010 l 202 0 m 556 -13 q 379 59 446 -13 q 304 324 313 131 l 431 338 q 463 149 439 197 q 557 101 487 101 q 657 160 631 101 q 683 302 683 218 l 683 896 l 443 896 l 443 1010 l 809 1010 l 809 303 q 748 72 809 157 q 556 -13 687 -13 z "},"Ŀ":{"ha":884,"x_min":189,"x_max":852,"o":"m 189 0 l 189 1010 l 316 1010 l 316 114 l 758 114 l 758 0 l 189 0 m 745 518 q 667 533 697 518 q 638 590 638 548 l 638 598 q 667 657 638 641 q 745 673 697 673 q 823 657 793 673 q 852 598 852 641 l 852 590 q 822 533 852 548 q 745 518 792 518 z "},"Ł":{"ha":884,"x_min":63,"x_max":758,"o":"m 189 0 l 189 456 l 63 417 l 63 518 l 189 557 l 189 1010 l 316 1010 l 316 596 l 631 694 l 631 593 l 316 495 l 316 114 l 758 114 l 758 0 l 189 0 z "},"Ŋ":{"ha":884,"x_min":126,"x_max":758,"o":"m 465 -263 q 371 -251 419 -263 q 266 -222 322 -239 l 292 -101 q 383 -131 342 -120 q 461 -141 423 -141 q 584 -92 537 -141 q 631 72 631 -43 l 631 725 q 588 862 631 821 q 482 903 544 903 q 362 860 409 903 q 253 745 314 817 l 253 0 l 126 0 l 126 1010 l 253 1010 l 253 859 l 290 859 q 385 979 323 934 q 523 1023 447 1023 q 695 951 633 1023 q 758 755 758 880 l 758 56 q 674 -184 758 -106 q 465 -263 590 -263 z "},"Œ":{"ha":884,"x_min":13,"x_max":884,"o":"m 341 0 q 100 98 187 0 q 13 362 13 197 l 13 643 q 99 910 13 809 q 340 1010 186 1010 l 884 1010 l 884 909 l 568 909 l 568 606 l 884 606 l 884 505 l 568 505 l 568 101 l 884 101 l 884 0 l 341 0 m 341 101 l 455 101 l 455 909 l 341 909 q 179 834 231 909 q 126 643 126 759 l 126 362 q 179 173 126 245 q 341 101 231 101 z "},"Ŧ":{"ha":884,"x_min":63,"x_max":821,"o":"m 379 0 l 379 391 l 126 391 l 126 505 l 379 505 l 379 896 l 63 896 l 63 1010 l 821 1010 l 821 896 l 505 896 l 505 505 l 758 505 l 758 391 l 505 391 l 505 0 l 379 0 z "},"Α":{"ha":884,"x_min":51,"x_max":835,"o":"m 580 404 l 441 867 l 301 404 l 580 404 m 701 0 l 614 290 l 266 290 l 179 0 l 51 0 l 376 1010 l 509 1010 l 835 0 l 701 0 z "},"Ά":{"ha":884,"x_min":34,"x_max":835,"o":"m 580 404 l 441 867 l 301 404 l 580 404 m 701 0 l 614 290 l 266 290 l 179 0 l 51 0 l 376 1010 l 509 1010 l 835 0 l 701 0 m 34 884 l 130 1136 l 307 1136 l 136 884 l 34 884 z "},"Β":{"ha":884,"x_min":126,"x_max":788,"o":"m 126 0 l 126 1010 l 439 1010 q 672 952 597 1010 q 747 773 747 894 l 747 716 q 711 608 747 652 q 610 553 674 564 l 610 516 q 740 455 692 509 q 788 314 788 400 l 788 258 q 705 63 788 126 q 448 0 621 0 l 126 0 m 253 581 l 452 581 q 583 614 542 581 q 624 721 624 648 l 624 756 q 583 863 624 830 q 452 896 542 896 l 253 896 l 253 581 m 253 114 l 477 114 q 617 151 573 114 q 662 271 662 188 l 662 312 q 617 432 662 395 q 477 470 573 470 l 253 470 l 253 114 z "},"Γ":{"ha":884,"x_min":126,"x_max":783,"o":"m 126 0 l 126 1010 l 783 1010 l 783 896 l 253 896 l 253 0 l 126 0 z "},"Δ":{"ha":884,"x_min":51,"x_max":833,"o":"m 51 0 l 51 114 l 370 1010 l 503 1010 l 833 114 l 833 0 l 51 0 m 705 114 l 439 879 l 176 114 l 705 114 z "},"Ε":{"ha":884,"x_min":126,"x_max":783,"o":"m 126 0 l 126 1010 l 783 1010 l 783 896 l 253 896 l 253 606 l 720 606 l 720 492 l 253 492 l 253 114 l 783 114 l 783 0 l 126 0 z "},"Έ":{"ha":884,"x_min":-143,"x_max":783,"o":"m 126 0 l 126 1010 l 783 1010 l 783 896 l 253 896 l 253 606 l 720 606 l 720 492 l 253 492 l 253 114 l 783 114 l 783 0 l 126 0 m -143 884 l -47 1136 l 130 1136 l -40 884 l -143 884 z "},"Ζ":{"ha":884,"x_min":101,"x_max":783,"o":"m 783 0 l 101 0 l 101 114 l 631 896 l 101 896 l 101 1010 l 783 1010 l 783 896 l 251 114 l 783 114 l 783 0 z "},"Η":{"ha":884,"x_min":126,"x_max":758,"o":"m 126 0 l 126 1010 l 253 1010 l 253 606 l 631 606 l 631 1010 l 758 1010 l 758 0 l 631 0 l 631 492 l 253 492 l 253 0 l 126 0 z "},"Ή":{"ha":884,"x_min":-155,"x_max":758,"o":"m 126 0 l 126 1010 l 253 1010 l 253 606 l 631 606 l 631 1010 l 758 1010 l 758 0 l 631 0 l 631 492 l 253 492 l 253 0 l 126 0 m -155 884 l -59 1136 l 117 1136 l -53 884 l -155 884 z "},"Θ":{"ha":884,"x_min":63,"x_max":821,"o":"m 442 -13 q 159 80 255 -13 q 63 350 63 172 l 63 655 q 160 929 63 836 q 443 1023 256 1023 q 725 929 629 1023 q 821 655 821 836 l 821 350 q 725 80 821 172 q 442 -13 629 -13 m 442 101 q 637 158 580 101 q 694 350 694 215 l 694 655 q 637 852 694 794 q 442 909 580 909 q 247 852 304 909 q 189 655 189 794 l 189 350 q 247 158 189 215 q 442 101 304 101 m 316 455 l 316 568 l 568 568 l 568 455 l 316 455 z "},"Ι":{"ha":884,"x_min":126,"x_max":758,"o":"m 126 0 l 126 114 l 379 114 l 379 896 l 126 896 l 126 1010 l 758 1010 l 758 896 l 505 896 l 505 114 l 758 114 l 758 0 l 126 0 z "},"Ί":{"ha":884,"x_min":-155,"x_max":758,"o":"m 126 0 l 126 114 l 379 114 l 379 896 l 126 896 l 126 1010 l 758 1010 l 758 896 l 505 896 l 505 114 l 758 114 l 758 0 l 126 0 m -155 884 l -59 1136 l 117 1136 l -53 884 l -155 884 z "},"Ϊ":{"ha":884,"x_min":126,"x_max":758,"o":"m 126 0 l 126 114 l 379 114 l 379 896 l 126 896 l 126 1010 l 758 1010 l 758 896 l 505 896 l 505 114 l 758 114 l 758 0 l 126 0 m 297 1149 q 237 1164 260 1149 q 215 1221 215 1179 l 215 1230 q 237 1289 215 1273 q 297 1304 260 1304 q 356 1289 333 1304 q 379 1230 379 1273 l 379 1221 q 355 1164 379 1179 q 297 1149 332 1149 m 587 1149 q 528 1164 551 1149 q 505 1221 505 1179 l 505 1230 q 528 1289 505 1273 q 587 1304 551 1304 q 646 1289 624 1304 q 669 1230 669 1273 l 669 1221 q 646 1164 669 1179 q 587 1149 622 1149 z "},"Κ":{"ha":884,"x_min":126,"x_max":832,"o":"m 253 480 l 253 0 l 126 0 l 126 1010 l 253 1010 l 253 593 l 295 593 l 686 1010 l 832 1010 l 399 545 l 828 0 l 677 0 l 299 480 l 253 480 z "},"Λ":{"ha":884,"x_min":51,"x_max":835,"o":"m 701 0 l 441 867 l 179 0 l 51 0 l 376 1010 l 509 1010 l 835 0 l 701 0 z "},"Μ":{"ha":884,"x_min":88,"x_max":795,"o":"m 381 253 l 202 807 l 202 0 l 88 0 l 88 1010 l 259 1010 l 446 403 l 631 1010 l 795 1010 l 795 0 l 682 0 l 682 808 l 503 253 l 381 253 z "},"Ν":{"ha":884,"x_min":126,"x_max":758,"o":"m 577 0 l 240 851 l 240 0 l 126 0 l 126 1010 l 299 1010 l 644 140 l 644 1010 l 758 1010 l 758 0 l 577 0 z "},"Ξ":{"ha":884,"x_min":101,"x_max":783,"o":"m 101 896 l 101 1010 l 783 1010 l 783 896 l 101 896 m 133 492 l 133 606 l 751 606 l 751 492 l 133 492 m 101 0 l 101 114 l 783 114 l 783 0 l 101 0 z "},"Ο":{"ha":884,"x_min":101,"x_max":783,"o":"m 442 -13 q 188 80 275 -13 q 101 350 101 173 l 101 655 q 189 929 101 835 q 443 1023 277 1023 q 696 929 609 1023 q 783 655 783 835 l 783 350 q 696 80 783 173 q 442 -13 609 -13 m 442 101 q 607 158 558 101 q 657 350 657 215 l 657 655 q 607 851 657 793 q 442 909 558 909 q 277 851 326 909 q 227 655 227 793 l 227 350 q 277 158 227 215 q 442 101 326 101 z "},"Ό":{"ha":884,"x_min":-48,"x_max":789,"o":"m 448 -13 q 194 80 282 -13 q 107 350 107 173 l 107 655 q 195 929 107 835 q 449 1023 283 1023 q 702 929 615 1023 q 789 655 789 835 l 789 350 q 702 80 789 173 q 448 -13 615 -13 m 448 101 q 614 158 564 101 q 663 350 663 215 l 663 655 q 614 851 663 793 q 448 909 564 909 q 283 851 332 909 q 234 655 234 793 l 234 350 q 283 158 234 215 q 448 101 332 101 m -48 884 l 48 1136 l 225 1136 l 54 884 l -48 884 z "},"Π":{"ha":884,"x_min":126,"x_max":758,"o":"m 126 0 l 126 1010 l 758 1010 l 758 0 l 631 0 l 631 896 l 253 896 l 253 0 l 126 0 z "},"Ρ":{"ha":884,"x_min":126,"x_max":795,"o":"m 126 0 l 126 1010 l 481 1010 q 717 944 639 1010 q 795 744 795 878 l 795 620 q 717 420 795 486 q 480 354 638 354 l 253 354 l 253 0 l 126 0 m 253 465 l 480 465 q 626 501 582 465 q 669 622 669 537 l 669 739 q 626 860 669 824 q 480 896 582 896 l 253 896 l 253 465 z "},"Σ":{"ha":884,"x_min":88,"x_max":783,"o":"m 783 0 l 88 0 l 88 114 l 537 520 l 88 896 l 88 1010 l 783 1010 l 783 896 l 255 896 l 631 574 l 631 476 l 240 114 l 783 114 l 783 0 z "},"Τ":{"ha":884,"x_min":63,"x_max":821,"o":"m 379 0 l 379 896 l 63 896 l 63 1010 l 821 1010 l 821 896 l 505 896 l 505 0 l 379 0 z "},"Υ":{"ha":884,"x_min":18,"x_max":865,"o":"m 505 0 l 379 0 l 379 379 l 18 1010 l 159 1010 l 449 492 l 726 1010 l 865 1010 l 505 379 l 505 0 z "},"Ύ":{"ha":884,"x_min":-193,"x_max":865,"o":"m 505 0 l 379 0 l 379 379 l 18 1010 l 159 1010 l 449 492 l 726 1010 l 865 1010 l 505 379 l 505 0 m -193 884 l -97 1136 l 80 1136 l -91 884 l -193 884 z "},"Ϋ":{"ha":884,"x_min":18,"x_max":865,"o":"m 505 0 l 379 0 l 379 379 l 18 1010 l 159 1010 l 449 492 l 726 1010 l 865 1010 l 505 379 l 505 0 m 297 1149 q 237 1164 260 1149 q 215 1221 215 1179 l 215 1230 q 237 1289 215 1273 q 297 1304 260 1304 q 356 1289 333 1304 q 379 1230 379 1273 l 379 1221 q 355 1164 379 1179 q 297 1149 332 1149 m 587 1149 q 528 1164 551 1149 q 505 1221 505 1179 l 505 1230 q 528 1289 505 1273 q 587 1304 551 1304 q 646 1289 624 1304 q 669 1230 669 1273 l 669 1221 q 646 1164 669 1179 q 587 1149 622 1149 z "},"Φ":{"ha":884,"x_min":63,"x_max":821,"o":"m 547 114 l 505 114 l 505 -13 l 379 -13 l 379 114 l 338 114 q 129 207 196 114 q 63 451 63 301 l 63 554 q 129 802 63 707 q 338 896 196 896 l 379 896 l 379 1023 l 505 1023 l 505 896 l 547 896 q 755 802 689 896 q 821 554 821 707 l 821 451 q 755 207 821 301 q 547 114 689 114 m 547 783 l 499 783 l 499 227 l 547 227 q 660 278 626 227 q 694 451 694 330 l 694 554 q 660 731 694 679 q 547 783 626 783 m 338 227 l 385 227 l 385 783 l 338 783 q 223 731 258 783 q 189 554 189 679 l 189 451 q 223 278 189 330 q 338 227 258 227 z "},"Χ":{"ha":884,"x_min":25,"x_max":861,"o":"m 712 0 l 443 414 l 173 0 l 25 0 l 378 515 l 57 1010 l 202 1010 l 457 616 l 715 1010 l 861 1010 l 523 516 l 857 0 l 712 0 z "},"Ψ":{"ha":884,"x_min":101,"x_max":783,"o":"m 505 0 l 379 0 l 379 244 q 168 349 235 260 q 101 577 101 438 l 101 1010 l 221 1010 l 221 577 q 258 426 221 476 q 379 364 294 375 l 379 1010 l 505 1010 l 505 364 q 626 426 590 375 q 663 577 663 476 l 663 1010 l 783 1010 l 783 577 q 716 349 783 438 q 505 244 649 260 l 505 0 z "},"Ω":{"ha":884,"x_min":88,"x_max":795,"o":"m 379 0 l 88 0 l 88 114 l 253 114 l 253 227 q 126 333 164 254 q 88 519 88 413 l 88 655 q 177 930 88 837 q 442 1023 266 1023 q 706 930 617 1023 q 795 655 795 837 l 795 519 q 758 333 795 413 q 631 227 720 254 l 631 114 l 795 114 l 795 0 l 505 0 l 505 290 q 636 367 602 307 q 669 519 669 427 l 669 655 q 617 851 669 793 q 442 909 566 909 q 266 851 318 909 q 215 655 215 793 l 215 519 q 248 367 215 427 q 379 290 282 307 l 379 0 z "},"Ώ":{"ha":884,"x_min":-80,"x_max":795,"o":"m 379 0 l 88 0 l 88 114 l 253 114 l 253 227 q 126 333 164 254 q 88 519 88 413 l 88 655 q 177 930 88 837 q 442 1023 266 1023 q 706 930 617 1023 q 795 655 795 837 l 795 519 q 758 333 795 413 q 631 227 720 254 l 631 114 l 795 114 l 795 0 l 505 0 l 505 290 q 636 367 602 307 q 669 519 669 427 l 669 655 q 617 851 669 793 q 442 909 566 909 q 266 851 318 909 q 215 655 215 793 l 215 519 q 248 367 215 427 q 379 290 282 307 l 379 0 m -80 884 l 16 1136 l 193 1136 l 23 884 l -80 884 z "},"Ω":{"ha":884,"x_min":88,"x_max":795,"o":"m 379 0 l 88 0 l 88 114 l 253 114 l 253 227 q 126 333 164 254 q 88 519 88 413 l 88 655 q 177 930 88 837 q 442 1023 266 1023 q 706 930 617 1023 q 795 655 795 837 l 795 519 q 758 333 795 413 q 631 227 720 254 l 631 114 l 795 114 l 795 0 l 505 0 l 505 290 q 636 367 602 307 q 669 519 669 427 l 669 655 q 617 851 669 793 q 442 909 566 909 q 266 851 318 909 q 215 655 215 793 l 215 519 q 248 367 215 427 q 379 290 282 307 l 379 0 z "},"Ђ":{"ha":884,"x_min":38,"x_max":808,"o":"m 227 0 l 227 896 l 38 896 l 38 1010 l 669 1010 l 669 896 l 354 896 l 354 657 l 518 657 q 737 591 665 657 q 808 390 808 525 l 808 266 q 737 66 808 131 q 518 0 665 0 l 518 111 q 638 145 593 111 q 682 269 682 179 l 682 388 q 638 511 682 477 q 518 545 593 545 l 354 545 l 354 0 l 227 0 z "},"Є":{"ha":884,"x_min":101,"x_max":808,"o":"m 808 324 q 710 73 799 158 q 455 -13 620 -13 q 190 78 279 -13 q 101 350 101 169 l 101 655 q 190 930 101 837 q 456 1023 279 1023 q 710 936 621 1023 q 808 681 799 850 l 682 668 q 619 854 670 799 q 455 909 567 909 q 279 852 331 909 q 227 655 227 794 l 227 606 l 514 606 l 514 492 l 227 492 l 227 350 q 279 158 227 215 q 455 101 331 101 q 620 155 568 101 q 682 337 672 210 l 808 324 z "},"Ѕ":{"ha":884,"x_min":69,"x_max":797,"o":"m 458 -8 q 246 29 345 -8 q 69 163 148 66 l 160 249 q 287 141 213 177 q 462 106 361 106 q 613 150 556 106 q 670 268 670 193 q 621 378 670 340 q 427 460 572 417 q 176 574 242 513 q 109 750 109 636 q 196 948 109 881 q 409 1015 284 1015 q 610 978 515 1015 q 779 846 706 941 l 692 759 q 566 866 641 831 q 412 902 490 902 q 284 869 332 902 q 236 761 236 837 q 289 656 236 694 q 495 573 341 617 q 733 463 669 523 q 797 289 797 403 q 693 68 797 144 q 458 -8 590 -8 z "},"І":{"ha":884,"x_min":126,"x_max":758,"o":"m 126 0 l 126 114 l 379 114 l 379 896 l 126 896 l 126 1010 l 758 1010 l 758 896 l 505 896 l 505 114 l 758 114 l 758 0 l 126 0 z "},"Ї":{"ha":884,"x_min":126,"x_max":758,"o":"m 126 0 l 126 114 l 379 114 l 379 896 l 126 896 l 126 1010 l 758 1010 l 758 896 l 505 896 l 505 114 l 758 114 l 758 0 l 126 0 m 297 1149 q 237 1164 260 1149 q 215 1221 215 1179 l 215 1230 q 237 1289 215 1273 q 297 1304 260 1304 q 356 1289 333 1304 q 379 1230 379 1273 l 379 1221 q 355 1164 379 1179 q 297 1149 332 1149 m 587 1149 q 528 1164 551 1149 q 505 1221 505 1179 l 505 1230 q 528 1289 505 1273 q 587 1304 551 1304 q 646 1289 624 1304 q 669 1230 669 1273 l 669 1221 q 646 1164 669 1179 q 587 1149 622 1149 z "},"Ј":{"ha":884,"x_min":76,"x_max":758,"o":"m 415 -13 q 167 69 250 -13 q 76 324 85 152 l 202 338 q 255 149 211 197 q 417 101 299 101 q 578 157 525 101 q 631 327 631 213 l 631 896 l 379 896 l 379 1010 l 758 1010 l 758 328 q 670 75 758 163 q 415 -13 582 -13 z "},"Љ":{"ha":884,"x_min":-24,"x_max":808,"o":"m 221 207 q 172 42 220 92 q 57 -8 124 -8 q 16 -5 37 -9 q -24 5 -4 -1 l 1 120 q 24 113 13 116 q 47 110 35 110 q 88 129 71 109 q 106 217 105 150 l 121 1010 l 500 1010 l 500 657 l 556 657 q 744 589 681 657 q 808 390 808 521 l 808 266 q 745 68 808 135 q 557 0 682 0 l 384 0 l 384 896 l 234 896 l 221 207 m 500 114 l 556 114 q 655 148 617 114 q 692 271 692 182 l 692 388 q 655 511 692 477 q 556 545 617 545 l 500 545 l 500 114 z "},"Њ":{"ha":884,"x_min":76,"x_max":808,"o":"m 500 114 l 568 114 q 658 148 625 114 q 692 271 692 182 l 692 388 q 658 511 692 477 q 568 545 625 545 l 500 545 l 500 114 m 192 492 l 192 0 l 76 0 l 76 1010 l 192 1010 l 192 606 l 384 606 l 384 1010 l 500 1010 l 500 657 l 568 657 q 747 589 687 657 q 808 390 808 521 l 808 266 q 748 68 808 135 q 569 0 688 0 l 384 0 l 384 492 l 192 492 z "},"Ћ":{"ha":884,"x_min":25,"x_max":808,"o":"m 341 0 l 215 0 l 215 896 l 25 896 l 25 1010 l 657 1010 l 657 896 l 341 896 l 341 619 l 518 619 q 735 551 662 619 q 808 352 808 484 l 808 0 l 682 0 l 682 350 q 645 472 682 436 q 518 508 607 508 l 341 508 l 341 0 z "},"Џ":{"ha":884,"x_min":126,"x_max":758,"o":"m 379 -189 l 379 0 l 126 0 l 126 1010 l 253 1010 l 253 114 l 631 114 l 631 1010 l 758 1010 l 758 0 l 505 0 l 505 -189 l 379 -189 z "},"А":{"ha":884,"x_min":51,"x_max":835,"o":"m 580 404 l 441 867 l 301 404 l 580 404 m 701 0 l 614 290 l 266 290 l 179 0 l 51 0 l 376 1010 l 509 1010 l 835 0 l 701 0 z "},"Б":{"ha":884,"x_min":126,"x_max":775,"o":"m 126 0 l 126 1010 l 726 1010 l 726 896 l 253 896 l 253 581 l 485 581 q 699 516 624 581 q 775 332 775 452 l 775 266 q 700 69 775 139 q 486 0 625 0 l 126 0 m 253 114 l 460 114 q 605 150 562 114 q 649 273 649 186 l 649 313 q 605 434 649 398 q 460 470 562 470 l 253 470 l 253 114 z "},"В":{"ha":884,"x_min":126,"x_max":788,"o":"m 126 0 l 126 1010 l 439 1010 q 672 952 597 1010 q 747 773 747 894 l 747 716 q 711 608 747 652 q 610 553 674 564 l 610 516 q 740 455 692 509 q 788 314 788 400 l 788 258 q 705 63 788 126 q 448 0 621 0 l 126 0 m 253 581 l 452 581 q 583 614 542 581 q 624 721 624 648 l 624 756 q 583 863 624 830 q 452 896 542 896 l 253 896 l 253 581 m 253 114 l 477 114 q 617 151 573 114 q 662 271 662 188 l 662 312 q 617 432 662 395 q 477 470 573 470 l 253 470 l 253 114 z "},"Г":{"ha":884,"x_min":126,"x_max":783,"o":"m 126 0 l 126 1010 l 783 1010 l 783 896 l 253 896 l 253 0 l 126 0 z "},"Ѓ":{"ha":884,"x_min":126,"x_max":783,"o":"m 126 0 l 126 1010 l 783 1010 l 783 896 l 253 896 l 253 0 l 126 0 m 355 1136 l 527 1389 l 716 1389 l 470 1136 l 355 1136 z "},"Д":{"ha":884,"x_min":13,"x_max":859,"o":"m 231 145 l 231 114 l 606 114 l 606 896 l 302 896 l 298 383 q 285 241 297 297 q 231 145 274 184 m 139 0 l 139 -189 l 13 -189 l 13 114 l 92 114 q 155 211 134 145 q 177 390 176 278 l 181 1010 l 732 1010 l 732 114 l 859 114 l 859 -189 l 732 -189 l 732 0 l 139 0 z "},"Е":{"ha":884,"x_min":126,"x_max":783,"o":"m 126 0 l 126 1010 l 783 1010 l 783 896 l 253 896 l 253 606 l 720 606 l 720 492 l 253 492 l 253 114 l 783 114 l 783 0 l 126 0 z "},"Ѐ":{"ha":884,"x_min":126,"x_max":783,"o":"m 126 0 l 126 1010 l 783 1010 l 783 896 l 253 896 l 253 606 l 720 606 l 720 492 l 253 492 l 253 114 l 783 114 l 783 0 l 126 0 m 481 1136 l 235 1389 l 424 1389 l 596 1136 l 481 1136 z "},"Ё":{"ha":884,"x_min":126,"x_max":783,"o":"m 126 0 l 126 1010 l 783 1010 l 783 896 l 253 896 l 253 606 l 720 606 l 720 492 l 253 492 l 253 114 l 783 114 l 783 0 l 126 0 m 335 1149 q 275 1164 298 1149 q 253 1221 253 1179 l 253 1230 q 275 1289 253 1273 q 335 1304 298 1304 q 394 1289 371 1304 q 417 1230 417 1273 l 417 1221 q 393 1164 417 1179 q 335 1149 370 1149 m 625 1149 q 566 1164 588 1149 q 543 1221 543 1179 l 543 1230 q 566 1289 543 1273 q 625 1304 588 1304 q 684 1289 662 1304 q 707 1230 707 1273 l 707 1221 q 684 1164 707 1179 q 625 1149 660 1149 z "},"Ж":{"ha":884,"x_min":5,"x_max":880,"o":"m 333 486 l 131 0 l 5 0 l 241 545 l 8 1010 l 128 1010 l 333 587 l 386 587 l 386 1010 l 500 1010 l 500 587 l 553 587 l 758 1010 l 878 1010 l 644 545 l 880 0 l 754 0 l 553 486 l 500 486 l 500 0 l 386 0 l 386 486 l 333 486 z "},"З":{"ha":884,"x_min":88,"x_max":783,"o":"m 429 -13 q 179 56 261 -13 q 88 274 97 125 l 215 287 q 274 141 225 184 q 429 98 323 98 q 605 139 553 98 q 657 274 657 179 l 657 308 q 608 441 657 402 q 442 480 559 480 l 316 480 l 316 593 l 442 593 q 588 624 544 593 q 631 727 631 655 l 631 768 q 585 879 631 846 q 429 912 539 912 q 292 873 336 912 q 240 742 249 835 l 114 755 q 199 958 122 894 q 429 1023 275 1023 q 670 963 582 1023 q 758 768 758 904 l 758 727 q 705 607 758 652 q 559 557 653 563 l 559 520 q 727 451 672 511 q 783 308 783 390 l 783 274 q 704 62 783 138 q 429 -13 625 -13 z "},"И":{"ha":884,"x_min":126,"x_max":758,"o":"m 644 0 l 644 851 l 307 0 l 126 0 l 126 1010 l 240 1010 l 240 140 l 585 1010 l 758 1010 l 758 0 l 644 0 z "},"Ѝ":{"ha":884,"x_min":126,"x_max":758,"o":"m 644 0 l 644 851 l 307 0 l 126 0 l 126 1010 l 240 1010 l 240 140 l 585 1010 l 758 1010 l 758 0 l 644 0 m 431 1136 l 184 1389 l 374 1389 l 545 1136 l 431 1136 z "},"Й":{"ha":884,"x_min":126,"x_max":758,"o":"m 644 0 l 644 851 l 307 0 l 126 0 l 126 1010 l 240 1010 l 240 140 l 585 1010 l 758 1010 l 758 0 l 644 0 m 455 1128 q 266 1184 343 1128 q 187 1380 188 1241 l 313 1393 q 345 1265 314 1303 q 455 1227 375 1227 q 564 1265 534 1227 q 596 1393 595 1303 l 722 1380 q 643 1184 721 1241 q 455 1128 566 1128 z "},"К":{"ha":884,"x_min":126,"x_max":832,"o":"m 253 480 l 253 0 l 126 0 l 126 1010 l 253 1010 l 253 593 l 295 593 l 686 1010 l 832 1010 l 399 545 l 828 0 l 677 0 l 299 480 l 253 480 z "},"Ќ":{"ha":884,"x_min":126,"x_max":832,"o":"m 253 480 l 253 0 l 126 0 l 126 1010 l 253 1010 l 253 593 l 295 593 l 686 1010 l 832 1010 l 399 545 l 828 0 l 677 0 l 299 480 l 253 480 m 384 1136 l 556 1389 l 745 1389 l 499 1136 l 384 1136 z "},"Л":{"ha":884,"x_min":-4,"x_max":758,"o":"m 631 0 l 631 896 l 327 896 l 323 297 q 262 61 322 135 q 100 -13 202 -13 q 44 -8 71 -13 q -4 3 18 -4 l 18 114 q 55 104 38 107 q 88 101 72 101 q 174 152 146 101 q 202 313 201 203 l 206 1010 l 758 1010 l 758 0 l 631 0 z "},"М":{"ha":884,"x_min":88,"x_max":795,"o":"m 381 253 l 202 807 l 202 0 l 88 0 l 88 1010 l 259 1010 l 446 403 l 631 1010 l 795 1010 l 795 0 l 682 0 l 682 808 l 503 253 l 381 253 z "},"Н":{"ha":884,"x_min":126,"x_max":758,"o":"m 126 0 l 126 1010 l 253 1010 l 253 606 l 631 606 l 631 1010 l 758 1010 l 758 0 l 631 0 l 631 492 l 253 492 l 253 0 l 126 0 z "},"О":{"ha":884,"x_min":101,"x_max":783,"o":"m 442 -13 q 188 80 275 -13 q 101 350 101 173 l 101 655 q 189 929 101 835 q 443 1023 277 1023 q 696 929 609 1023 q 783 655 783 835 l 783 350 q 696 80 783 173 q 442 -13 609 -13 m 442 101 q 607 158 558 101 q 657 350 657 215 l 657 655 q 607 851 657 793 q 442 909 558 909 q 277 851 326 909 q 227 655 227 793 l 227 350 q 277 158 227 215 q 442 101 326 101 z "},"П":{"ha":884,"x_min":126,"x_max":758,"o":"m 126 0 l 126 1010 l 758 1010 l 758 0 l 631 0 l 631 896 l 253 896 l 253 0 l 126 0 z "},"Р":{"ha":884,"x_min":126,"x_max":795,"o":"m 126 0 l 126 1010 l 481 1010 q 717 944 639 1010 q 795 744 795 878 l 795 620 q 717 420 795 486 q 480 354 638 354 l 253 354 l 253 0 l 126 0 m 253 465 l 480 465 q 626 501 582 465 q 669 622 669 537 l 669 739 q 626 860 669 824 q 480 896 582 896 l 253 896 l 253 465 z "},"С":{"ha":884,"x_min":101,"x_max":808,"o":"m 455 -13 q 189 78 278 -13 q 101 350 101 168 l 101 655 q 189 931 101 840 q 456 1023 278 1023 q 714 941 630 1023 q 808 681 798 860 l 682 668 q 621 857 669 804 q 455 909 572 909 q 278 852 330 909 q 227 655 227 794 l 227 350 q 278 157 227 213 q 455 101 330 101 q 621 152 572 101 q 682 337 669 203 l 808 324 q 714 68 798 148 q 455 -13 630 -13 z "},"Т":{"ha":884,"x_min":63,"x_max":821,"o":"m 379 0 l 379 896 l 63 896 l 63 1010 l 821 1010 l 821 896 l 505 896 l 505 0 l 379 0 z "},"У":{"ha":884,"x_min":56,"x_max":827,"o":"m 245 -1 q 192 3 220 -1 q 136 11 164 6 l 158 125 q 211 116 187 119 q 255 112 235 112 q 348 143 316 112 q 405 239 380 174 l 410 253 l 362 253 l 56 1010 l 182 1010 l 444 338 l 706 1010 l 827 1010 l 500 196 q 390 41 455 83 q 245 -1 324 -1 z "},"Ў":{"ha":884,"x_min":56,"x_max":827,"o":"m 245 -1 q 192 3 220 -1 q 136 11 164 6 l 158 125 q 211 116 187 119 q 255 112 235 112 q 348 143 316 112 q 405 239 380 174 l 410 253 l 362 253 l 56 1010 l 182 1010 l 444 338 l 706 1010 l 827 1010 l 500 196 q 390 41 455 83 q 245 -1 324 -1 m 442 1128 q 253 1184 331 1128 q 174 1380 176 1241 l 301 1393 q 332 1265 302 1303 q 442 1227 362 1227 q 552 1265 521 1227 q 583 1393 582 1303 l 710 1380 q 631 1184 708 1241 q 442 1128 553 1128 z "},"Ф":{"ha":884,"x_min":63,"x_max":821,"o":"m 547 114 l 505 114 l 505 -13 l 379 -13 l 379 114 l 338 114 q 129 207 196 114 q 63 451 63 301 l 63 554 q 129 802 63 707 q 338 896 196 896 l 379 896 l 379 1023 l 505 1023 l 505 896 l 547 896 q 755 802 689 896 q 821 554 821 707 l 821 451 q 755 207 821 301 q 547 114 689 114 m 547 783 l 499 783 l 499 227 l 547 227 q 660 278 626 227 q 694 451 694 330 l 694 554 q 660 731 694 679 q 547 783 626 783 m 338 227 l 385 227 l 385 783 l 338 783 q 223 731 258 783 q 189 554 189 679 l 189 451 q 223 278 189 330 q 338 227 258 227 z "},"Х":{"ha":884,"x_min":25,"x_max":861,"o":"m 712 0 l 443 414 l 173 0 l 25 0 l 378 515 l 57 1010 l 202 1010 l 457 616 l 715 1010 l 861 1010 l 523 516 l 857 0 l 712 0 z "},"Ц":{"ha":884,"x_min":126,"x_max":821,"o":"m 694 -189 l 694 0 l 126 0 l 126 1010 l 253 1010 l 253 114 l 568 114 l 568 1010 l 694 1010 l 694 114 l 821 114 l 821 -189 l 694 -189 z "},"Ч":{"ha":884,"x_min":126,"x_max":758,"o":"m 758 1010 l 758 0 l 631 0 l 631 354 l 442 354 q 198 414 270 354 q 126 620 126 475 l 126 1010 l 253 1010 l 253 622 q 296 501 253 537 q 442 465 340 465 l 631 465 l 631 1010 l 758 1010 z "},"Ш":{"ha":884,"x_min":76,"x_max":808,"o":"m 76 0 l 76 1010 l 192 1010 l 192 109 l 384 109 l 384 1010 l 500 1010 l 500 109 l 692 109 l 692 1010 l 808 1010 l 808 0 l 76 0 z "},"Щ":{"ha":884,"x_min":76,"x_max":865,"o":"m 865 -189 l 742 -189 l 742 0 l 76 0 l 76 1010 l 192 1010 l 192 109 l 384 109 l 384 1010 l 500 1010 l 500 109 l 692 109 l 692 1010 l 808 1010 l 808 109 l 865 109 l 865 -189 z "},"Ъ":{"ha":884,"x_min":13,"x_max":821,"o":"m 532 0 l 253 0 l 253 896 l 13 896 l 13 1010 l 379 1010 l 379 657 l 530 657 q 751 593 681 657 q 821 390 821 529 l 821 266 q 751 64 821 128 q 532 0 682 0 m 379 114 l 530 114 q 657 150 620 114 q 694 271 694 186 l 694 388 q 657 509 694 473 q 530 545 620 545 l 379 545 l 379 114 z "},"Ы":{"ha":884,"x_min":101,"x_max":783,"o":"m 101 0 l 101 1010 l 217 1010 l 217 657 l 290 657 q 482 592 420 657 q 543 390 543 528 l 543 266 q 482 64 543 129 q 292 0 420 0 l 101 0 m 667 0 l 667 1010 l 783 1010 l 783 0 l 667 0 m 217 109 l 290 109 q 390 144 352 109 q 427 271 427 179 l 427 388 q 390 515 427 480 q 290 551 352 551 l 217 551 l 217 109 z "},"Ь":{"ha":884,"x_min":126,"x_max":795,"o":"m 126 0 l 126 1010 l 253 1010 l 253 657 l 480 657 q 719 592 643 657 q 795 390 795 528 l 795 266 q 719 64 795 129 q 481 0 643 0 l 126 0 m 253 114 l 480 114 q 617 148 566 114 q 669 271 669 182 l 669 388 q 618 511 669 477 q 480 545 567 545 l 253 545 l 253 114 z "},"Э":{"ha":884,"x_min":101,"x_max":808,"o":"m 455 -13 q 201 69 292 -13 q 101 324 111 152 l 227 337 q 290 155 239 210 q 455 101 342 101 q 630 158 578 101 q 682 350 682 215 l 682 492 l 345 492 l 345 606 l 682 606 l 682 655 q 630 852 682 794 q 455 909 578 909 q 290 854 342 909 q 227 668 239 799 l 101 681 q 201 940 111 857 q 453 1023 292 1023 q 722 934 636 1023 q 808 655 808 845 l 808 350 q 722 75 808 163 q 455 -13 636 -13 z "},"Ю":{"ha":884,"x_min":76,"x_max":808,"o":"m 562 -13 q 375 76 434 -13 q 316 312 316 165 l 316 497 l 192 497 l 192 0 l 76 0 l 76 1010 l 192 1010 l 192 601 l 316 601 l 316 693 q 376 933 316 843 q 563 1023 436 1023 q 749 933 691 1023 q 808 693 808 843 l 808 312 q 749 76 808 165 q 562 -13 691 -13 m 562 96 q 662 145 633 96 q 692 312 692 194 l 692 693 q 662 863 692 813 q 562 913 633 913 q 461 863 491 913 q 432 693 432 813 l 432 312 q 461 145 432 194 q 562 96 491 96 z "},"Я":{"ha":884,"x_min":52,"x_max":758,"o":"m 379 503 l 631 503 l 631 896 l 379 896 q 233 862 277 896 q 189 744 189 827 l 189 665 q 233 540 189 577 q 379 503 277 503 m 631 391 l 448 391 l 203 0 l 52 0 l 309 395 q 123 474 183 408 q 63 665 63 540 l 63 744 q 140 946 63 881 q 378 1010 216 1010 l 758 1010 l 758 0 l 631 0 l 631 391 z "},"Ґ":{"ha":884,"x_min":126,"x_max":783,"o":"m 126 0 l 126 1010 l 657 1010 l 657 1199 l 783 1199 l 783 896 l 253 896 l 253 0 l 126 0 z "},"a":{"ha":884,"x_min":88,"x_max":846,"o":"m 351 96 q 472 119 417 96 q 568 201 528 143 l 568 322 l 341 322 q 251 297 287 322 q 215 211 215 273 q 246 126 215 157 q 351 96 277 96 m 335 -13 q 164 39 239 -13 q 88 203 88 90 q 153 360 88 303 q 306 417 218 417 l 568 417 l 568 525 q 528 621 568 586 q 405 657 487 657 q 281 632 322 657 q 216 523 240 607 l 105 553 q 201 715 126 660 q 403 770 277 770 q 611 714 528 770 q 694 540 694 658 l 694 202 q 732 117 694 134 q 846 112 770 100 l 846 -4 q 699 7 768 -15 q 624 126 630 29 l 598 126 q 492 28 563 68 q 335 -13 422 -13 z "},"à":{"ha":884,"x_min":88,"x_max":846,"o":"m 351 96 q 472 119 417 96 q 568 201 528 143 l 568 322 l 341 322 q 251 297 287 322 q 215 211 215 273 q 246 126 215 157 q 351 96 277 96 m 335 -13 q 164 39 239 -13 q 88 203 88 90 q 153 360 88 303 q 306 417 218 417 l 568 417 l 568 525 q 528 621 568 586 q 405 657 487 657 q 281 632 322 657 q 216 523 240 607 l 105 553 q 201 715 126 660 q 403 770 277 770 q 611 714 528 770 q 694 540 694 658 l 694 202 q 732 117 694 134 q 846 112 770 100 l 846 -4 q 699 7 768 -15 q 624 126 630 29 l 598 126 q 492 28 563 68 q 335 -13 422 -13 m 418 884 l 172 1136 l 361 1136 l 533 884 l 418 884 z "},"á":{"ha":884,"x_min":88,"x_max":846,"o":"m 351 96 q 472 119 417 96 q 568 201 528 143 l 568 322 l 341 322 q 251 297 287 322 q 215 211 215 273 q 246 126 215 157 q 351 96 277 96 m 335 -13 q 164 39 239 -13 q 88 203 88 90 q 153 360 88 303 q 306 417 218 417 l 568 417 l 568 525 q 528 621 568 586 q 405 657 487 657 q 281 632 322 657 q 216 523 240 607 l 105 553 q 201 715 126 660 q 403 770 277 770 q 611 714 528 770 q 694 540 694 658 l 694 202 q 732 117 694 134 q 846 112 770 100 l 846 -4 q 699 7 768 -15 q 624 126 630 29 l 598 126 q 492 28 563 68 q 335 -13 422 -13 m 273 884 l 444 1136 l 634 1136 l 388 884 l 273 884 z "},"â":{"ha":884,"x_min":88,"x_max":846,"o":"m 351 96 q 472 119 417 96 q 568 201 528 143 l 568 322 l 341 322 q 251 297 287 322 q 215 211 215 273 q 246 126 215 157 q 351 96 277 96 m 335 -13 q 164 39 239 -13 q 88 203 88 90 q 153 360 88 303 q 306 417 218 417 l 568 417 l 568 525 q 528 621 568 586 q 405 657 487 657 q 281 632 322 657 q 216 523 240 607 l 105 553 q 201 715 126 660 q 403 770 277 770 q 611 714 528 770 q 694 540 694 658 l 694 202 q 732 117 694 134 q 846 112 770 100 l 846 -4 q 699 7 768 -15 q 624 126 630 29 l 598 126 q 492 28 563 68 q 335 -13 422 -13 m 211 889 l 163 970 l 383 1158 l 473 1158 l 696 970 l 648 889 l 428 1035 l 211 889 z "},"ã":{"ha":884,"x_min":88,"x_max":846,"o":"m 351 96 q 472 119 417 96 q 568 201 528 143 l 568 322 l 341 322 q 251 297 287 322 q 215 211 215 273 q 246 126 215 157 q 351 96 277 96 m 335 -13 q 164 39 239 -13 q 88 203 88 90 q 153 360 88 303 q 306 417 218 417 l 568 417 l 568 525 q 528 621 568 586 q 405 657 487 657 q 281 632 322 657 q 216 523 240 607 l 105 553 q 201 715 126 660 q 403 770 277 770 q 611 714 528 770 q 694 540 694 658 l 694 202 q 732 117 694 134 q 846 112 770 100 l 846 -4 q 699 7 768 -15 q 624 126 630 29 l 598 126 q 492 28 563 68 q 335 -13 422 -13 m 516 896 q 444 919 473 896 q 391 970 414 942 q 349 1019 369 996 q 307 1042 330 1042 q 265 1018 283 1042 q 249 923 247 995 l 249 909 l 152 909 l 152 928 q 194 1086 152 1023 q 317 1149 237 1149 q 396 1126 365 1149 q 448 1077 427 1104 q 487 1027 470 1049 q 527 1004 505 1004 q 568 1027 551 1004 q 585 1122 585 1051 l 585 1136 l 682 1136 l 682 1117 q 639 959 682 1021 q 516 896 596 896 z "},"ä":{"ha":884,"x_min":88,"x_max":846,"o":"m 351 96 q 472 119 417 96 q 568 201 528 143 l 568 322 l 341 322 q 251 297 287 322 q 215 211 215 273 q 246 126 215 157 q 351 96 277 96 m 335 -13 q 164 39 239 -13 q 88 203 88 90 q 153 360 88 303 q 306 417 218 417 l 568 417 l 568 525 q 528 621 568 586 q 405 657 487 657 q 281 632 322 657 q 216 523 240 607 l 105 553 q 201 715 126 660 q 403 770 277 770 q 611 714 528 770 q 694 540 694 658 l 694 202 q 732 117 694 134 q 846 112 770 100 l 846 -4 q 699 7 768 -15 q 624 126 630 29 l 598 126 q 492 28 563 68 q 335 -13 422 -13 m 271 896 q 212 912 235 896 q 189 968 189 927 l 189 977 q 212 1036 189 1020 q 271 1052 235 1052 q 331 1036 308 1052 q 354 977 354 1020 l 354 968 q 330 912 354 927 q 271 896 307 896 m 562 896 q 503 912 525 896 q 480 968 480 927 l 480 977 q 503 1036 480 1020 q 562 1052 525 1052 q 621 1036 598 1052 q 644 977 644 1020 l 644 968 q 621 912 644 927 q 562 896 597 896 z "},"å":{"ha":884,"x_min":88,"x_max":846,"o":"m 351 96 q 472 119 417 96 q 568 201 528 143 l 568 322 l 341 322 q 251 297 287 322 q 215 211 215 273 q 246 126 215 157 q 351 96 277 96 m 335 -13 q 164 39 239 -13 q 88 203 88 90 q 153 360 88 303 q 306 417 218 417 l 568 417 l 568 525 q 528 621 568 586 q 405 657 487 657 q 281 632 322 657 q 216 523 240 607 l 105 553 q 201 715 126 660 q 403 770 277 770 q 611 714 528 770 q 694 540 694 658 l 694 202 q 732 117 694 134 q 846 112 770 100 l 846 -4 q 699 7 768 -15 q 624 126 630 29 l 598 126 q 492 28 563 68 q 335 -13 422 -13 m 417 865 q 270 910 326 865 q 215 1048 215 955 l 215 1088 q 270 1229 215 1183 q 417 1275 326 1275 q 563 1229 508 1275 q 619 1088 619 1183 l 619 1048 q 563 910 619 955 q 417 865 508 865 m 417 955 q 494 976 467 955 q 520 1048 520 997 l 520 1088 q 494 1162 520 1139 q 417 1186 467 1186 q 339 1162 365 1186 q 313 1088 313 1139 l 313 1048 q 339 976 313 997 q 417 955 365 955 z "},"ā":{"ha":884,"x_min":88,"x_max":846,"o":"m 351 96 q 472 119 417 96 q 568 201 528 143 l 568 322 l 341 322 q 251 297 287 322 q 215 211 215 273 q 246 126 215 157 q 351 96 277 96 m 335 -13 q 164 39 239 -13 q 88 203 88 90 q 153 360 88 303 q 306 417 218 417 l 568 417 l 568 525 q 528 621 568 586 q 405 657 487 657 q 281 632 322 657 q 216 523 240 607 l 105 553 q 201 715 126 660 q 403 770 277 770 q 611 714 528 770 q 694 540 694 658 l 694 202 q 732 117 694 134 q 846 112 770 100 l 846 -4 q 699 7 768 -15 q 624 126 630 29 l 598 126 q 492 28 563 68 q 335 -13 422 -13 m 164 953 l 164 1067 l 669 1067 l 669 953 l 164 953 z "},"ă":{"ha":884,"x_min":88,"x_max":846,"o":"m 351 96 q 472 119 417 96 q 568 201 528 143 l 568 322 l 341 322 q 251 297 287 322 q 215 211 215 273 q 246 126 215 157 q 351 96 277 96 m 335 -13 q 164 39 239 -13 q 88 203 88 90 q 153 360 88 303 q 306 417 218 417 l 568 417 l 568 525 q 528 621 568 586 q 405 657 487 657 q 281 632 322 657 q 216 523 240 607 l 105 553 q 201 715 126 660 q 403 770 277 770 q 611 714 528 770 q 694 540 694 658 l 694 202 q 732 117 694 134 q 846 112 770 100 l 846 -4 q 699 7 768 -15 q 624 126 630 29 l 598 126 q 492 28 563 68 q 335 -13 422 -13 m 417 875 q 210 934 294 875 q 124 1140 125 994 l 250 1140 q 292 1012 251 1049 q 417 975 333 975 q 541 1012 500 975 q 583 1140 582 1049 l 710 1140 q 624 934 708 994 q 417 875 539 875 z "},"ą":{"ha":884,"x_min":88,"x_max":884,"o":"m 351 96 q 472 119 417 96 q 568 201 528 143 l 568 322 l 341 322 q 251 297 287 322 q 215 211 215 273 q 246 126 215 157 q 351 96 277 96 m 335 -13 q 164 39 239 -13 q 88 203 88 90 q 153 360 88 303 q 306 417 218 417 l 568 417 l 568 525 q 528 621 568 586 q 405 657 487 657 q 281 632 322 657 q 216 523 240 607 l 105 553 q 201 715 126 660 q 403 770 277 770 q 611 714 528 770 q 694 540 694 658 l 694 202 q 732 117 694 134 q 846 112 770 100 l 846 -4 q 699 7 768 -15 q 624 126 630 29 l 598 126 q 492 28 563 68 q 335 -13 422 -13 m 758 -271 q 623 -232 678 -271 q 568 -121 568 -192 q 616 -11 568 -59 q 722 59 664 37 l 756 29 q 698 -29 713 3 q 682 -86 682 -61 q 705 -140 682 -121 q 771 -158 729 -158 q 829 -154 794 -158 q 884 -145 864 -150 l 884 -259 q 823 -268 860 -264 q 758 -271 787 -271 z "},"ǻ":{"ha":884,"x_min":88,"x_max":846,"o":"m 351 96 q 472 119 417 96 q 568 201 528 143 l 568 322 l 341 322 q 251 297 287 322 q 215 211 215 273 q 246 126 215 157 q 351 96 277 96 m 335 -13 q 164 39 239 -13 q 88 203 88 90 q 153 360 88 303 q 306 417 218 417 l 568 417 l 568 525 q 528 621 568 586 q 405 657 487 657 q 281 632 322 657 q 216 523 240 607 l 105 553 q 201 715 126 660 q 403 770 277 770 q 611 714 528 770 q 694 540 694 658 l 694 202 q 732 117 694 134 q 846 112 770 100 l 846 -4 q 699 7 768 -15 q 624 126 630 29 l 598 126 q 492 28 563 68 q 335 -13 422 -13 m 417 865 q 270 910 326 865 q 215 1048 215 955 l 215 1088 q 270 1229 215 1183 q 417 1275 326 1275 q 563 1229 508 1275 q 619 1088 619 1183 l 619 1048 q 563 910 619 955 q 417 865 508 865 m 417 955 q 494 976 467 955 q 520 1048 520 997 l 520 1088 q 494 1162 520 1139 q 417 1186 467 1186 q 339 1162 365 1186 q 313 1088 313 1139 l 313 1048 q 339 976 313 997 q 417 955 365 955 m 348 1263 l 520 1515 l 710 1515 l 463 1263 l 348 1263 z "},"b":{"ha":884,"x_min":126,"x_max":758,"o":"m 432 -13 q 275 10 356 -13 q 126 76 194 33 l 126 1010 l 253 1010 l 253 631 l 290 631 q 381 734 323 697 q 511 770 439 770 q 693 694 629 770 q 758 482 758 619 l 758 277 q 672 63 758 139 q 432 -13 586 -13 m 431 98 q 582 143 533 98 q 631 279 631 188 l 631 481 q 593 609 631 567 q 480 650 556 650 q 362 617 418 650 q 253 518 307 585 l 253 146 q 336 110 293 122 q 431 98 380 98 z "},"":{"ha":884,"x_min":126,"x_max":758,"o":"m 432 -13 q 275 10 356 -13 q 126 76 194 33 l 126 1010 l 253 1010 l 253 631 l 290 631 q 381 734 323 697 q 511 770 439 770 q 693 694 629 770 q 758 482 758 619 l 758 277 q 672 63 758 139 q 432 -13 586 -13 m 431 98 q 582 143 533 98 q 631 279 631 188 l 631 481 q 593 609 631 567 q 480 650 556 650 q 362 617 418 650 q 253 518 307 585 l 253 146 q 336 110 293 122 q 431 98 380 98 z "},"c":{"ha":884,"x_min":126,"x_max":771,"o":"m 460 -13 q 210 60 294 -13 q 126 274 126 133 l 126 479 q 210 696 126 622 q 458 770 294 770 q 684 704 605 770 q 771 510 763 638 l 648 503 q 596 619 643 581 q 457 657 549 657 q 303 613 354 657 q 253 479 253 569 l 253 274 q 304 144 253 187 q 460 101 355 101 q 597 133 551 101 q 648 230 644 165 l 771 222 q 684 47 763 106 q 460 -13 606 -13 z "},"ç":{"ha":884,"x_min":126,"x_max":771,"o":"m 460 -13 q 210 60 294 -13 q 126 274 126 133 l 126 479 q 210 696 126 622 q 458 770 294 770 q 684 704 605 770 q 771 510 763 638 l 648 503 q 596 619 643 581 q 457 657 549 657 q 303 613 354 657 q 253 479 253 569 l 253 274 q 304 144 253 187 q 460 101 355 101 q 597 133 551 101 q 648 230 644 165 l 771 222 q 684 47 763 106 q 460 -13 606 -13 m 399 0 l 424 53 q 530 6 480 43 q 581 -115 581 -32 q 524 -235 581 -197 q 396 -273 467 -273 q 261 -242 313 -273 q 203 -139 208 -211 l 314 -126 q 334 -160 317 -150 q 390 -169 351 -169 q 448 -153 428 -169 q 467 -95 467 -138 q 451 -31 467 -52 q 399 0 436 -10 z "},"ć":{"ha":884,"x_min":126,"x_max":771,"o":"m 460 -13 q 210 60 294 -13 q 126 274 126 133 l 126 479 q 210 696 126 622 q 458 770 294 770 q 684 704 605 770 q 771 510 763 638 l 648 503 q 596 619 643 581 q 457 657 549 657 q 303 613 354 657 q 253 479 253 569 l 253 274 q 304 144 253 187 q 460 101 355 101 q 597 133 551 101 q 648 230 644 165 l 771 222 q 684 47 763 106 q 460 -13 606 -13 m 306 884 l 477 1136 l 667 1136 l 420 884 l 306 884 z "},"ĉ":{"ha":884,"x_min":126,"x_max":771,"o":"m 460 -13 q 210 60 294 -13 q 126 274 126 133 l 126 479 q 210 696 126 622 q 458 770 294 770 q 684 704 605 770 q 771 510 763 638 l 648 503 q 596 619 643 581 q 457 657 549 657 q 303 613 354 657 q 253 479 253 569 l 253 274 q 304 144 253 187 q 460 101 355 101 q 597 133 551 101 q 648 230 644 165 l 771 222 q 684 47 763 106 q 460 -13 606 -13 m 244 889 l 196 970 l 415 1158 l 506 1158 l 729 970 l 681 889 l 461 1035 l 244 889 z "},"ċ":{"ha":884,"x_min":126,"x_max":771,"o":"m 460 -13 q 210 60 294 -13 q 126 274 126 133 l 126 479 q 210 696 126 622 q 458 770 294 770 q 684 704 605 770 q 771 510 763 638 l 648 503 q 596 619 643 581 q 457 657 549 657 q 303 613 354 657 q 253 479 253 569 l 253 274 q 304 144 253 187 q 460 101 355 101 q 597 133 551 101 q 648 230 644 165 l 771 222 q 684 47 763 106 q 460 -13 606 -13 m 449 896 q 372 912 402 896 q 342 968 342 927 l 342 977 q 372 1036 342 1020 q 449 1052 402 1052 q 527 1036 497 1052 q 557 977 557 1020 l 557 968 q 527 912 557 927 q 449 896 496 896 z "},"č":{"ha":884,"x_min":126,"x_max":771,"o":"m 460 -13 q 210 60 294 -13 q 126 274 126 133 l 126 479 q 210 696 126 622 q 458 770 294 770 q 684 704 605 770 q 771 510 763 638 l 648 503 q 596 619 643 581 q 457 657 549 657 q 303 613 354 657 q 253 479 253 569 l 253 274 q 304 144 253 187 q 460 101 355 101 q 597 133 551 101 q 648 230 644 165 l 771 222 q 684 47 763 106 q 460 -13 606 -13 m 405 889 l 183 1077 l 231 1158 l 451 1011 l 668 1158 l 716 1077 l 496 889 l 405 889 z "},"d":{"ha":884,"x_min":126,"x_max":758,"o":"m 404 107 q 521 140 466 107 q 631 240 577 173 l 631 611 q 548 647 592 635 q 453 659 504 659 q 302 614 351 659 q 253 479 253 569 l 253 275 q 290 149 253 191 q 404 107 328 107 m 593 126 q 503 24 561 61 q 372 -13 444 -13 q 191 63 255 -13 q 126 275 126 139 l 126 481 q 212 694 126 619 q 452 770 298 770 q 543 761 496 770 q 631 735 590 751 l 631 1010 l 758 1010 l 758 0 l 631 0 l 631 126 l 593 126 z "},"ď":{"ha":884,"x_min":126,"x_max":1167,"o":"m 404 107 q 521 140 466 107 q 631 240 577 173 l 631 611 q 548 647 592 635 q 453 659 504 659 q 302 614 351 659 q 253 479 253 569 l 253 275 q 290 149 253 191 q 404 107 328 107 m 593 126 q 503 24 561 61 q 372 -13 444 -13 q 191 63 255 -13 q 126 275 126 139 l 126 481 q 212 694 126 619 q 452 770 298 770 q 543 761 496 770 q 631 735 590 751 l 631 1010 l 758 1010 l 758 0 l 631 0 l 631 126 l 593 126 m 879 890 l 981 1263 l 1167 1263 l 970 890 l 879 890 z "},"e":{"ha":884,"x_min":126,"x_max":760,"o":"m 760 167 q 657 30 726 72 q 443 -13 587 -13 q 210 60 293 -13 q 126 275 126 133 l 126 479 q 214 698 126 625 q 443 770 302 770 q 672 696 586 770 q 758 470 758 622 l 758 354 l 253 354 l 253 274 q 300 137 253 179 q 442 95 347 95 q 574 120 533 95 q 638 202 616 145 l 760 167 m 253 479 l 253 448 l 631 448 l 631 467 q 584 616 631 569 q 442 663 537 663 q 300 618 347 663 q 253 479 253 573 z "},"è":{"ha":884,"x_min":126,"x_max":760,"o":"m 760 167 q 657 30 726 72 q 443 -13 587 -13 q 210 60 293 -13 q 126 275 126 133 l 126 479 q 214 698 126 625 q 443 770 302 770 q 672 696 586 770 q 758 470 758 622 l 758 354 l 253 354 l 253 274 q 300 137 253 179 q 442 95 347 95 q 574 120 533 95 q 638 202 616 145 l 760 167 m 253 479 l 253 448 l 631 448 l 631 467 q 584 616 631 569 q 442 663 537 663 q 300 618 347 663 q 253 479 253 573 m 444 884 l 198 1136 l 388 1136 l 559 884 l 444 884 z "},"é":{"ha":884,"x_min":126,"x_max":760,"o":"m 760 167 q 657 30 726 72 q 443 -13 587 -13 q 210 60 293 -13 q 126 275 126 133 l 126 479 q 214 698 126 625 q 443 770 302 770 q 672 696 586 770 q 758 470 758 622 l 758 354 l 253 354 l 253 274 q 300 137 253 179 q 442 95 347 95 q 574 120 533 95 q 638 202 616 145 l 760 167 m 253 479 l 253 448 l 631 448 l 631 467 q 584 616 631 569 q 442 663 537 663 q 300 618 347 663 q 253 479 253 573 m 299 884 l 471 1136 l 660 1136 l 414 884 l 299 884 z "},"ê":{"ha":884,"x_min":126,"x_max":760,"o":"m 760 167 q 657 30 726 72 q 443 -13 587 -13 q 210 60 293 -13 q 126 275 126 133 l 126 479 q 214 698 126 625 q 443 770 302 770 q 672 696 586 770 q 758 470 758 622 l 758 354 l 253 354 l 253 274 q 300 137 253 179 q 442 95 347 95 q 574 120 533 95 q 638 202 616 145 l 760 167 m 253 479 l 253 448 l 631 448 l 631 467 q 584 616 631 569 q 442 663 537 663 q 300 618 347 663 q 253 479 253 573 m 225 889 l 177 970 l 396 1158 l 487 1158 l 710 970 l 662 889 l 442 1035 l 225 889 z "},"ë":{"ha":884,"x_min":126,"x_max":760,"o":"m 760 167 q 657 30 726 72 q 443 -13 587 -13 q 210 60 293 -13 q 126 275 126 133 l 126 479 q 214 698 126 625 q 443 770 302 770 q 672 696 586 770 q 758 470 758 622 l 758 354 l 253 354 l 253 274 q 300 137 253 179 q 442 95 347 95 q 574 120 533 95 q 638 202 616 145 l 760 167 m 253 479 l 253 448 l 631 448 l 631 467 q 584 616 631 569 q 442 663 537 663 q 300 618 347 663 q 253 479 253 573 m 298 896 q 239 912 261 896 q 216 968 216 927 l 216 977 q 239 1036 216 1020 q 298 1052 261 1052 q 357 1036 335 1052 q 380 977 380 1020 l 380 968 q 357 912 380 927 q 298 896 333 896 m 588 896 q 529 912 552 896 q 506 968 506 927 l 506 977 q 529 1036 506 1020 q 588 1052 552 1052 q 648 1036 625 1052 q 670 977 670 1020 l 670 968 q 647 912 670 927 q 588 896 624 896 z "},"ē":{"ha":884,"x_min":126,"x_max":760,"o":"m 760 167 q 657 30 726 72 q 443 -13 587 -13 q 210 60 293 -13 q 126 275 126 133 l 126 479 q 214 698 126 625 q 443 770 302 770 q 672 696 586 770 q 758 470 758 622 l 758 354 l 253 354 l 253 274 q 300 137 253 179 q 442 95 347 95 q 574 120 533 95 q 638 202 616 145 l 760 167 m 253 479 l 253 448 l 631 448 l 631 467 q 584 616 631 569 q 442 663 537 663 q 300 618 347 663 q 253 479 253 573 m 191 953 l 191 1067 l 696 1067 l 696 953 l 191 953 z "},"ĕ":{"ha":884,"x_min":126,"x_max":760,"o":"m 760 167 q 657 30 726 72 q 443 -13 587 -13 q 210 60 293 -13 q 126 275 126 133 l 126 479 q 214 698 126 625 q 443 770 302 770 q 672 696 586 770 q 758 470 758 622 l 758 354 l 253 354 l 253 274 q 300 137 253 179 q 442 95 347 95 q 574 120 533 95 q 638 202 616 145 l 760 167 m 253 479 l 253 448 l 631 448 l 631 467 q 584 616 631 569 q 442 663 537 663 q 300 618 347 663 q 253 479 253 573 m 443 875 q 236 934 321 875 q 150 1140 152 994 l 277 1140 q 319 1012 278 1049 q 443 975 360 975 q 568 1012 527 975 q 610 1140 609 1049 l 736 1140 q 650 934 735 994 q 443 875 566 875 z "},"ė":{"ha":884,"x_min":126,"x_max":760,"o":"m 760 167 q 657 30 726 72 q 443 -13 587 -13 q 210 60 293 -13 q 126 275 126 133 l 126 479 q 214 698 126 625 q 443 770 302 770 q 672 696 586 770 q 758 470 758 622 l 758 354 l 253 354 l 253 274 q 300 137 253 179 q 442 95 347 95 q 574 120 533 95 q 638 202 616 145 l 760 167 m 253 479 l 253 448 l 631 448 l 631 467 q 584 616 631 569 q 442 663 537 663 q 300 618 347 663 q 253 479 253 573 m 443 896 q 366 912 395 896 q 336 968 336 927 l 336 977 q 366 1036 336 1020 q 443 1052 395 1052 q 521 1036 491 1052 q 551 977 551 1020 l 551 968 q 520 912 551 927 q 443 896 490 896 z "},"ę":{"ha":884,"x_min":126,"x_max":760,"o":"m 760 167 q 657 30 726 72 q 443 -13 587 -13 q 210 60 293 -13 q 126 275 126 133 l 126 479 q 214 698 126 625 q 443 770 302 770 q 672 696 586 770 q 758 470 758 622 l 758 354 l 253 354 l 253 274 q 300 137 253 179 q 442 95 347 95 q 574 120 533 95 q 638 202 616 145 l 760 167 m 253 479 l 253 448 l 631 448 l 631 467 q 584 616 631 569 q 442 663 537 663 q 300 618 347 663 q 253 479 253 573 m 620 -271 q 485 -232 540 -271 q 431 -121 431 -192 q 479 -11 431 -59 q 585 59 527 37 l 619 29 q 560 -29 576 3 q 544 -86 544 -61 q 568 -140 544 -121 q 634 -158 591 -158 q 691 -154 657 -158 q 746 -145 726 -150 l 746 -259 q 686 -268 722 -264 q 620 -271 649 -271 z "},"ě":{"ha":884,"x_min":126,"x_max":760,"o":"m 760 167 q 657 30 726 72 q 443 -13 587 -13 q 210 60 293 -13 q 126 275 126 133 l 126 479 q 214 698 126 625 q 443 770 302 770 q 672 696 586 770 q 758 470 758 622 l 758 354 l 253 354 l 253 274 q 300 137 253 179 q 442 95 347 95 q 574 120 533 95 q 638 202 616 145 l 760 167 m 253 479 l 253 448 l 631 448 l 631 467 q 584 616 631 569 q 442 663 537 663 q 300 618 347 663 q 253 479 253 573 m 399 889 l 177 1077 l 225 1158 l 444 1011 l 662 1158 l 710 1077 l 490 889 l 399 889 z "},"f":{"ha":884,"x_min":101,"x_max":782,"o":"m 316 0 l 316 644 l 101 644 l 101 758 l 316 758 l 316 808 q 396 967 316 910 q 595 1023 476 1023 q 699 1013 653 1023 q 782 990 745 1003 l 756 884 q 689 901 729 893 q 595 909 649 909 q 484 886 525 909 q 442 809 442 862 l 442 758 l 758 758 l 758 644 l 442 644 l 442 0 l 316 0 z "},"g":{"ha":884,"x_min":63,"x_max":821,"o":"m 821 -61 q 746 -214 821 -163 q 562 -265 670 -265 l 324 -265 q 137 -220 211 -265 q 63 -80 63 -174 q 95 17 63 -19 q 189 58 128 53 l 189 85 q 117 121 145 92 q 88 211 88 150 q 122 309 88 265 q 237 359 157 352 l 237 383 q 154 444 176 403 q 133 523 133 485 l 133 557 q 207 701 133 644 q 417 758 282 758 l 789 758 l 789 644 l 593 673 l 593 650 q 670 597 644 636 q 696 519 696 558 l 696 486 q 629 345 696 399 q 412 292 562 292 l 259 292 q 207 275 225 292 q 189 217 189 258 q 214 158 189 178 q 288 139 239 139 l 574 139 q 751 92 681 139 q 821 -61 821 45 m 417 388 q 534 415 494 388 q 574 503 574 443 l 574 543 q 534 629 574 602 q 417 657 494 657 q 299 629 340 657 q 259 543 259 602 l 259 503 q 299 415 259 443 q 417 388 340 388 m 322 -164 l 578 -164 q 670 -143 635 -164 q 706 -68 706 -121 q 674 4 706 -18 q 591 25 641 25 l 189 25 l 189 -61 q 223 -138 189 -112 q 322 -164 258 -164 z "},"ĝ":{"ha":884,"x_min":63,"x_max":821,"o":"m 821 -61 q 746 -214 821 -163 q 562 -265 670 -265 l 324 -265 q 137 -220 211 -265 q 63 -80 63 -174 q 95 17 63 -19 q 189 58 128 53 l 189 85 q 117 121 145 92 q 88 211 88 150 q 122 309 88 265 q 237 359 157 352 l 237 383 q 154 444 176 403 q 133 523 133 485 l 133 557 q 207 701 133 644 q 417 758 282 758 l 789 758 l 789 644 l 593 673 l 593 650 q 670 597 644 636 q 696 519 696 558 l 696 486 q 629 345 696 399 q 412 292 562 292 l 259 292 q 207 275 225 292 q 189 217 189 258 q 214 158 189 178 q 288 139 239 139 l 574 139 q 751 92 681 139 q 821 -61 821 45 m 417 388 q 534 415 494 388 q 574 503 574 443 l 574 543 q 534 629 574 602 q 417 657 494 657 q 299 629 340 657 q 259 543 259 602 l 259 503 q 299 415 259 443 q 417 388 340 388 m 322 -164 l 578 -164 q 670 -143 635 -164 q 706 -68 706 -121 q 674 4 706 -18 q 591 25 641 25 l 189 25 l 189 -61 q 223 -138 189 -112 q 322 -164 258 -164 m 211 889 l 163 970 l 383 1158 l 473 1158 l 696 970 l 648 889 l 428 1035 l 211 889 z "},"ğ":{"ha":884,"x_min":63,"x_max":821,"o":"m 821 -61 q 746 -214 821 -163 q 562 -265 670 -265 l 324 -265 q 137 -220 211 -265 q 63 -80 63 -174 q 95 17 63 -19 q 189 58 128 53 l 189 85 q 117 121 145 92 q 88 211 88 150 q 122 309 88 265 q 237 359 157 352 l 237 383 q 154 444 176 403 q 133 523 133 485 l 133 557 q 207 701 133 644 q 417 758 282 758 l 789 758 l 789 644 l 593 673 l 593 650 q 670 597 644 636 q 696 519 696 558 l 696 486 q 629 345 696 399 q 412 292 562 292 l 259 292 q 207 275 225 292 q 189 217 189 258 q 214 158 189 178 q 288 139 239 139 l 574 139 q 751 92 681 139 q 821 -61 821 45 m 417 388 q 534 415 494 388 q 574 503 574 443 l 574 543 q 534 629 574 602 q 417 657 494 657 q 299 629 340 657 q 259 543 259 602 l 259 503 q 299 415 259 443 q 417 388 340 388 m 322 -164 l 578 -164 q 670 -143 635 -164 q 706 -68 706 -121 q 674 4 706 -18 q 591 25 641 25 l 189 25 l 189 -61 q 223 -138 189 -112 q 322 -164 258 -164 m 442 875 q 235 934 319 875 q 149 1140 150 994 l 275 1140 q 318 1012 277 1049 q 442 975 359 975 q 566 1012 525 975 q 609 1140 607 1049 l 735 1140 q 649 934 734 994 q 442 875 564 875 z "},"ġ":{"ha":884,"x_min":63,"x_max":821,"o":"m 821 -61 q 746 -214 821 -163 q 562 -265 670 -265 l 324 -265 q 137 -220 211 -265 q 63 -80 63 -174 q 95 17 63 -19 q 189 58 128 53 l 189 85 q 117 121 145 92 q 88 211 88 150 q 122 309 88 265 q 237 359 157 352 l 237 383 q 154 444 176 403 q 133 523 133 485 l 133 557 q 207 701 133 644 q 417 758 282 758 l 789 758 l 789 644 l 593 673 l 593 650 q 670 597 644 636 q 696 519 696 558 l 696 486 q 629 345 696 399 q 412 292 562 292 l 259 292 q 207 275 225 292 q 189 217 189 258 q 214 158 189 178 q 288 139 239 139 l 574 139 q 751 92 681 139 q 821 -61 821 45 m 417 388 q 534 415 494 388 q 574 503 574 443 l 574 543 q 534 629 574 602 q 417 657 494 657 q 299 629 340 657 q 259 543 259 602 l 259 503 q 299 415 259 443 q 417 388 340 388 m 322 -164 l 578 -164 q 670 -143 635 -164 q 706 -68 706 -121 q 674 4 706 -18 q 591 25 641 25 l 189 25 l 189 -61 q 223 -138 189 -112 q 322 -164 258 -164 m 442 896 q 364 912 394 896 q 335 968 335 927 l 335 977 q 364 1036 335 1020 q 442 1052 394 1052 q 520 1036 490 1052 q 549 977 549 1020 l 549 968 q 519 912 549 927 q 442 896 489 896 z "},"ģ":{"ha":884,"x_min":63,"x_max":821,"o":"m 821 -61 q 746 -214 821 -163 q 562 -265 670 -265 l 324 -265 q 137 -220 211 -265 q 63 -80 63 -174 q 95 17 63 -19 q 189 58 128 53 l 189 85 q 117 121 145 92 q 88 211 88 150 q 122 309 88 265 q 237 359 157 352 l 237 383 q 154 444 176 403 q 133 523 133 485 l 133 557 q 207 701 133 644 q 417 758 282 758 l 789 758 l 789 644 l 593 673 l 593 650 q 670 597 644 636 q 696 519 696 558 l 696 486 q 629 345 696 399 q 412 292 562 292 l 259 292 q 207 275 225 292 q 189 217 189 258 q 214 158 189 178 q 288 139 239 139 l 574 139 q 751 92 681 139 q 821 -61 821 45 m 417 388 q 534 415 494 388 q 574 503 574 443 l 574 543 q 534 629 574 602 q 417 657 494 657 q 299 629 340 657 q 259 543 259 602 l 259 503 q 299 415 259 443 q 417 388 340 388 m 322 -164 l 578 -164 q 670 -143 635 -164 q 706 -68 706 -121 q 674 4 706 -18 q 591 25 641 25 l 189 25 l 189 -61 q 223 -138 189 -112 q 322 -164 258 -164 m 323 884 l 519 1136 l 634 1136 l 513 884 l 323 884 z "},"h":{"ha":884,"x_min":126,"x_max":758,"o":"m 126 0 l 126 1010 l 253 1010 l 253 631 l 290 631 q 378 733 318 696 q 513 770 437 770 q 692 701 626 770 q 758 513 758 631 l 758 0 l 631 0 l 631 486 q 593 608 631 566 q 482 650 554 650 q 367 616 426 650 q 253 518 308 582 l 253 0 l 126 0 z "},"ĥ":{"ha":884,"x_min":-77,"x_max":758,"o":"m 126 0 l 126 1010 l 253 1010 l 253 631 l 290 631 q 378 733 318 696 q 513 770 437 770 q 692 701 626 770 q 758 513 758 631 l 758 0 l 631 0 l 631 486 q 593 608 631 566 q 482 650 554 650 q 367 616 426 650 q 253 518 308 582 l 253 0 l 126 0 m -29 1141 l -77 1222 l 143 1410 l 234 1410 l 456 1222 l 408 1141 l 188 1288 l -29 1141 z "},"i":{"ha":884,"x_min":126,"x_max":758,"o":"m 126 0 l 126 114 l 379 114 l 379 644 l 126 644 l 126 758 l 505 758 l 505 114 l 758 114 l 758 0 l 126 0 m 442 896 q 364 912 394 896 q 335 968 335 927 l 335 977 q 364 1036 335 1020 q 442 1052 394 1052 q 520 1036 490 1052 q 549 977 549 1020 l 549 968 q 519 912 549 927 q 442 896 489 896 z "},"ì":{"ha":884,"x_min":126,"x_max":758,"o":"m 126 0 l 126 114 l 379 114 l 379 644 l 126 644 l 126 758 l 505 758 l 505 114 l 758 114 l 758 0 l 126 0 m 443 884 l 197 1136 l 386 1136 l 558 884 l 443 884 z "},"í":{"ha":884,"x_min":126,"x_max":758,"o":"m 126 0 l 126 114 l 379 114 l 379 644 l 126 644 l 126 758 l 505 758 l 505 114 l 758 114 l 758 0 l 126 0 m 298 884 l 470 1136 l 659 1136 l 413 884 l 298 884 z "},"î":{"ha":884,"x_min":126,"x_max":758,"o":"m 126 0 l 126 114 l 379 114 l 379 644 l 126 644 l 126 758 l 505 758 l 505 114 l 758 114 l 758 0 l 126 0 m 223 889 l 176 970 l 395 1158 l 486 1158 l 708 970 l 660 889 l 441 1035 l 223 889 z "},"ï":{"ha":884,"x_min":126,"x_max":758,"o":"m 126 0 l 126 114 l 379 114 l 379 644 l 126 644 l 126 758 l 505 758 l 505 114 l 758 114 l 758 0 l 126 0 m 297 896 q 237 912 260 896 q 215 968 215 927 l 215 977 q 237 1036 215 1020 q 297 1052 260 1052 q 356 1036 333 1052 q 379 977 379 1020 l 379 968 q 355 912 379 927 q 297 896 332 896 m 587 896 q 528 912 551 896 q 505 968 505 927 l 505 977 q 528 1036 505 1020 q 587 1052 551 1052 q 646 1036 624 1052 q 669 977 669 1020 l 669 968 q 646 912 669 927 q 587 896 622 896 z "},"ĩ":{"ha":884,"x_min":126,"x_max":758,"o":"m 126 0 l 126 114 l 379 114 l 379 644 l 126 644 l 126 758 l 505 758 l 505 114 l 758 114 l 758 0 l 126 0 m 542 896 q 469 919 499 896 q 417 970 439 942 q 374 1019 394 996 q 332 1042 355 1042 q 290 1018 308 1042 q 274 923 273 995 l 274 909 l 177 909 l 177 928 q 220 1086 177 1023 q 342 1149 263 1149 q 421 1126 390 1149 q 473 1077 452 1104 q 513 1027 495 1049 q 552 1004 530 1004 q 593 1027 576 1004 q 610 1122 610 1051 l 610 1136 l 707 1136 l 707 1117 q 664 959 707 1021 q 542 896 621 896 z "},"ī":{"ha":884,"x_min":126,"x_max":758,"o":"m 126 0 l 126 114 l 379 114 l 379 644 l 126 644 l 126 758 l 505 758 l 505 114 l 758 114 l 758 0 l 126 0 m 189 953 l 189 1067 l 694 1067 l 694 953 l 189 953 z "},"ĭ":{"ha":884,"x_min":126,"x_max":758,"o":"m 126 0 l 126 114 l 379 114 l 379 644 l 126 644 l 126 758 l 505 758 l 505 114 l 758 114 l 758 0 l 126 0 m 442 875 q 235 934 319 875 q 149 1140 150 994 l 275 1140 q 318 1012 277 1049 q 442 975 359 975 q 566 1012 525 975 q 609 1140 607 1049 l 735 1140 q 649 934 734 994 q 442 875 564 875 z "},"į":{"ha":884,"x_min":126,"x_max":758,"o":"m 126 0 l 126 114 l 379 114 l 379 644 l 126 644 l 126 758 l 505 758 l 505 114 l 758 114 l 758 0 l 126 0 m 442 896 q 364 912 394 896 q 335 968 335 927 l 335 977 q 364 1036 335 1020 q 442 1052 394 1052 q 520 1036 490 1052 q 549 977 549 1020 l 549 968 q 519 912 549 927 q 442 896 489 896 m 562 -271 q 427 -232 482 -271 q 372 -121 372 -192 q 420 -11 372 -59 q 527 59 468 37 l 561 29 q 502 -29 518 3 q 486 -86 486 -61 q 509 -140 486 -121 q 576 -158 533 -158 q 633 -154 598 -158 q 688 -145 668 -150 l 688 -259 q 628 -268 664 -264 q 562 -271 591 -271 z "},"j":{"ha":884,"x_min":128,"x_max":672,"o":"m 326 -263 q 230 -257 278 -263 q 128 -235 182 -251 l 153 -114 q 241 -136 199 -130 q 322 -141 282 -141 q 455 -107 404 -141 q 505 9 505 -72 l 505 644 l 152 644 l 152 758 l 631 758 l 631 -8 q 544 -200 631 -138 q 326 -263 456 -263 m 564 896 q 487 912 516 896 q 457 968 457 927 l 457 977 q 487 1036 457 1020 q 564 1052 516 1052 q 642 1036 612 1052 q 672 977 672 1020 l 672 968 q 641 912 672 927 q 564 896 611 896 z "},"ĵ":{"ha":884,"x_min":128,"x_max":792,"o":"m 326 -263 q 230 -257 278 -263 q 128 -235 182 -251 l 153 -114 q 241 -136 199 -130 q 322 -141 282 -141 q 455 -107 404 -141 q 505 9 505 -72 l 505 644 l 152 644 l 152 758 l 631 758 l 631 -8 q 544 -200 631 -138 q 326 -263 456 -263 m 307 889 l 259 970 l 479 1158 l 569 1158 l 792 970 l 744 889 l 524 1035 l 307 889 z "},"k":{"ha":884,"x_min":189,"x_max":777,"o":"m 316 345 l 316 0 l 189 0 l 189 1010 l 316 1010 l 316 451 l 380 451 l 622 758 l 777 758 l 480 405 l 773 0 l 629 0 l 380 345 l 316 345 z "},"ķ":{"ha":884,"x_min":189,"x_max":777,"o":"m 316 345 l 316 0 l 189 0 l 189 1010 l 316 1010 l 316 451 l 380 451 l 622 758 l 777 758 l 480 405 l 773 0 l 629 0 l 380 345 l 316 345 m 264 -379 l 385 -126 l 574 -126 l 379 -379 l 264 -379 z "},"l":{"ha":884,"x_min":126,"x_max":758,"o":"m 126 0 l 126 114 l 379 114 l 379 896 l 126 896 l 126 1010 l 505 1010 l 505 114 l 758 114 l 758 0 l 126 0 z "},"ĺ":{"ha":884,"x_min":126,"x_max":758,"o":"m 126 0 l 126 114 l 379 114 l 379 896 l 126 896 l 126 1010 l 505 1010 l 505 114 l 758 114 l 758 0 l 126 0 m 317 1136 l 489 1389 l 678 1389 l 432 1136 l 317 1136 z "},"ļ":{"ha":884,"x_min":126,"x_max":758,"o":"m 126 0 l 126 114 l 379 114 l 379 896 l 126 896 l 126 1010 l 505 1010 l 505 114 l 758 114 l 758 0 l 126 0 m 241 -379 l 362 -126 l 552 -126 l 356 -379 l 241 -379 z "},"ľ":{"ha":884,"x_min":126,"x_max":914,"o":"m 126 0 l 126 114 l 379 114 l 379 896 l 126 896 l 126 1010 l 505 1010 l 505 114 l 758 114 l 758 0 l 126 0 m 626 890 l 729 1263 l 914 1263 l 717 890 l 626 890 z "},"m":{"ha":884,"x_min":76,"x_max":808,"o":"m 192 543 l 192 0 l 76 0 l 76 758 l 192 758 l 192 657 l 217 657 q 280 740 241 710 q 362 770 319 770 q 445 741 412 770 q 491 657 479 711 l 519 657 q 584 740 543 710 q 672 770 625 770 q 771 719 735 770 q 808 581 808 668 l 808 0 l 692 0 l 692 561 q 677 646 692 617 q 633 676 662 676 q 573 640 609 676 q 500 543 537 605 l 500 0 l 384 0 l 384 561 q 368 646 384 617 q 323 676 352 676 q 265 641 298 676 q 192 543 231 607 z "},"n":{"ha":884,"x_min":126,"x_max":758,"o":"m 126 0 l 126 758 l 253 758 l 253 631 l 290 631 q 378 733 318 696 q 513 770 437 770 q 692 701 626 770 q 758 511 758 631 l 758 0 l 631 0 l 631 486 q 593 608 631 566 q 482 650 554 650 q 367 616 426 650 q 253 518 308 582 l 253 0 l 126 0 z "},"ñ":{"ha":884,"x_min":126,"x_max":758,"o":"m 126 0 l 126 758 l 253 758 l 253 631 l 290 631 q 378 733 318 696 q 513 770 437 770 q 692 701 626 770 q 758 511 758 631 l 758 0 l 631 0 l 631 486 q 593 608 631 566 q 482 650 554 650 q 367 616 426 650 q 253 518 308 582 l 253 0 l 126 0 m 567 896 q 494 919 524 896 q 442 970 465 942 q 400 1019 419 996 q 357 1042 380 1042 q 316 1018 333 1042 q 299 923 298 995 l 299 909 l 202 909 l 202 928 q 245 1086 202 1023 q 367 1149 288 1149 q 446 1126 415 1149 q 499 1077 477 1104 q 538 1027 520 1049 q 577 1004 556 1004 q 618 1027 601 1004 q 635 1122 635 1051 l 635 1136 l 732 1136 l 732 1117 q 689 959 732 1021 q 567 896 646 896 z "},"ń":{"ha":884,"x_min":126,"x_max":758,"o":"m 126 0 l 126 758 l 253 758 l 253 631 l 290 631 q 378 733 318 696 q 513 770 437 770 q 692 701 626 770 q 758 511 758 631 l 758 0 l 631 0 l 631 486 q 593 608 631 566 q 482 650 554 650 q 367 616 426 650 q 253 518 308 582 l 253 0 l 126 0 m 323 884 l 495 1136 l 684 1136 l 438 884 l 323 884 z "},"ņ":{"ha":884,"x_min":126,"x_max":758,"o":"m 126 0 l 126 758 l 253 758 l 253 631 l 290 631 q 378 733 318 696 q 513 770 437 770 q 692 701 626 770 q 758 511 758 631 l 758 0 l 631 0 l 631 486 q 593 608 631 566 q 482 650 554 650 q 367 616 426 650 q 253 518 308 582 l 253 0 l 126 0 m 273 -379 l 394 -126 l 583 -126 l 388 -379 l 273 -379 z "},"ň":{"ha":884,"x_min":126,"x_max":758,"o":"m 126 0 l 126 758 l 253 758 l 253 631 l 290 631 q 378 733 318 696 q 513 770 437 770 q 692 701 626 770 q 758 511 758 631 l 758 0 l 631 0 l 631 486 q 593 608 631 566 q 482 650 554 650 q 367 616 426 650 q 253 518 308 582 l 253 0 l 126 0 m 423 889 l 201 1077 l 249 1158 l 468 1011 l 686 1158 l 734 1077 l 514 889 l 423 889 z "},"o":{"ha":884,"x_min":126,"x_max":758,"o":"m 442 -13 q 208 61 289 -13 q 126 274 126 135 l 126 479 q 208 694 126 619 q 443 770 290 770 q 676 694 595 770 q 758 479 758 619 l 758 274 q 676 61 758 135 q 442 -13 595 -13 m 442 101 q 585 144 538 101 q 631 274 631 187 l 631 479 q 585 613 631 569 q 442 657 538 657 q 299 613 346 657 q 253 479 253 569 l 253 274 q 299 144 253 187 q 442 101 346 101 z "},"ò":{"ha":884,"x_min":126,"x_max":758,"o":"m 442 -13 q 208 61 289 -13 q 126 274 126 135 l 126 479 q 208 694 126 619 q 443 770 290 770 q 676 694 595 770 q 758 479 758 619 l 758 274 q 676 61 758 135 q 442 -13 595 -13 m 442 101 q 585 144 538 101 q 631 274 631 187 l 631 479 q 585 613 631 569 q 442 657 538 657 q 299 613 346 657 q 253 479 253 569 l 253 274 q 299 144 253 187 q 442 101 346 101 m 443 884 l 197 1136 l 386 1136 l 558 884 l 443 884 z "},"ó":{"ha":884,"x_min":126,"x_max":758,"o":"m 442 -13 q 208 61 289 -13 q 126 274 126 135 l 126 479 q 208 694 126 619 q 443 770 290 770 q 676 694 595 770 q 758 479 758 619 l 758 274 q 676 61 758 135 q 442 -13 595 -13 m 442 101 q 585 144 538 101 q 631 274 631 187 l 631 479 q 585 613 631 569 q 442 657 538 657 q 299 613 346 657 q 253 479 253 569 l 253 274 q 299 144 253 187 q 442 101 346 101 m 298 884 l 470 1136 l 659 1136 l 413 884 l 298 884 z "},"ô":{"ha":884,"x_min":126,"x_max":758,"o":"m 442 -13 q 208 61 289 -13 q 126 274 126 135 l 126 479 q 208 694 126 619 q 443 770 290 770 q 676 694 595 770 q 758 479 758 619 l 758 274 q 676 61 758 135 q 442 -13 595 -13 m 442 101 q 585 144 538 101 q 631 274 631 187 l 631 479 q 585 613 631 569 q 442 657 538 657 q 299 613 346 657 q 253 479 253 569 l 253 274 q 299 144 253 187 q 442 101 346 101 m 223 889 l 176 970 l 395 1158 l 486 1158 l 708 970 l 660 889 l 441 1035 l 223 889 z "},"õ":{"ha":884,"x_min":126,"x_max":758,"o":"m 442 -13 q 208 61 289 -13 q 126 274 126 135 l 126 479 q 208 694 126 619 q 443 770 290 770 q 676 694 595 770 q 758 479 758 619 l 758 274 q 676 61 758 135 q 442 -13 595 -13 m 442 101 q 585 144 538 101 q 631 274 631 187 l 631 479 q 585 613 631 569 q 442 657 538 657 q 299 613 346 657 q 253 479 253 569 l 253 274 q 299 144 253 187 q 442 101 346 101 m 542 896 q 469 919 499 896 q 417 970 439 942 q 374 1019 394 996 q 332 1042 355 1042 q 290 1018 308 1042 q 274 923 273 995 l 274 909 l 177 909 l 177 928 q 220 1086 177 1023 q 342 1149 263 1149 q 421 1126 390 1149 q 473 1077 452 1104 q 513 1027 495 1049 q 552 1004 530 1004 q 593 1027 576 1004 q 610 1122 610 1051 l 610 1136 l 707 1136 l 707 1117 q 664 959 707 1021 q 542 896 621 896 z "},"ö":{"ha":884,"x_min":126,"x_max":758,"o":"m 442 -13 q 208 61 289 -13 q 126 274 126 135 l 126 479 q 208 694 126 619 q 443 770 290 770 q 676 694 595 770 q 758 479 758 619 l 758 274 q 676 61 758 135 q 442 -13 595 -13 m 442 101 q 585 144 538 101 q 631 274 631 187 l 631 479 q 585 613 631 569 q 442 657 538 657 q 299 613 346 657 q 253 479 253 569 l 253 274 q 299 144 253 187 q 442 101 346 101 m 297 896 q 237 912 260 896 q 215 968 215 927 l 215 977 q 237 1036 215 1020 q 297 1052 260 1052 q 356 1036 333 1052 q 379 977 379 1020 l 379 968 q 355 912 379 927 q 297 896 332 896 m 587 896 q 528 912 551 896 q 505 968 505 927 l 505 977 q 528 1036 505 1020 q 587 1052 551 1052 q 646 1036 624 1052 q 669 977 669 1020 l 669 968 q 646 912 669 927 q 587 896 622 896 z "},"ō":{"ha":884,"x_min":126,"x_max":758,"o":"m 442 -13 q 208 61 289 -13 q 126 274 126 135 l 126 479 q 208 694 126 619 q 443 770 290 770 q 676 694 595 770 q 758 479 758 619 l 758 274 q 676 61 758 135 q 442 -13 595 -13 m 442 101 q 585 144 538 101 q 631 274 631 187 l 631 479 q 585 613 631 569 q 442 657 538 657 q 299 613 346 657 q 253 479 253 569 l 253 274 q 299 144 253 187 q 442 101 346 101 m 189 953 l 189 1067 l 694 1067 l 694 953 l 189 953 z "},"ŏ":{"ha":884,"x_min":126,"x_max":758,"o":"m 442 -13 q 208 61 289 -13 q 126 274 126 135 l 126 479 q 208 694 126 619 q 443 770 290 770 q 676 694 595 770 q 758 479 758 619 l 758 274 q 676 61 758 135 q 442 -13 595 -13 m 442 101 q 585 144 538 101 q 631 274 631 187 l 631 479 q 585 613 631 569 q 442 657 538 657 q 299 613 346 657 q 253 479 253 569 l 253 274 q 299 144 253 187 q 442 101 346 101 m 442 875 q 235 934 319 875 q 149 1140 150 994 l 275 1140 q 318 1012 277 1049 q 442 975 359 975 q 566 1012 525 975 q 609 1140 607 1049 l 735 1140 q 649 934 734 994 q 442 875 564 875 z "},"ő":{"ha":884,"x_min":126,"x_max":760,"o":"m 442 -13 q 208 61 289 -13 q 126 274 126 135 l 126 479 q 208 694 126 619 q 443 770 290 770 q 676 694 595 770 q 758 479 758 619 l 758 274 q 676 61 758 135 q 442 -13 595 -13 m 442 101 q 585 144 538 101 q 631 274 631 187 l 631 479 q 585 613 631 569 q 442 657 538 657 q 299 613 346 657 q 253 479 253 569 l 253 274 q 299 144 253 187 q 442 101 346 101 m 513 884 l 583 1136 l 760 1136 l 602 884 l 513 884 m 222 884 l 293 1136 l 470 1136 l 312 884 l 222 884 z "},"p":{"ha":884,"x_min":126,"x_max":758,"o":"m 431 98 q 584 141 537 98 q 631 279 631 184 l 631 484 q 595 610 631 571 q 480 650 559 650 q 362 619 417 650 q 253 518 308 587 l 253 146 q 334 110 292 122 q 431 98 376 98 m 432 -13 q 342 -3 389 -13 q 253 23 294 6 l 253 -253 l 126 -253 l 126 758 l 253 758 l 253 631 l 290 631 q 382 733 322 696 q 511 770 442 770 q 691 693 625 770 q 758 482 758 615 l 758 277 q 670 65 758 143 q 432 -13 582 -13 z "},"q":{"ha":884,"x_min":126,"x_max":758,"o":"m 631 -253 l 631 126 l 593 126 q 503 23 559 58 q 372 -13 446 -13 q 189 62 253 -13 q 126 275 126 136 l 126 481 q 220 696 126 621 q 452 770 313 770 q 614 750 535 770 q 758 692 692 730 l 758 -253 l 631 -253 m 404 107 q 521 140 466 107 q 631 240 577 172 l 631 611 q 545 647 588 635 q 453 659 501 659 q 311 615 370 659 q 253 479 253 571 l 253 288 q 290 152 253 196 q 404 107 327 107 z "},"r":{"ha":884,"x_min":189,"x_max":764,"o":"m 189 0 l 189 758 l 316 758 l 316 631 l 354 631 q 434 737 380 703 q 566 770 489 770 q 707 714 650 770 q 764 556 764 658 l 764 442 l 644 442 l 644 510 q 612 616 644 582 q 514 650 580 650 q 406 621 455 650 q 316 530 357 592 l 316 0 l 189 0 z "},"ŕ":{"ha":884,"x_min":189,"x_max":764,"o":"m 189 0 l 189 758 l 316 758 l 316 631 l 354 631 q 434 737 380 703 q 566 770 489 770 q 707 714 650 770 q 764 556 764 658 l 764 442 l 644 442 l 644 510 q 612 616 644 582 q 514 650 580 650 q 406 621 455 650 q 316 530 357 592 l 316 0 l 189 0 m 348 884 l 520 1136 l 710 1136 l 463 884 l 348 884 z "},"ŗ":{"ha":884,"x_min":83,"x_max":764,"o":"m 189 0 l 189 758 l 316 758 l 316 631 l 354 631 q 434 737 380 703 q 566 770 489 770 q 707 714 650 770 q 764 556 764 658 l 764 442 l 644 442 l 644 510 q 612 616 644 582 q 514 650 580 650 q 406 621 455 650 q 316 530 357 592 l 316 0 l 189 0 m 83 -379 l 205 -126 l 394 -126 l 198 -379 l 83 -379 z "},"ř":{"ha":884,"x_min":189,"x_max":764,"o":"m 189 0 l 189 758 l 316 758 l 316 631 l 354 631 q 434 737 380 703 q 566 770 489 770 q 707 714 650 770 q 764 556 764 658 l 764 442 l 644 442 l 644 510 q 612 616 644 582 q 514 650 580 650 q 406 621 455 650 q 316 530 357 592 l 316 0 l 189 0 m 448 889 l 226 1077 l 274 1158 l 494 1011 l 711 1158 l 759 1077 l 539 889 l 448 889 z "},"s":{"ha":884,"x_min":101,"x_max":763,"o":"m 452 -13 q 266 16 356 -13 q 101 104 177 44 l 158 203 q 296 127 220 153 q 452 101 372 101 q 578 121 518 101 q 638 207 638 141 q 588 284 638 261 q 408 323 539 307 q 198 388 269 340 q 126 542 126 437 q 212 713 126 655 q 412 770 298 770 q 584 740 501 770 q 737 654 667 710 l 681 554 q 554 629 622 601 q 412 657 486 657 q 301 634 351 657 q 251 551 251 611 q 297 475 251 499 q 475 436 343 452 q 691 366 619 419 q 763 216 763 312 q 667 42 763 97 q 452 -13 571 -13 z "},"":{"ha":884,"x_min":101,"x_max":763,"o":"m 452 -13 q 266 16 356 -13 q 101 104 177 44 l 158 203 q 296 127 220 153 q 452 101 372 101 q 578 121 518 101 q 638 207 638 141 q 588 284 638 261 q 408 323 539 307 q 198 388 269 340 q 126 542 126 437 q 212 713 126 655 q 412 770 298 770 q 584 740 501 770 q 737 654 667 710 l 681 554 q 554 629 622 601 q 412 657 486 657 q 301 634 351 657 q 251 551 251 611 q 297 475 251 499 q 475 436 343 452 q 691 366 619 419 q 763 216 763 312 q 667 42 763 97 q 452 -13 571 -13 z "},"ś":{"ha":884,"x_min":101,"x_max":763,"o":"m 452 -13 q 266 16 356 -13 q 101 104 177 44 l 158 203 q 296 127 220 153 q 452 101 372 101 q 578 121 518 101 q 638 207 638 141 q 588 284 638 261 q 408 323 539 307 q 198 388 269 340 q 126 542 126 437 q 212 713 126 655 q 412 770 298 770 q 584 740 501 770 q 737 654 667 710 l 681 554 q 554 629 622 601 q 412 657 486 657 q 301 634 351 657 q 251 551 251 611 q 297 475 251 499 q 475 436 343 452 q 691 366 619 419 q 763 216 763 312 q 667 42 763 97 q 452 -13 571 -13 m 295 884 l 467 1136 l 657 1136 l 410 884 l 295 884 z "},"ŝ":{"ha":884,"x_min":101,"x_max":763,"o":"m 452 -13 q 266 16 356 -13 q 101 104 177 44 l 158 203 q 296 127 220 153 q 452 101 372 101 q 578 121 518 101 q 638 207 638 141 q 588 284 638 261 q 408 323 539 307 q 198 388 269 340 q 126 542 126 437 q 212 713 126 655 q 412 770 298 770 q 584 740 501 770 q 737 654 667 710 l 681 554 q 554 629 622 601 q 412 657 486 657 q 301 634 351 657 q 251 551 251 611 q 297 475 251 499 q 475 436 343 452 q 691 366 619 419 q 763 216 763 312 q 667 42 763 97 q 452 -13 571 -13 m 221 889 l 173 970 l 393 1158 l 484 1158 l 706 970 l 658 889 l 438 1035 l 221 889 z "},"ş":{"ha":884,"x_min":101,"x_max":763,"o":"m 452 -13 q 266 16 356 -13 q 101 104 177 44 l 158 203 q 296 127 220 153 q 452 101 372 101 q 578 121 518 101 q 638 207 638 141 q 588 284 638 261 q 408 323 539 307 q 198 388 269 340 q 126 542 126 437 q 212 713 126 655 q 412 770 298 770 q 584 740 501 770 q 737 654 667 710 l 681 554 q 554 629 622 601 q 412 657 486 657 q 301 634 351 657 q 251 551 251 611 q 297 475 251 499 q 475 436 343 452 q 691 366 619 419 q 763 216 763 312 q 667 42 763 97 q 452 -13 571 -13 m 402 0 l 427 53 q 533 6 482 43 q 583 -115 583 -32 q 527 -235 583 -197 q 399 -273 470 -273 q 263 -242 316 -273 q 206 -139 211 -211 l 317 -126 q 336 -160 319 -150 q 393 -169 354 -169 q 450 -153 431 -169 q 470 -95 470 -138 q 454 -31 470 -52 q 402 0 438 -10 z "},"š":{"ha":884,"x_min":101,"x_max":763,"o":"m 452 -13 q 266 16 356 -13 q 101 104 177 44 l 158 203 q 296 127 220 153 q 452 101 372 101 q 578 121 518 101 q 638 207 638 141 q 588 284 638 261 q 408 323 539 307 q 198 388 269 340 q 126 542 126 437 q 212 713 126 655 q 412 770 298 770 q 584 740 501 770 q 737 654 667 710 l 681 554 q 554 629 622 601 q 412 657 486 657 q 301 634 351 657 q 251 551 251 611 q 297 475 251 499 q 475 436 343 452 q 691 366 619 419 q 763 216 763 312 q 667 42 763 97 q 452 -13 571 -13 m 395 889 l 173 1077 l 221 1158 l 441 1011 l 658 1158 l 706 1077 l 486 889 l 395 889 z "},"ș":{"ha":884,"x_min":101,"x_max":763,"o":"m 452 -13 q 266 16 356 -13 q 101 104 177 44 l 158 203 q 296 127 220 153 q 452 101 372 101 q 578 121 518 101 q 638 207 638 141 q 588 284 638 261 q 408 323 539 307 q 198 388 269 340 q 126 542 126 437 q 212 713 126 655 q 412 770 298 770 q 584 740 501 770 q 737 654 667 710 l 681 554 q 554 629 622 601 q 412 657 486 657 q 301 634 351 657 q 251 551 251 611 q 297 475 251 499 q 475 436 343 452 q 691 366 619 419 q 763 216 763 312 q 667 42 763 97 q 452 -13 571 -13 m 247 -379 l 369 -126 l 558 -126 l 362 -379 l 247 -379 z "},"t":{"ha":884,"x_min":88,"x_max":769,"o":"m 567 -11 q 372 51 442 -11 q 303 240 303 112 l 303 644 l 88 644 l 88 758 l 303 758 l 303 1010 l 429 1010 l 429 758 l 758 758 l 758 644 l 429 644 l 429 251 q 466 143 429 178 q 574 107 503 107 q 664 114 622 107 q 744 133 706 121 l 769 18 q 677 -3 726 5 q 567 -11 629 -11 z "},"ţ":{"ha":884,"x_min":88,"x_max":769,"o":"m 567 -11 q 372 51 442 -11 q 303 240 303 112 l 303 644 l 88 644 l 88 758 l 303 758 l 303 1010 l 429 1010 l 429 758 l 758 758 l 758 644 l 429 644 l 429 251 q 466 143 429 178 q 574 107 503 107 q 664 114 622 107 q 744 133 706 121 l 769 18 q 677 -3 726 5 q 567 -11 629 -11 m 486 0 l 511 53 q 617 6 567 43 q 668 -115 668 -32 q 611 -235 668 -197 q 484 -273 554 -273 q 348 -242 400 -273 q 290 -139 295 -211 l 402 -126 q 421 -160 404 -150 q 477 -169 438 -169 q 535 -153 515 -169 q 554 -95 554 -138 q 539 -31 554 -52 q 486 0 523 -10 z "},"ť":{"ha":884,"x_min":88,"x_max":838,"o":"m 567 -11 q 372 51 442 -11 q 303 240 303 112 l 303 644 l 88 644 l 88 758 l 303 758 l 303 1010 l 429 1010 l 429 758 l 758 758 l 758 644 l 429 644 l 429 251 q 466 143 429 178 q 574 107 503 107 q 664 114 622 107 q 744 133 706 121 l 769 18 q 677 -3 726 5 q 567 -11 629 -11 m 551 890 l 653 1263 l 838 1263 l 641 890 l 551 890 z "},"ț":{"ha":884,"x_min":88,"x_max":769,"o":"m 567 -11 q 372 51 442 -11 q 303 240 303 112 l 303 644 l 88 644 l 88 758 l 303 758 l 303 1010 l 429 1010 l 429 758 l 758 758 l 758 644 l 429 644 l 429 251 q 466 143 429 178 q 574 107 503 107 q 664 114 622 107 q 744 133 706 121 l 769 18 q 677 -3 726 5 q 567 -11 629 -11 m 273 -379 l 394 -126 l 583 -126 l 388 -379 l 273 -379 z "},"u":{"ha":884,"x_min":126,"x_max":758,"o":"m 371 -13 q 194 59 261 -13 q 126 246 126 130 l 126 758 l 253 758 l 253 271 q 289 148 253 188 q 402 107 326 107 q 517 140 461 107 q 631 240 573 172 l 631 758 l 758 758 l 758 0 l 631 0 l 631 126 l 593 126 q 506 26 567 64 q 371 -13 444 -13 z "},"ù":{"ha":884,"x_min":126,"x_max":758,"o":"m 371 -13 q 194 59 261 -13 q 126 246 126 130 l 126 758 l 253 758 l 253 271 q 289 148 253 188 q 402 107 326 107 q 517 140 461 107 q 631 240 573 172 l 631 758 l 758 758 l 758 0 l 631 0 l 631 126 l 593 126 q 506 26 567 64 q 371 -13 444 -13 m 405 884 l 159 1136 l 348 1136 l 520 884 l 405 884 z "},"ú":{"ha":884,"x_min":126,"x_max":758,"o":"m 371 -13 q 194 59 261 -13 q 126 246 126 130 l 126 758 l 253 758 l 253 271 q 289 148 253 188 q 402 107 326 107 q 517 140 461 107 q 631 240 573 172 l 631 758 l 758 758 l 758 0 l 631 0 l 631 126 l 593 126 q 506 26 567 64 q 371 -13 444 -13 m 348 884 l 520 1136 l 710 1136 l 463 884 l 348 884 z "},"û":{"ha":884,"x_min":126,"x_max":758,"o":"m 371 -13 q 194 59 261 -13 q 126 246 126 130 l 126 758 l 253 758 l 253 271 q 289 148 253 188 q 402 107 326 107 q 517 140 461 107 q 631 240 573 172 l 631 758 l 758 758 l 758 0 l 631 0 l 631 126 l 593 126 q 506 26 567 64 q 371 -13 444 -13 m 223 889 l 176 970 l 395 1158 l 486 1158 l 708 970 l 660 889 l 441 1035 l 223 889 z "},"ü":{"ha":884,"x_min":126,"x_max":758,"o":"m 371 -13 q 194 59 261 -13 q 126 246 126 130 l 126 758 l 253 758 l 253 271 q 289 148 253 188 q 402 107 326 107 q 517 140 461 107 q 631 240 573 172 l 631 758 l 758 758 l 758 0 l 631 0 l 631 126 l 593 126 q 506 26 567 64 q 371 -13 444 -13 m 297 896 q 237 912 260 896 q 215 968 215 927 l 215 977 q 237 1036 215 1020 q 297 1052 260 1052 q 356 1036 333 1052 q 379 977 379 1020 l 379 968 q 355 912 379 927 q 297 896 332 896 m 587 896 q 528 912 551 896 q 505 968 505 927 l 505 977 q 528 1036 505 1020 q 587 1052 551 1052 q 646 1036 624 1052 q 669 977 669 1020 l 669 968 q 646 912 669 927 q 587 896 622 896 z "},"ũ":{"ha":884,"x_min":126,"x_max":758,"o":"m 371 -13 q 194 59 261 -13 q 126 246 126 130 l 126 758 l 253 758 l 253 271 q 289 148 253 188 q 402 107 326 107 q 517 140 461 107 q 631 240 573 172 l 631 758 l 758 758 l 758 0 l 631 0 l 631 126 l 593 126 q 506 26 567 64 q 371 -13 444 -13 m 542 896 q 469 919 499 896 q 417 970 439 942 q 374 1019 394 996 q 332 1042 355 1042 q 290 1018 308 1042 q 274 923 273 995 l 274 909 l 177 909 l 177 928 q 220 1086 177 1023 q 342 1149 263 1149 q 421 1126 390 1149 q 473 1077 452 1104 q 513 1027 495 1049 q 552 1004 530 1004 q 593 1027 576 1004 q 610 1122 610 1051 l 610 1136 l 707 1136 l 707 1117 q 664 959 707 1021 q 542 896 621 896 z "},"ū":{"ha":884,"x_min":126,"x_max":758,"o":"m 371 -13 q 194 59 261 -13 q 126 246 126 130 l 126 758 l 253 758 l 253 271 q 289 148 253 188 q 402 107 326 107 q 517 140 461 107 q 631 240 573 172 l 631 758 l 758 758 l 758 0 l 631 0 l 631 126 l 593 126 q 506 26 567 64 q 371 -13 444 -13 m 189 953 l 189 1067 l 694 1067 l 694 953 l 189 953 z "},"ŭ":{"ha":884,"x_min":126,"x_max":758,"o":"m 371 -13 q 194 59 261 -13 q 126 246 126 130 l 126 758 l 253 758 l 253 271 q 289 148 253 188 q 402 107 326 107 q 517 140 461 107 q 631 240 573 172 l 631 758 l 758 758 l 758 0 l 631 0 l 631 126 l 593 126 q 506 26 567 64 q 371 -13 444 -13 m 442 875 q 235 934 319 875 q 149 1140 150 994 l 275 1140 q 318 1012 277 1049 q 442 975 359 975 q 566 1012 525 975 q 609 1140 607 1049 l 735 1140 q 649 934 734 994 q 442 875 564 875 z "},"ů":{"ha":884,"x_min":126,"x_max":758,"o":"m 371 -13 q 194 59 261 -13 q 126 246 126 130 l 126 758 l 253 758 l 253 271 q 289 148 253 188 q 402 107 326 107 q 517 140 461 107 q 631 240 573 172 l 631 758 l 758 758 l 758 0 l 631 0 l 631 126 l 593 126 q 506 26 567 64 q 371 -13 444 -13 m 442 865 q 295 910 351 865 q 240 1048 240 955 l 240 1088 q 295 1229 240 1183 q 442 1275 351 1275 q 588 1229 533 1275 q 644 1088 644 1183 l 644 1048 q 588 910 644 955 q 442 865 533 865 m 442 955 q 519 976 492 955 q 545 1048 545 997 l 545 1088 q 519 1162 545 1139 q 442 1186 492 1186 q 364 1162 390 1186 q 338 1088 338 1139 l 338 1048 q 364 976 338 997 q 442 955 390 955 z "},"ű":{"ha":884,"x_min":126,"x_max":785,"o":"m 371 -13 q 194 59 261 -13 q 126 246 126 130 l 126 758 l 253 758 l 253 271 q 289 148 253 188 q 402 107 326 107 q 517 140 461 107 q 631 240 573 172 l 631 758 l 758 758 l 758 0 l 631 0 l 631 126 l 593 126 q 506 26 567 64 q 371 -13 444 -13 m 538 884 l 609 1136 l 785 1136 l 628 884 l 538 884 m 247 884 l 318 1136 l 495 1136 l 337 884 l 247 884 z "},"ų":{"ha":884,"x_min":126,"x_max":865,"o":"m 371 -13 q 194 59 261 -13 q 126 246 126 130 l 126 758 l 253 758 l 253 271 q 289 148 253 188 q 402 107 326 107 q 517 140 461 107 q 631 240 573 172 l 631 758 l 758 758 l 758 0 l 631 0 l 631 126 l 593 126 q 506 26 567 64 q 371 -13 444 -13 m 739 -271 q 604 -232 659 -271 q 549 -121 549 -192 q 597 -11 549 -59 q 703 59 645 37 l 737 29 q 679 -29 694 3 q 663 -86 663 -61 q 686 -140 663 -121 q 753 -158 710 -158 q 810 -154 775 -158 q 865 -145 845 -150 l 865 -259 q 804 -268 841 -264 q 739 -271 768 -271 z "},"v":{"ha":884,"x_min":93,"x_max":789,"o":"m 520 0 l 362 0 l 93 758 l 231 758 l 443 102 l 655 758 l 789 758 l 520 0 z "},"w":{"ha":884,"x_min":49,"x_max":835,"o":"m 553 0 l 442 494 l 336 0 l 192 0 l 49 758 l 170 758 l 266 92 l 365 631 l 514 631 l 621 112 l 713 758 l 835 758 l 692 0 l 553 0 z "},"":{"ha":884,"x_min":49,"x_max":835,"o":"m 553 0 l 442 494 l 336 0 l 192 0 l 49 758 l 170 758 l 266 92 l 365 631 l 514 631 l 621 112 l 713 758 l 835 758 l 692 0 l 553 0 z "},"ŵ":{"ha":884,"x_min":49,"x_max":835,"o":"m 553 0 l 442 494 l 336 0 l 192 0 l 49 758 l 170 758 l 266 92 l 365 631 l 514 631 l 621 112 l 713 758 l 835 758 l 692 0 l 553 0 m 223 889 l 176 970 l 395 1158 l 486 1158 l 708 970 l 660 889 l 441 1035 l 223 889 z "},"ẁ":{"ha":884,"x_min":49,"x_max":835,"o":"m 553 0 l 442 494 l 336 0 l 192 0 l 49 758 l 170 758 l 266 92 l 365 631 l 514 631 l 621 112 l 713 758 l 835 758 l 692 0 l 553 0 m 443 884 l 197 1136 l 386 1136 l 558 884 l 443 884 z "},"ẃ":{"ha":884,"x_min":49,"x_max":835,"o":"m 553 0 l 442 494 l 336 0 l 192 0 l 49 758 l 170 758 l 266 92 l 365 631 l 514 631 l 621 112 l 713 758 l 835 758 l 692 0 l 553 0 m 298 884 l 470 1136 l 659 1136 l 413 884 l 298 884 z "},"ẅ":{"ha":884,"x_min":49,"x_max":835,"o":"m 553 0 l 442 494 l 336 0 l 192 0 l 49 758 l 170 758 l 266 92 l 365 631 l 514 631 l 621 112 l 713 758 l 835 758 l 692 0 l 553 0 m 297 896 q 237 912 260 896 q 215 968 215 927 l 215 977 q 237 1036 215 1020 q 297 1052 260 1052 q 356 1036 333 1052 q 379 977 379 1020 l 379 968 q 355 912 379 927 q 297 896 332 896 m 587 896 q 528 912 551 896 q 505 968 505 927 l 505 977 q 528 1036 505 1020 q 587 1052 551 1052 q 646 1036 624 1052 q 669 977 669 1020 l 669 968 q 646 912 669 927 q 587 896 622 896 z "},"x":{"ha":884,"x_min":107,"x_max":777,"o":"m 630 0 l 434 289 l 247 0 l 107 0 l 372 380 l 116 758 l 258 758 l 446 480 l 636 758 l 777 758 l 509 386 l 771 0 l 630 0 z "},"y":{"ha":884,"x_min":93,"x_max":789,"o":"m 217 -260 q 158 -256 187 -260 q 98 -246 129 -253 l 120 -134 q 181 -145 153 -141 q 234 -149 210 -149 q 336 -116 292 -149 q 405 -11 381 -83 l 409 0 l 362 0 l 93 758 l 231 758 l 444 106 l 657 758 l 789 758 l 511 -25 q 395 -204 468 -148 q 217 -260 321 -260 z "},"":{"ha":884,"x_min":93,"x_max":789,"o":"m 217 -260 q 158 -256 187 -260 q 98 -246 129 -253 l 120 -134 q 181 -145 153 -141 q 234 -149 210 -149 q 336 -116 292 -149 q 405 -11 381 -83 l 409 0 l 362 0 l 93 758 l 231 758 l 444 106 l 657 758 l 789 758 l 511 -25 q 395 -204 468 -148 q 217 -260 321 -260 z "},"ý":{"ha":884,"x_min":93,"x_max":789,"o":"m 217 -260 q 158 -256 187 -260 q 98 -246 129 -253 l 120 -134 q 181 -145 153 -141 q 234 -149 210 -149 q 336 -116 292 -149 q 405 -11 381 -83 l 409 0 l 362 0 l 93 758 l 231 758 l 444 106 l 657 758 l 789 758 l 511 -25 q 395 -204 468 -148 q 217 -260 321 -260 m 298 884 l 470 1136 l 659 1136 l 413 884 l 298 884 z "},"ÿ":{"ha":884,"x_min":93,"x_max":789,"o":"m 217 -260 q 158 -256 187 -260 q 98 -246 129 -253 l 120 -134 q 181 -145 153 -141 q 234 -149 210 -149 q 336 -116 292 -149 q 405 -11 381 -83 l 409 0 l 362 0 l 93 758 l 231 758 l 444 106 l 657 758 l 789 758 l 511 -25 q 395 -204 468 -148 q 217 -260 321 -260 m 297 896 q 237 912 260 896 q 215 968 215 927 l 215 977 q 237 1036 215 1020 q 297 1052 260 1052 q 356 1036 333 1052 q 379 977 379 1020 l 379 968 q 355 912 379 927 q 297 896 332 896 m 587 896 q 528 912 551 896 q 505 968 505 927 l 505 977 q 528 1036 505 1020 q 587 1052 551 1052 q 646 1036 624 1052 q 669 977 669 1020 l 669 968 q 646 912 669 927 q 587 896 622 896 z "},"ŷ":{"ha":884,"x_min":93,"x_max":789,"o":"m 217 -260 q 158 -256 187 -260 q 98 -246 129 -253 l 120 -134 q 181 -145 153 -141 q 234 -149 210 -149 q 336 -116 292 -149 q 405 -11 381 -83 l 409 0 l 362 0 l 93 758 l 231 758 l 444 106 l 657 758 l 789 758 l 511 -25 q 395 -204 468 -148 q 217 -260 321 -260 m 223 889 l 176 970 l 395 1158 l 486 1158 l 708 970 l 660 889 l 441 1035 l 223 889 z "},"ỳ":{"ha":884,"x_min":93,"x_max":789,"o":"m 217 -260 q 158 -256 187 -260 q 98 -246 129 -253 l 120 -134 q 181 -145 153 -141 q 234 -149 210 -149 q 336 -116 292 -149 q 405 -11 381 -83 l 409 0 l 362 0 l 93 758 l 231 758 l 444 106 l 657 758 l 789 758 l 511 -25 q 395 -204 468 -148 q 217 -260 321 -260 m 443 884 l 197 1136 l 386 1136 l 558 884 l 443 884 z "},"z":{"ha":884,"x_min":152,"x_max":732,"o":"m 732 0 l 152 0 l 152 114 l 577 644 l 152 644 l 152 758 l 732 758 l 732 644 l 307 114 l 732 114 l 732 0 z "},"ź":{"ha":884,"x_min":152,"x_max":732,"o":"m 732 0 l 152 0 l 152 114 l 577 644 l 152 644 l 152 758 l 732 758 l 732 644 l 307 114 l 732 114 l 732 0 m 298 884 l 470 1136 l 659 1136 l 413 884 l 298 884 z "},"ż":{"ha":884,"x_min":152,"x_max":732,"o":"m 732 0 l 152 0 l 152 114 l 577 644 l 152 644 l 152 758 l 732 758 l 732 644 l 307 114 l 732 114 l 732 0 m 442 896 q 364 912 394 896 q 335 968 335 927 l 335 977 q 364 1036 335 1020 q 442 1052 394 1052 q 520 1036 490 1052 q 549 977 549 1020 l 549 968 q 519 912 549 927 q 442 896 489 896 z "},"ž":{"ha":884,"x_min":152,"x_max":732,"o":"m 732 0 l 152 0 l 152 114 l 577 644 l 152 644 l 152 758 l 732 758 l 732 644 l 307 114 l 732 114 l 732 0 m 398 889 l 176 1077 l 223 1158 l 443 1011 l 660 1158 l 708 1077 l 489 889 l 398 889 z "},"ª":{"ha":884,"x_min":140,"x_max":758,"o":"m 366 499 q 456 520 415 499 q 530 588 497 540 l 530 658 l 357 658 q 280 641 311 658 q 249 580 249 624 q 275 520 249 540 q 366 499 302 499 m 341 405 q 201 445 263 405 q 140 573 140 485 q 195 696 140 652 q 326 741 250 741 l 530 741 l 530 812 q 498 896 530 864 q 402 929 466 929 q 302 910 336 929 q 249 824 269 891 l 154 851 q 229 979 170 934 q 399 1023 287 1023 q 569 974 501 1023 q 638 824 638 926 l 638 590 q 664 516 638 529 q 758 511 691 504 l 758 412 q 634 424 686 407 q 578 524 583 441 l 557 524 q 470 439 528 473 q 341 405 413 405 z "},"º":{"ha":884,"x_min":170,"x_max":712,"o":"m 442 405 q 246 463 321 405 q 170 639 170 520 l 170 783 q 246 963 170 904 q 442 1023 321 1023 q 638 963 563 1023 q 712 783 712 904 l 712 639 q 638 463 712 520 q 442 405 563 405 m 442 503 q 563 535 523 503 q 604 639 604 567 l 604 783 q 563 890 604 855 q 442 924 523 924 q 320 890 361 924 q 279 783 279 855 l 279 639 q 320 535 279 567 q 442 503 361 503 z "},"ß":{"ha":884,"x_min":63,"x_max":860,"o":"m 577 -8 q 423 21 497 -8 q 298 102 348 49 l 367 202 q 468 134 410 163 q 588 106 525 106 q 689 128 644 106 q 734 207 734 150 q 694 289 734 266 q 571 327 654 312 q 374 404 438 351 q 311 543 311 457 q 390 704 311 643 q 583 766 470 765 q 517 869 572 838 q 385 899 462 899 q 250 856 311 899 q 189 711 189 813 l 189 0 l 63 0 l 63 727 q 161 948 63 876 q 386 1020 259 1020 q 622 939 533 1020 q 711 730 711 857 l 711 672 q 511 648 587 672 q 436 557 436 625 q 486 481 436 503 q 630 443 537 460 q 804 367 747 423 q 860 218 860 312 q 773 45 860 98 q 577 -8 687 -8 z "},"æ":{"ha":884,"x_min":38,"x_max":847,"o":"m 847 182 q 783 35 835 82 q 626 -13 732 -13 q 505 15 556 -13 q 429 101 455 43 l 409 101 q 337 20 380 52 q 225 -13 294 -13 q 98 39 159 -13 q 38 203 38 90 q 97 360 38 304 q 236 417 157 417 l 391 417 l 391 525 q 361 630 391 591 q 273 669 331 669 q 197 646 220 669 q 153 548 174 624 l 54 578 q 125 720 72 669 q 283 770 178 770 q 377 749 335 770 q 446 686 419 729 q 516 749 473 729 q 614 770 559 770 q 783 708 720 770 q 846 514 846 645 l 846 354 l 492 354 l 492 230 q 521 117 492 152 q 612 82 551 82 q 699 105 674 82 q 735 192 725 128 l 847 182 m 492 523 l 492 436 l 732 436 l 732 511 q 703 636 732 597 q 612 676 673 676 q 523 638 554 676 q 492 523 492 601 m 391 176 l 391 335 l 271 335 q 186 307 220 335 q 152 211 152 280 q 174 117 152 150 q 250 83 196 83 q 326 108 293 83 q 391 176 360 133 z "},"ǽ":{"ha":884,"x_min":38,"x_max":847,"o":"m 847 182 q 783 35 835 82 q 626 -13 732 -13 q 505 15 556 -13 q 429 101 455 43 l 409 101 q 337 20 380 52 q 225 -13 294 -13 q 98 39 159 -13 q 38 203 38 90 q 97 360 38 304 q 236 417 157 417 l 391 417 l 391 525 q 361 630 391 591 q 273 669 331 669 q 197 646 220 669 q 153 548 174 624 l 54 578 q 125 720 72 669 q 283 770 178 770 q 377 749 335 770 q 446 686 419 729 q 516 749 473 729 q 614 770 559 770 q 783 708 720 770 q 846 514 846 645 l 846 354 l 492 354 l 492 230 q 521 117 492 152 q 612 82 551 82 q 699 105 674 82 q 735 192 725 128 l 847 182 m 492 523 l 492 436 l 732 436 l 732 511 q 703 636 732 597 q 612 676 673 676 q 523 638 554 676 q 492 523 492 601 m 391 176 l 391 335 l 271 335 q 186 307 220 335 q 152 211 152 280 q 174 117 152 150 q 250 83 196 83 q 326 108 293 83 q 391 176 360 133 m 362 884 l 534 1136 l 723 1136 l 477 884 l 362 884 z "},"ð":{"ha":884,"x_min":126,"x_max":821,"o":"m 442 -13 q 213 59 301 -13 q 126 278 126 131 l 126 369 q 206 561 126 490 q 414 631 287 631 q 544 604 494 631 q 615 538 595 576 l 643 538 q 617 682 638 619 q 559 792 597 745 l 316 682 l 316 783 l 485 859 q 388 909 443 886 q 264 949 332 932 l 297 1037 q 463 979 391 1011 q 587 905 535 946 l 821 1010 l 821 909 l 658 836 q 735 679 712 768 q 758 476 758 590 l 758 285 q 670 59 758 130 q 442 -13 583 -13 m 443 101 q 588 145 545 101 q 631 275 631 188 l 631 355 q 588 476 631 436 q 443 516 545 516 q 298 476 341 516 q 255 355 255 436 l 255 275 q 298 145 255 188 q 443 101 341 101 z "},"ø":{"ha":884,"x_min":126,"x_max":758,"o":"m 253 274 q 260 208 253 237 q 283 159 268 179 l 525 646 q 487 654 508 652 q 442 657 466 657 q 298 614 343 657 q 253 479 253 571 l 253 274 m 442 101 q 586 143 540 101 q 631 274 631 184 l 631 479 q 624 546 631 516 q 601 596 616 576 l 357 111 q 396 104 375 106 q 442 101 418 101 m 442 -13 q 376 -9 408 -13 q 317 4 345 -5 l 253 -126 l 126 -126 l 217 54 q 150 145 174 90 q 126 274 126 199 l 126 479 q 214 698 126 626 q 443 770 302 770 q 508 766 477 770 q 567 754 539 763 l 631 884 l 758 884 l 667 703 q 734 611 710 668 q 758 479 758 554 l 758 274 q 670 57 758 128 q 442 -13 583 -13 z "},"ǿ":{"ha":884,"x_min":126,"x_max":758,"o":"m 253 274 q 260 208 253 237 q 283 159 268 179 l 525 646 q 487 654 508 652 q 442 657 466 657 q 298 614 343 657 q 253 479 253 571 l 253 274 m 442 101 q 586 143 540 101 q 631 274 631 184 l 631 479 q 624 546 631 516 q 601 596 616 576 l 357 111 q 396 104 375 106 q 442 101 418 101 m 442 -13 q 376 -9 408 -13 q 317 4 345 -5 l 253 -126 l 126 -126 l 217 54 q 150 145 174 90 q 126 274 126 199 l 126 479 q 214 698 126 626 q 443 770 302 770 q 508 766 477 770 q 567 754 539 763 l 631 884 l 758 884 l 667 703 q 734 611 710 668 q 758 479 758 554 l 758 274 q 670 57 758 128 q 442 -13 583 -13 m 298 884 l 470 1136 l 659 1136 l 413 884 l 298 884 z "},"þ":{"ha":884,"x_min":126,"x_max":758,"o":"m 431 98 q 583 142 534 98 q 631 279 631 186 l 631 484 q 595 610 631 571 q 480 650 558 650 q 362 618 418 650 q 253 518 307 586 l 253 146 q 337 110 294 122 q 431 98 380 98 m 432 -13 q 340 -3 388 -13 q 253 23 292 6 l 253 -253 l 126 -253 l 126 1010 l 253 1010 l 253 631 l 290 631 q 382 733 322 696 q 511 770 442 770 q 691 693 625 770 q 758 482 758 615 l 758 277 q 670 66 758 144 q 432 -13 582 -13 z "},"đ":{"ha":884,"x_min":126,"x_max":884,"o":"m 404 107 q 521 140 466 107 q 631 240 577 172 l 631 548 q 549 584 592 572 q 453 596 506 596 q 303 552 351 596 q 255 415 255 509 l 255 288 q 291 151 255 194 q 404 107 327 107 m 593 126 q 502 25 562 62 q 372 -13 442 -13 q 193 65 259 -13 q 126 275 126 143 l 126 418 q 214 629 126 551 q 452 707 302 707 q 542 697 495 707 q 631 670 590 687 l 631 795 l 379 795 l 379 896 l 631 896 l 631 1010 l 758 1010 l 758 896 l 884 896 l 884 795 l 758 795 l 758 0 l 631 0 l 631 126 l 593 126 z "},"ħ":{"ha":884,"x_min":0,"x_max":758,"o":"m 253 455 l 253 0 l 126 0 l 126 795 l 0 795 l 0 896 l 126 896 l 126 1010 l 253 1010 l 253 896 l 505 896 l 505 795 l 253 795 l 253 568 l 290 568 q 381 670 318 633 q 523 707 443 707 q 694 645 631 707 q 758 477 758 583 l 758 0 l 631 0 l 631 447 q 595 552 631 518 q 482 587 558 587 q 367 554 424 587 q 253 455 311 521 z "},"ı":{"ha":884,"x_min":126,"x_max":758,"o":"m 126 0 l 126 114 l 379 114 l 379 644 l 126 644 l 126 758 l 505 758 l 505 114 l 758 114 l 758 0 l 126 0 z "},"ĳ":{"ha":884,"x_min":107,"x_max":798,"o":"m 215 896 q 137 912 167 896 q 107 968 107 927 l 107 977 q 137 1036 107 1020 q 215 1052 167 1052 q 292 1036 263 1052 q 322 977 322 1020 l 322 968 q 292 912 322 927 q 215 896 261 896 m 691 896 q 613 912 643 896 q 583 968 583 927 l 583 977 q 613 1036 583 1020 q 691 1052 643 1052 q 768 1036 739 1052 q 798 977 798 1020 l 798 968 q 768 912 798 927 q 691 896 737 896 m 278 0 l 152 0 l 152 758 l 278 758 l 278 0 m 477 -263 q 393 -256 434 -263 q 304 -235 352 -250 l 330 -114 q 404 -135 370 -129 q 473 -141 438 -141 q 588 -107 544 -141 q 631 9 631 -72 l 631 644 l 467 644 l 467 758 l 758 758 l 758 -8 q 677 -200 758 -138 q 477 -263 597 -263 z "},"ĸ":{"ha":884,"x_min":189,"x_max":777,"o":"m 316 345 l 316 0 l 189 0 l 189 758 l 316 758 l 316 451 l 380 451 l 622 758 l 777 758 l 480 405 l 773 0 l 629 0 l 380 345 l 316 345 z "},"ŀ":{"ha":884,"x_min":126,"x_max":953,"o":"m 126 0 l 126 114 l 379 114 l 379 896 l 126 896 l 126 1010 l 505 1010 l 505 114 l 758 114 l 758 0 l 126 0 m 846 391 q 768 407 798 391 q 739 463 739 422 l 739 472 q 768 531 739 515 q 846 547 798 547 q 924 531 894 547 q 953 472 953 515 l 953 463 q 923 407 953 422 q 846 391 893 391 z "},"ł":{"ha":884,"x_min":126,"x_max":758,"o":"m 126 0 l 126 114 l 379 114 l 379 443 l 189 391 l 189 492 l 379 544 l 379 896 l 126 896 l 126 1010 l 505 1010 l 505 578 l 694 631 l 694 530 l 505 477 l 505 114 l 758 114 l 758 0 l 126 0 z "},"ŉ":{"ha":884,"x_min":-18,"x_max":758,"o":"m 126 0 l 126 758 l 253 758 l 253 631 l 290 631 q 378 733 318 696 q 513 770 437 770 q 692 701 626 770 q 758 511 758 631 l 758 0 l 631 0 l 631 486 q 593 608 631 566 q 482 650 554 650 q 367 616 426 650 q 253 518 308 582 l 253 0 l 126 0 m -18 884 l 154 1136 l 343 1136 l 97 884 l -18 884 z "},"ŋ":{"ha":884,"x_min":126,"x_max":758,"o":"m 503 -263 q 426 -255 466 -263 q 342 -235 385 -247 l 367 -114 q 436 -134 403 -126 q 499 -141 470 -141 q 595 -107 558 -141 q 631 9 631 -72 l 631 510 q 595 616 631 581 q 482 650 558 650 q 367 617 424 650 q 253 518 311 585 l 253 0 l 126 0 l 126 758 l 253 758 l 253 631 l 290 631 q 381 733 318 696 q 523 770 443 770 q 694 708 631 770 q 758 540 758 646 l 758 -8 q 685 -200 758 -138 q 503 -263 612 -263 z "},"œ":{"ha":884,"x_min":38,"x_max":847,"o":"m 847 169 q 783 32 835 76 q 626 -13 732 -13 q 513 11 561 -13 q 438 85 465 35 q 363 11 409 35 q 259 -13 317 -13 q 99 57 160 -13 q 38 274 38 128 l 38 479 q 100 698 38 626 q 260 770 162 770 q 364 746 318 770 q 437 673 409 722 q 510 746 465 722 q 614 770 556 770 q 783 708 720 770 q 846 514 846 645 l 846 354 l 492 354 l 492 230 q 521 117 492 152 q 612 82 551 82 q 700 102 674 82 q 735 179 726 121 l 847 169 m 492 523 l 492 436 l 732 436 l 732 511 q 703 636 732 597 q 612 676 673 676 q 523 638 553 676 q 492 523 492 601 m 271 88 q 362 132 332 88 q 391 274 391 176 l 391 479 q 362 623 391 577 q 271 669 332 669 q 182 623 212 669 q 152 479 152 577 l 152 274 q 182 132 152 176 q 271 88 212 88 z "},"ŧ":{"ha":884,"x_min":88,"x_max":769,"o":"m 567 -11 q 372 51 442 -11 q 303 240 303 112 l 303 354 l 139 354 l 139 467 l 303 467 l 303 644 l 88 644 l 88 758 l 303 758 l 303 1010 l 429 1010 l 429 758 l 758 758 l 758 644 l 429 644 l 429 467 l 720 467 l 720 354 l 429 354 l 429 251 q 466 143 429 178 q 574 107 503 107 q 664 114 622 107 q 744 133 706 121 l 769 18 q 677 -3 726 5 q 567 -11 629 -11 z "},"ſ":{"ha":884,"x_min":227,"x_max":769,"o":"m 379 0 l 379 644 l 227 644 l 227 758 l 379 758 l 379 808 q 447 967 379 910 q 607 1023 515 1023 q 691 1013 644 1023 q 769 990 737 1003 l 744 884 q 685 902 717 894 q 620 909 653 909 q 536 886 567 909 q 505 809 505 862 l 505 0 l 379 0 z "},"ȷ":{"ha":884,"x_min":128,"x_max":631,"o":"m 326 -263 q 230 -257 278 -263 q 128 -235 182 -251 l 153 -114 q 241 -136 199 -130 q 322 -141 282 -141 q 455 -107 404 -141 q 505 9 505 -72 l 505 644 l 152 644 l 152 758 l 631 758 l 631 -8 q 544 -200 631 -138 q 326 -263 456 -263 z "},"":{"ha":884,"x_min":128,"x_max":631,"o":"m 326 -263 q 230 -257 278 -263 q 128 -235 182 -251 l 153 -114 q 241 -136 199 -130 q 322 -141 282 -141 q 455 -107 404 -141 q 505 9 505 -72 l 505 644 l 152 644 l 152 758 l 631 758 l 631 -8 q 544 -200 631 -138 q 326 -263 456 -263 z "},"α":{"ha":884,"x_min":114,"x_max":846,"o":"m 379 107 q 491 141 441 107 q 593 240 540 174 l 593 518 q 491 617 540 583 q 379 650 441 650 q 277 605 311 650 q 242 470 242 561 l 242 288 q 277 153 242 198 q 379 107 311 107 m 619 139 l 581 139 q 485 27 545 67 q 347 -13 426 -13 q 177 62 241 -13 q 114 275 114 138 l 114 482 q 177 694 114 619 q 347 770 241 770 q 470 733 417 770 q 556 631 524 696 l 593 631 l 593 758 l 720 758 l 720 202 q 751 117 720 134 q 846 112 783 101 l 846 -4 q 686 15 745 -16 q 619 139 626 45 z "},"ά":{"ha":884,"x_min":114,"x_max":846,"o":"m 379 107 q 491 141 441 107 q 593 240 540 174 l 593 518 q 491 617 540 583 q 379 650 441 650 q 277 605 311 650 q 242 470 242 561 l 242 288 q 277 153 242 198 q 379 107 311 107 m 619 139 l 581 139 q 485 27 545 67 q 347 -13 426 -13 q 177 62 241 -13 q 114 275 114 138 l 114 482 q 177 694 114 619 q 347 770 241 770 q 470 733 417 770 q 556 631 524 696 l 593 631 l 593 758 l 720 758 l 720 202 q 751 117 720 134 q 846 112 783 101 l 846 -4 q 686 15 745 -16 q 619 139 626 45 m 412 884 l 508 1136 l 684 1136 l 514 884 l 412 884 z "},"β":{"ha":884,"x_min":126,"x_max":758,"o":"m 431 98 q 580 143 530 98 q 629 279 629 188 l 629 332 q 583 445 629 408 q 442 482 537 482 l 378 482 l 378 593 l 434 593 q 554 627 514 593 q 593 729 593 660 l 593 751 q 551 870 593 831 q 422 909 509 909 q 294 864 336 909 q 253 727 253 818 l 253 146 q 336 110 292 122 q 431 98 380 98 m 432 -13 q 336 -3 381 -13 q 253 23 290 6 l 253 -253 l 126 -253 l 126 723 q 211 951 126 880 q 422 1023 297 1023 q 632 958 547 1023 q 717 774 717 893 l 717 741 q 684 626 717 673 q 580 566 652 578 l 580 529 q 709 467 663 520 q 758 341 755 413 l 758 277 q 653 54 758 121 q 432 -13 549 -13 z "},"γ":{"ha":884,"x_min":93,"x_max":789,"o":"m 518 -253 l 366 -253 l 379 25 l 93 758 l 232 758 l 447 181 l 657 758 l 789 758 l 505 25 l 518 -253 z "},"δ":{"ha":884,"x_min":126,"x_max":758,"o":"m 442 -13 q 213 57 301 -13 q 126 274 126 128 l 126 390 q 171 522 126 463 q 299 617 216 581 q 196 694 227 650 q 164 802 164 737 q 234 960 164 909 q 438 1010 303 1010 l 672 1010 l 672 896 l 438 896 q 320 878 359 896 q 282 802 282 860 q 320 735 282 759 q 520 662 359 712 q 704 563 650 621 q 758 403 758 504 l 758 274 q 670 57 758 128 q 442 -13 583 -13 m 442 101 q 584 141 537 101 q 631 274 631 182 l 631 403 q 581 508 631 471 q 385 585 530 545 q 287 504 321 554 q 253 390 253 455 l 253 274 q 300 141 253 182 q 442 101 347 101 z "},"ε":{"ha":884,"x_min":102,"x_max":782,"o":"m 447 -13 q 186 42 270 -13 q 102 211 102 97 l 102 223 q 152 336 102 288 q 299 390 201 384 l 299 418 q 172 458 218 423 q 125 553 125 492 l 125 571 q 203 722 125 673 q 447 770 282 770 q 674 715 597 770 q 759 543 750 659 l 634 533 q 581 631 625 601 q 447 660 538 660 q 296 638 341 660 q 251 563 251 615 l 251 545 q 294 479 251 499 q 437 460 337 460 l 508 460 l 508 359 l 437 359 q 277 330 324 359 q 229 236 229 302 l 229 223 q 279 126 229 155 q 447 97 330 97 q 598 130 549 97 q 657 239 648 163 l 782 230 q 691 46 773 105 q 447 -13 609 -13 z "},"έ":{"ha":884,"x_min":102,"x_max":782,"o":"m 447 -13 q 186 42 270 -13 q 102 211 102 97 l 102 223 q 152 336 102 288 q 299 390 201 384 l 299 418 q 172 458 218 423 q 125 553 125 492 l 125 571 q 203 722 125 673 q 447 770 282 770 q 674 715 597 770 q 759 543 750 659 l 634 533 q 581 631 625 601 q 447 660 538 660 q 296 638 341 660 q 251 563 251 615 l 251 545 q 294 479 251 499 q 437 460 337 460 l 508 460 l 508 359 l 437 359 q 277 330 324 359 q 229 236 229 302 l 229 223 q 279 126 229 155 q 447 97 330 97 q 598 130 549 97 q 657 239 648 163 l 782 230 q 691 46 773 105 q 447 -13 609 -13 m 348 884 l 444 1136 l 621 1136 l 451 884 l 348 884 z "},"ζ":{"ha":884,"x_min":104,"x_max":802,"o":"m 518 -253 l 379 -253 l 379 -139 l 537 -139 q 610 -123 583 -139 q 638 -57 638 -107 q 610 9 638 -8 q 537 25 583 25 l 429 25 q 194 116 269 25 q 120 319 120 206 q 150 464 120 393 q 232 591 181 535 l 415 787 l 407 807 q 202 860 277 794 q 104 1020 128 926 l 216 1044 q 309 929 232 963 q 494 926 385 894 l 749 1038 l 802 896 l 600 837 l 338 545 q 271 445 295 499 q 246 326 246 391 q 290 190 246 241 q 429 139 335 139 l 535 139 q 698 92 638 139 q 758 -57 758 45 q 693 -202 758 -152 q 518 -253 628 -253 z "},"η":{"ha":884,"x_min":126,"x_max":758,"o":"m 631 -253 l 631 510 q 595 616 631 581 q 482 650 558 650 q 367 617 423 650 q 253 518 311 585 l 253 0 l 126 0 l 126 758 l 253 758 l 253 631 l 290 631 q 381 732 318 694 q 523 770 443 770 q 694 708 630 770 q 758 540 758 645 l 758 -253 l 631 -253 z "},"ή":{"ha":884,"x_min":126,"x_max":758,"o":"m 631 -253 l 631 510 q 595 616 631 581 q 482 650 558 650 q 367 617 423 650 q 253 518 311 585 l 253 0 l 126 0 l 126 758 l 253 758 l 253 631 l 290 631 q 381 732 318 694 q 523 770 443 770 q 694 708 630 770 q 758 540 758 645 l 758 -253 l 631 -253 m 348 884 l 444 1136 l 621 1136 l 451 884 l 348 884 z "},"θ":{"ha":884,"x_min":126,"x_max":758,"o":"m 442 -13 q 213 57 301 -13 q 126 274 126 128 l 126 731 q 214 951 126 879 q 443 1023 302 1023 q 671 951 585 1023 q 758 731 758 879 l 758 274 q 670 57 758 128 q 442 -13 583 -13 m 253 731 l 253 568 l 631 568 l 631 731 q 585 866 631 822 q 442 909 538 909 q 299 866 346 909 q 253 731 253 822 m 442 101 q 585 144 538 101 q 631 274 631 187 l 631 455 l 253 455 l 253 274 q 299 144 253 187 q 442 101 346 101 z "},"ι":{"ha":884,"x_min":101,"x_max":782,"o":"m 626 -6 q 444 61 510 -6 q 379 245 379 128 l 379 644 l 101 644 l 101 758 l 505 758 l 505 244 q 536 143 505 177 q 630 109 567 109 q 695 116 658 109 q 756 133 732 122 l 782 23 q 711 2 751 10 q 626 -6 670 -6 z "},"ΐ":{"ha":884,"x_min":101,"x_max":782,"o":"m 626 -6 q 444 61 510 -6 q 379 245 379 128 l 379 644 l 101 644 l 101 758 l 505 758 l 505 244 q 536 143 505 177 q 630 109 567 109 q 695 116 658 109 q 756 133 732 122 l 782 23 q 711 2 751 10 q 626 -6 670 -6 m 348 884 l 407 1136 l 558 1136 l 426 884 l 348 884 m 208 884 q 158 899 177 884 q 139 956 139 914 l 139 965 q 158 1023 139 1008 q 208 1039 177 1039 q 259 1023 240 1039 q 278 965 278 1008 l 278 956 q 258 899 278 914 q 208 884 239 884 m 650 884 q 600 899 619 884 q 581 956 581 914 l 581 965 q 600 1023 581 1008 q 650 1039 619 1039 q 701 1023 682 1039 q 720 965 720 1008 l 720 956 q 700 899 720 914 q 650 884 681 884 z "},"ί":{"ha":884,"x_min":101,"x_max":782,"o":"m 626 -6 q 444 61 510 -6 q 379 245 379 128 l 379 644 l 101 644 l 101 758 l 505 758 l 505 244 q 536 143 505 177 q 630 109 567 109 q 695 116 658 109 q 756 133 732 122 l 782 23 q 711 2 751 10 q 626 -6 670 -6 m 342 884 l 438 1136 l 615 1136 l 444 884 l 342 884 z "},"ϊ":{"ha":884,"x_min":101,"x_max":782,"o":"m 626 -6 q 444 61 510 -6 q 379 245 379 128 l 379 644 l 101 644 l 101 758 l 505 758 l 505 244 q 536 143 505 177 q 630 109 567 109 q 695 116 658 109 q 756 133 732 122 l 782 23 q 711 2 751 10 q 626 -6 670 -6 m 290 896 q 231 912 254 896 q 208 968 208 927 l 208 977 q 231 1036 208 1020 q 290 1052 254 1052 q 350 1036 327 1052 q 372 977 372 1020 l 372 968 q 349 912 372 927 q 290 896 326 896 m 581 896 q 521 912 544 896 q 499 968 499 927 l 499 977 q 521 1036 499 1020 q 581 1052 544 1052 q 640 1036 617 1052 q 663 977 663 1020 l 663 968 q 640 912 663 927 q 581 896 616 896 z "},"κ":{"ha":884,"x_min":189,"x_max":777,"o":"m 316 345 l 316 0 l 189 0 l 189 758 l 316 758 l 316 451 l 380 451 l 622 758 l 777 758 l 480 405 l 773 0 l 629 0 l 380 345 l 316 345 z "},"λ":{"ha":884,"x_min":93,"x_max":789,"o":"m 652 0 l 439 648 l 227 0 l 93 0 l 362 758 l 403 758 l 394 785 q 340 873 376 841 q 235 905 304 905 q 182 902 211 905 q 120 890 154 898 l 98 1004 q 161 1013 130 1010 q 221 1016 192 1016 q 384 975 312 1016 q 492 836 457 934 l 789 0 l 652 0 z "},"μ":{"ha":884,"x_min":114,"x_max":833,"o":"m 253 25 l 265 -253 l 114 -253 l 126 25 l 126 758 l 253 758 l 253 247 q 296 140 253 172 q 402 107 340 107 q 501 133 458 107 q 581 202 543 158 l 581 758 l 707 758 l 707 202 q 739 117 707 134 q 833 112 770 101 l 833 -4 q 691 15 741 -18 q 636 126 641 48 l 611 126 q 525 30 580 72 q 386 -13 470 -13 q 313 3 347 -13 q 253 49 278 18 l 253 25 z "},"ν":{"ha":884,"x_min":93,"x_max":789,"o":"m 508 0 l 375 0 l 93 758 l 226 758 l 457 92 q 600 429 548 258 q 665 758 652 600 l 789 758 q 688 354 765 544 q 508 0 611 163 z "},"ξ":{"ha":884,"x_min":40,"x_max":783,"o":"m 783 -57 q 718 -202 783 -152 q 543 -253 653 -253 l 404 -253 l 404 -139 l 562 -139 q 636 -123 609 -139 q 663 -57 663 -107 q 636 9 663 -8 q 562 25 609 25 l 429 25 q 208 89 290 25 q 126 261 126 153 l 126 295 q 182 431 126 372 q 350 499 237 490 l 350 528 q 240 566 278 528 q 202 662 202 604 q 227 746 202 708 q 306 803 251 783 l 306 832 q 127 887 192 837 q 40 1020 62 937 l 153 1044 q 257 952 169 982 q 456 938 345 922 l 711 1038 l 764 896 l 492 830 l 422 790 q 350 732 371 763 q 328 664 328 701 q 357 590 328 611 q 428 568 385 568 l 669 568 l 669 455 l 431 455 q 294 414 336 455 q 253 314 253 372 l 253 280 q 295 178 253 217 q 429 139 337 139 l 561 139 q 723 92 663 139 q 783 -57 783 45 z "},"ο":{"ha":884,"x_min":126,"x_max":758,"o":"m 442 -13 q 208 61 289 -13 q 126 274 126 135 l 126 479 q 208 694 126 619 q 443 770 290 770 q 676 694 595 770 q 758 479 758 619 l 758 274 q 676 61 758 135 q 442 -13 595 -13 m 442 101 q 585 144 538 101 q 631 274 631 187 l 631 479 q 585 613 631 569 q 442 657 538 657 q 299 613 346 657 q 253 479 253 569 l 253 274 q 299 144 253 187 q 442 101 346 101 z "},"ό":{"ha":884,"x_min":126,"x_max":758,"o":"m 442 -13 q 208 61 289 -13 q 126 274 126 135 l 126 479 q 208 694 126 619 q 443 770 290 770 q 676 694 595 770 q 758 479 758 619 l 758 274 q 676 61 758 135 q 442 -13 595 -13 m 442 101 q 585 144 538 101 q 631 274 631 187 l 631 479 q 585 613 631 569 q 442 657 538 657 q 299 613 346 657 q 253 479 253 569 l 253 274 q 299 144 253 187 q 442 101 346 101 m 348 884 l 444 1136 l 621 1136 l 451 884 l 348 884 z "},"π":{"ha":884,"x_min":51,"x_max":795,"o":"m 795 758 l 795 644 l 644 644 l 644 202 q 675 119 644 138 q 795 112 706 101 l 795 -4 q 586 21 655 -16 q 518 152 518 59 l 518 644 l 303 644 l 303 0 l 177 0 l 177 644 l 51 644 l 51 758 l 795 758 z "},"ρ":{"ha":884,"x_min":126,"x_max":758,"o":"m 480 107 q 593 152 556 107 q 631 288 631 197 l 631 479 q 584 612 631 568 q 442 657 537 657 q 300 612 347 657 q 253 479 253 568 l 253 240 q 363 140 307 173 q 480 107 419 107 m 126 -253 l 126 479 q 214 698 126 626 q 443 770 302 770 q 671 698 585 770 q 758 479 758 626 l 758 275 q 690 62 758 138 q 511 -13 622 -13 q 380 24 437 -13 q 290 126 323 61 l 253 126 l 253 -253 l 126 -253 z "},"ς":{"ha":884,"x_min":126,"x_max":763,"o":"m 384 -253 l 384 -139 l 542 -139 q 616 -123 588 -139 q 643 -57 643 -107 q 616 9 643 -8 q 542 25 588 25 l 434 25 q 198 102 269 25 q 126 324 126 178 l 126 476 q 201 694 126 619 q 446 770 277 770 q 666 703 595 770 q 746 497 737 636 l 629 490 q 580 617 624 577 q 444 657 535 657 q 298 616 343 657 q 253 484 253 574 l 253 312 q 296 180 253 221 q 434 139 340 139 l 542 139 q 703 92 644 139 q 763 -57 763 45 q 698 -202 763 -152 q 523 -253 633 -253 l 384 -253 z "},"σ":{"ha":884,"x_min":126,"x_max":884,"o":"m 417 101 q 540 141 499 101 q 581 274 581 182 l 581 441 q 540 595 581 545 q 417 644 499 644 q 294 600 335 644 q 253 466 253 557 l 253 274 q 294 141 253 182 q 417 101 335 101 m 417 -13 q 206 57 287 -13 q 126 274 126 128 l 126 466 q 207 682 126 607 q 418 758 288 758 l 884 758 l 884 631 l 612 653 q 682 568 658 621 q 707 441 707 514 l 707 274 q 627 57 707 128 q 417 -13 547 -13 z "},"τ":{"ha":884,"x_min":126,"x_max":770,"o":"m 657 -4 q 444 18 509 -18 q 379 152 379 54 l 379 644 l 126 644 l 126 758 l 770 758 l 770 644 l 505 644 l 505 202 q 537 121 505 140 q 657 112 569 102 l 657 -4 z "},"υ":{"ha":884,"x_min":126,"x_max":758,"o":"m 442 -13 q 207 61 288 -13 q 126 274 126 135 l 126 758 l 253 758 l 253 274 q 297 141 253 182 q 442 101 341 101 q 587 141 543 101 q 631 274 631 182 l 631 758 l 758 758 l 758 274 q 677 61 758 135 q 442 -13 596 -13 z "},"ΰ":{"ha":884,"x_min":126,"x_max":758,"o":"m 442 -13 q 207 61 288 -13 q 126 274 126 135 l 126 758 l 253 758 l 253 274 q 297 141 253 182 q 442 101 341 101 q 587 141 543 101 q 631 274 631 182 l 631 758 l 758 758 l 758 274 q 677 61 758 135 q 442 -13 596 -13 m 361 884 l 419 1136 l 571 1136 l 438 884 l 361 884 m 221 884 q 170 899 189 884 q 152 956 152 914 l 152 965 q 170 1023 152 1008 q 221 1039 189 1039 q 271 1023 253 1039 q 290 965 290 1008 l 290 956 q 271 899 290 914 q 221 884 251 884 m 663 884 q 612 899 631 884 q 593 956 593 914 l 593 965 q 612 1023 593 1008 q 663 1039 631 1039 q 713 1023 694 1039 q 732 965 732 1008 l 732 956 q 713 899 732 914 q 663 884 693 884 z "},"ϋ":{"ha":884,"x_min":126,"x_max":758,"o":"m 442 -13 q 207 61 288 -13 q 126 274 126 135 l 126 758 l 253 758 l 253 274 q 297 141 253 182 q 442 101 341 101 q 587 141 543 101 q 631 274 631 182 l 631 758 l 758 758 l 758 274 q 677 61 758 135 q 442 -13 596 -13 m 297 896 q 237 912 260 896 q 215 968 215 927 l 215 977 q 237 1036 215 1020 q 297 1052 260 1052 q 356 1036 333 1052 q 379 977 379 1020 l 379 968 q 355 912 379 927 q 297 896 332 896 m 587 896 q 528 912 551 896 q 505 968 505 927 l 505 977 q 528 1036 505 1020 q 587 1052 551 1052 q 646 1036 624 1052 q 669 977 669 1020 l 669 968 q 646 912 669 927 q 587 896 622 896 z "},"ύ":{"ha":884,"x_min":126,"x_max":758,"o":"m 442 -13 q 207 61 288 -13 q 126 274 126 135 l 126 758 l 253 758 l 253 274 q 297 141 253 182 q 442 101 341 101 q 587 141 543 101 q 631 274 631 182 l 631 758 l 758 758 l 758 274 q 677 61 758 135 q 442 -13 596 -13 m 348 884 l 444 1136 l 621 1136 l 451 884 l 348 884 z "},"φ":{"ha":884,"x_min":76,"x_max":808,"o":"m 500 -253 l 384 -253 l 384 -10 q 160 89 245 4 q 76 324 76 174 l 76 441 q 100 629 76 544 q 167 779 125 715 l 277 739 q 217 607 242 683 q 192 441 192 532 l 192 324 q 241 164 192 222 q 384 92 289 105 l 384 758 l 505 758 q 725 670 641 758 q 808 403 808 583 l 808 324 q 723 89 808 174 q 500 -10 639 4 l 500 -253 m 500 657 l 500 92 q 643 164 595 105 q 692 324 692 222 l 692 403 q 643 595 692 534 q 500 657 595 657 z "},"χ":{"ha":884,"x_min":109,"x_max":775,"o":"m 620 -253 l 429 141 l 231 -253 l 109 -253 l 378 247 l 130 758 l 255 758 l 449 359 l 653 758 l 775 758 l 501 253 l 747 -253 l 620 -253 z "},"ψ":{"ha":884,"x_min":76,"x_max":808,"o":"m 500 -253 l 384 -253 l 384 -10 q 150 85 223 3 q 76 299 76 168 l 76 758 l 192 758 l 192 299 q 238 160 192 208 q 384 104 284 112 l 384 758 l 500 758 l 500 104 q 646 160 600 112 q 692 299 692 208 l 692 758 l 808 758 l 808 299 q 734 85 808 168 q 500 -10 660 3 l 500 -253 z "},"ω":{"ha":884,"x_min":76,"x_max":808,"o":"m 265 -13 q 128 64 181 -13 q 76 287 76 140 l 76 415 q 99 629 76 528 q 154 779 122 730 l 264 739 q 217 606 242 697 q 192 415 192 515 l 192 287 q 216 148 192 194 q 290 101 240 101 q 360 135 337 101 q 384 249 384 169 l 384 581 l 500 581 l 500 249 q 523 135 500 169 q 593 101 547 101 q 667 148 643 101 q 692 287 692 194 l 692 415 q 667 606 692 515 q 620 739 641 697 l 730 779 q 785 629 761 730 q 808 415 808 528 l 808 287 q 756 64 808 140 q 619 -13 703 -13 q 516 25 562 -13 q 449 149 470 62 l 434 149 q 368 25 414 62 q 265 -13 322 -13 z "},"ώ":{"ha":884,"x_min":76,"x_max":808,"o":"m 265 -13 q 128 64 181 -13 q 76 287 76 140 l 76 415 q 99 629 76 528 q 154 779 122 730 l 264 739 q 217 606 242 697 q 192 415 192 515 l 192 287 q 216 148 192 194 q 290 101 240 101 q 360 135 337 101 q 384 249 384 169 l 384 581 l 500 581 l 500 249 q 523 135 500 169 q 593 101 547 101 q 667 148 643 101 q 692 287 692 194 l 692 415 q 667 606 692 515 q 620 739 641 697 l 730 779 q 785 629 761 730 q 808 415 808 528 l 808 287 q 756 64 808 140 q 619 -13 703 -13 q 516 25 562 -13 q 449 149 470 62 l 434 149 q 368 25 414 62 q 265 -13 322 -13 m 361 884 l 457 1136 l 634 1136 l 463 884 l 361 884 z "},"а":{"ha":884,"x_min":88,"x_max":846,"o":"m 351 96 q 472 119 417 96 q 568 201 528 143 l 568 322 l 341 322 q 251 297 287 322 q 215 211 215 273 q 246 126 215 157 q 351 96 277 96 m 335 -13 q 164 39 239 -13 q 88 203 88 90 q 153 360 88 303 q 306 417 218 417 l 568 417 l 568 525 q 528 621 568 586 q 405 657 487 657 q 281 632 322 657 q 216 523 240 607 l 105 553 q 201 715 126 660 q 403 770 277 770 q 611 714 528 770 q 694 540 694 658 l 694 202 q 732 117 694 134 q 846 112 770 100 l 846 -4 q 699 7 768 -15 q 624 126 630 29 l 598 126 q 492 28 563 68 q 335 -13 422 -13 z "},"б":{"ha":884,"x_min":126,"x_max":758,"o":"m 442 -13 q 213 59 301 -13 q 126 285 126 130 l 126 653 q 214 883 126 808 q 433 981 302 958 l 702 1028 l 721 919 l 452 872 q 293 801 346 855 q 240 630 240 747 l 240 588 l 269 588 q 342 654 289 626 q 487 682 395 682 q 689 611 621 682 q 758 419 758 540 l 758 278 q 670 59 758 131 q 442 -13 583 -13 m 441 101 q 586 145 543 101 q 629 275 629 188 l 629 405 q 586 527 629 486 q 441 567 543 567 q 295 527 338 567 q 253 405 253 486 l 253 275 q 295 145 253 188 q 441 101 338 101 z "},"в":{"ha":884,"x_min":126,"x_max":782,"o":"m 126 0 l 126 758 l 437 758 q 679 710 600 758 q 759 564 759 663 l 759 547 q 712 451 759 486 q 585 412 665 417 l 585 384 q 732 332 683 378 q 782 223 782 287 l 782 211 q 696 52 782 105 q 437 0 611 0 l 126 0 m 253 447 l 447 447 q 593 465 553 447 q 633 534 633 484 l 633 552 q 591 627 633 606 q 437 648 549 648 l 253 648 l 253 447 m 253 110 l 437 110 q 609 134 562 110 q 655 223 655 159 l 655 236 q 611 323 655 299 q 447 346 567 346 l 253 346 l 253 110 z "},"г":{"ha":884,"x_min":189,"x_max":770,"o":"m 189 0 l 189 758 l 770 758 l 770 644 l 316 644 l 316 0 l 189 0 z "},"ѓ":{"ha":884,"x_min":189,"x_max":770,"o":"m 189 0 l 189 758 l 770 758 l 770 644 l 316 644 l 316 0 l 189 0 m 393 884 l 564 1136 l 754 1136 l 508 884 l 393 884 z "},"д":{"ha":884,"x_min":51,"x_max":833,"o":"m 285 145 l 285 114 l 581 114 l 581 644 l 340 644 l 336 319 q 323 221 335 264 q 285 145 312 178 m 177 0 l 177 -189 l 51 -189 l 51 114 l 143 114 q 196 191 178 140 q 215 327 213 241 l 218 758 l 707 758 l 707 114 l 833 114 l 833 -189 l 707 -189 l 707 0 l 177 0 z "},"е":{"ha":884,"x_min":126,"x_max":760,"o":"m 760 167 q 657 30 726 72 q 443 -13 587 -13 q 210 60 293 -13 q 126 275 126 133 l 126 479 q 214 698 126 625 q 443 770 302 770 q 672 696 586 770 q 758 470 758 622 l 758 354 l 253 354 l 253 274 q 300 137 253 179 q 442 95 347 95 q 574 120 533 95 q 638 202 616 145 l 760 167 m 253 479 l 253 448 l 631 448 l 631 467 q 584 616 631 569 q 442 663 537 663 q 300 618 347 663 q 253 479 253 573 z "},"ѐ":{"ha":884,"x_min":126,"x_max":760,"o":"m 760 167 q 657 30 726 72 q 443 -13 587 -13 q 210 60 293 -13 q 126 275 126 133 l 126 479 q 214 698 126 625 q 443 770 302 770 q 672 696 586 770 q 758 470 758 622 l 758 354 l 253 354 l 253 274 q 300 137 253 179 q 442 95 347 95 q 574 120 533 95 q 638 202 616 145 l 760 167 m 253 479 l 253 448 l 631 448 l 631 467 q 584 616 631 569 q 442 663 537 663 q 300 618 347 663 q 253 479 253 573 m 444 884 l 198 1136 l 388 1136 l 559 884 l 444 884 z "},"ё":{"ha":884,"x_min":126,"x_max":760,"o":"m 760 167 q 657 30 726 72 q 443 -13 587 -13 q 210 60 293 -13 q 126 275 126 133 l 126 479 q 214 698 126 625 q 443 770 302 770 q 672 696 586 770 q 758 470 758 622 l 758 354 l 253 354 l 253 274 q 300 137 253 179 q 442 95 347 95 q 574 120 533 95 q 638 202 616 145 l 760 167 m 253 479 l 253 448 l 631 448 l 631 467 q 584 616 631 569 q 442 663 537 663 q 300 618 347 663 q 253 479 253 573 m 298 896 q 239 912 261 896 q 216 968 216 927 l 216 977 q 239 1036 216 1020 q 298 1052 261 1052 q 357 1036 335 1052 q 380 977 380 1020 l 380 968 q 357 912 380 927 q 298 896 333 896 m 588 896 q 529 912 552 896 q 506 968 506 927 l 506 977 q 529 1036 506 1020 q 588 1052 552 1052 q 648 1036 625 1052 q 670 977 670 1020 l 670 968 q 647 912 670 927 q 588 896 624 896 z "},"ж":{"ha":884,"x_min":32,"x_max":852,"o":"m 346 360 l 164 0 l 35 0 l 255 417 l 32 758 l 160 758 l 346 461 l 385 461 l 385 758 l 499 758 l 499 461 l 538 461 l 723 758 l 852 758 l 629 418 l 848 0 l 720 0 l 538 360 l 499 360 l 499 0 l 385 0 l 385 360 l 346 360 z "},"з":{"ha":884,"x_min":102,"x_max":782,"o":"m 437 -13 q 190 44 268 -13 q 102 230 112 100 l 227 239 q 285 126 237 155 q 437 97 332 97 q 607 122 558 97 q 655 223 655 148 l 655 236 q 609 333 655 308 q 447 359 562 359 l 376 359 l 376 460 l 447 460 q 590 477 548 460 q 633 545 633 495 l 633 563 q 588 641 633 621 q 437 660 544 660 q 302 634 345 660 q 250 533 259 609 l 125 543 q 206 718 134 665 q 437 770 279 770 q 672 724 586 770 q 759 571 759 678 l 759 553 q 712 458 759 492 q 585 418 665 423 l 585 390 q 732 336 683 384 q 782 223 782 288 l 782 211 q 705 46 782 105 q 437 -13 628 -13 z "},"и":{"ha":884,"x_min":126,"x_max":758,"o":"m 638 0 l 638 609 l 294 0 l 126 0 l 126 758 l 246 758 l 246 139 l 597 758 l 758 758 l 758 0 l 638 0 z "},"й":{"ha":884,"x_min":126,"x_max":758,"o":"m 638 0 l 638 609 l 294 0 l 126 0 l 126 758 l 246 758 l 246 139 l 597 758 l 758 758 l 758 0 l 638 0 m 442 875 q 253 932 331 875 q 174 1128 176 989 l 301 1140 q 332 1013 302 1051 q 442 975 362 975 q 552 1013 521 975 q 583 1140 582 1051 l 710 1128 q 631 932 708 989 q 442 875 553 875 z "},"ѝ":{"ha":884,"x_min":126,"x_max":758,"o":"m 638 0 l 638 609 l 294 0 l 126 0 l 126 758 l 246 758 l 246 139 l 597 758 l 758 758 l 758 0 l 638 0 m 443 884 l 197 1136 l 386 1136 l 558 884 l 443 884 z "},"к":{"ha":884,"x_min":189,"x_max":777,"o":"m 316 345 l 316 0 l 189 0 l 189 758 l 316 758 l 316 451 l 380 451 l 622 758 l 777 758 l 480 405 l 773 0 l 629 0 l 380 345 l 316 345 z "},"ќ":{"ha":884,"x_min":189,"x_max":777,"o":"m 316 345 l 316 0 l 189 0 l 189 758 l 316 758 l 316 451 l 380 451 l 622 758 l 777 758 l 480 405 l 773 0 l 629 0 l 380 345 l 316 345 m 378 884 l 549 1136 l 739 1136 l 492 884 l 378 884 z "},"л":{"ha":884,"x_min":34,"x_max":758,"o":"m 631 0 l 631 644 l 352 644 l 348 297 q 287 61 347 135 q 125 -13 227 -13 q 76 -8 100 -13 q 34 3 53 -3 l 56 114 q 91 104 78 106 q 114 101 104 101 q 201 147 177 101 q 227 313 226 193 l 231 758 l 758 758 l 758 0 l 631 0 z "},"м":{"ha":884,"x_min":114,"x_max":770,"o":"m 375 189 l 227 636 l 227 0 l 114 0 l 114 758 l 309 758 l 446 308 l 581 758 l 770 758 l 770 0 l 657 0 l 654 633 l 509 189 l 375 189 z "},"н":{"ha":884,"x_min":126,"x_max":758,"o":"m 126 0 l 126 758 l 253 758 l 253 492 l 631 492 l 631 758 l 758 758 l 758 0 l 631 0 l 631 379 l 253 379 l 253 0 l 126 0 z "},"о":{"ha":884,"x_min":126,"x_max":758,"o":"m 442 -13 q 208 61 289 -13 q 126 274 126 135 l 126 479 q 208 694 126 619 q 443 770 290 770 q 676 694 595 770 q 758 479 758 619 l 758 274 q 676 61 758 135 q 442 -13 595 -13 m 442 101 q 585 144 538 101 q 631 274 631 187 l 631 479 q 585 613 631 569 q 442 657 538 657 q 299 613 346 657 q 253 479 253 569 l 253 274 q 299 144 253 187 q 442 101 346 101 z "},"п":{"ha":884,"x_min":126,"x_max":758,"o":"m 126 0 l 126 758 l 758 758 l 758 0 l 631 0 l 631 644 l 253 644 l 253 0 l 126 0 z "},"р":{"ha":884,"x_min":126,"x_max":758,"o":"m 431 98 q 584 141 537 98 q 631 279 631 184 l 631 484 q 595 610 631 571 q 480 650 559 650 q 362 619 417 650 q 253 518 308 587 l 253 146 q 334 110 292 122 q 431 98 376 98 m 432 -13 q 342 -3 389 -13 q 253 23 294 6 l 253 -253 l 126 -253 l 126 758 l 253 758 l 253 631 l 290 631 q 382 733 322 696 q 511 770 442 770 q 691 693 625 770 q 758 482 758 615 l 758 277 q 670 65 758 143 q 432 -13 582 -13 z "},"с":{"ha":884,"x_min":126,"x_max":771,"o":"m 460 -13 q 210 60 294 -13 q 126 274 126 133 l 126 479 q 210 696 126 622 q 458 770 294 770 q 684 704 605 770 q 771 510 763 638 l 648 503 q 596 619 643 581 q 457 657 549 657 q 303 613 354 657 q 253 479 253 569 l 253 274 q 304 144 253 187 q 460 101 355 101 q 597 133 551 101 q 648 230 644 165 l 771 222 q 684 47 763 106 q 460 -13 606 -13 z "},"т":{"ha":884,"x_min":88,"x_max":795,"o":"m 379 0 l 379 644 l 88 644 l 88 758 l 795 758 l 795 644 l 505 644 l 505 0 l 379 0 z "},"у":{"ha":884,"x_min":93,"x_max":789,"o":"m 217 -260 q 158 -256 187 -260 q 98 -246 129 -253 l 120 -134 q 181 -145 153 -141 q 234 -149 210 -149 q 336 -116 292 -149 q 405 -11 381 -83 l 409 0 l 362 0 l 93 758 l 231 758 l 444 106 l 657 758 l 789 758 l 511 -25 q 395 -204 468 -148 q 217 -260 321 -260 z "},"ў":{"ha":884,"x_min":93,"x_max":789,"o":"m 217 -260 q 158 -256 187 -260 q 98 -246 129 -253 l 120 -134 q 181 -145 153 -141 q 234 -149 210 -149 q 336 -116 292 -149 q 405 -11 381 -83 l 409 0 l 362 0 l 93 758 l 231 758 l 444 106 l 657 758 l 789 758 l 511 -25 q 395 -204 468 -148 q 217 -260 321 -260 m 442 875 q 253 932 331 875 q 174 1128 176 989 l 301 1140 q 332 1013 302 1051 q 442 975 362 975 q 552 1013 521 975 q 583 1140 582 1051 l 710 1128 q 631 932 708 989 q 442 875 553 875 z "},"ф":{"ha":884,"x_min":76,"x_max":808,"o":"m 540 0 l 500 0 l 500 -253 l 384 -253 l 384 0 l 343 0 q 147 80 218 0 q 76 302 76 160 l 76 456 q 147 677 76 597 q 343 758 218 758 l 384 758 l 384 1010 l 500 1010 l 500 758 l 540 758 q 737 677 665 758 q 808 456 808 597 l 808 302 q 737 80 808 160 q 540 0 665 0 m 357 107 l 390 107 l 390 650 l 357 650 q 234 600 275 650 q 192 451 192 549 l 192 304 q 234 157 192 206 q 357 107 275 107 m 527 650 l 494 650 l 494 107 l 527 107 q 650 157 609 107 q 692 304 692 206 l 692 451 q 650 600 692 549 q 527 650 609 650 z "},"х":{"ha":884,"x_min":107,"x_max":777,"o":"m 630 0 l 434 289 l 247 0 l 107 0 l 372 380 l 116 758 l 258 758 l 446 480 l 636 758 l 777 758 l 509 386 l 771 0 l 630 0 z "},"ц":{"ha":884,"x_min":126,"x_max":821,"o":"m 701 -189 l 701 0 l 126 0 l 126 758 l 253 758 l 253 114 l 568 114 l 568 758 l 694 758 l 694 114 l 821 114 l 821 -189 l 701 -189 z "},"ч":{"ha":884,"x_min":101,"x_max":694,"o":"m 694 758 l 694 0 l 568 0 l 568 266 q 495 247 537 254 q 404 240 453 240 q 176 309 250 240 q 101 519 101 378 l 101 758 l 227 758 l 227 521 q 275 388 227 424 q 405 351 323 352 q 501 361 457 350 q 568 388 544 372 l 568 758 l 694 758 z "},"ш":{"ha":884,"x_min":76,"x_max":808,"o":"m 76 0 l 76 758 l 192 758 l 192 104 l 384 104 l 384 758 l 500 758 l 500 104 l 692 104 l 692 758 l 808 758 l 808 0 l 76 0 z "},"щ":{"ha":884,"x_min":76,"x_max":878,"o":"m 878 -189 l 761 -189 l 761 0 l 76 0 l 76 758 l 192 758 l 192 104 l 384 104 l 384 758 l 500 758 l 500 104 l 692 104 l 692 758 l 808 758 l 808 114 l 878 114 l 878 -189 z "},"ъ":{"ha":884,"x_min":0,"x_max":795,"o":"m 532 0 l 189 0 l 189 644 l 0 644 l 0 758 l 316 758 l 316 505 l 530 505 q 725 446 655 505 q 795 282 795 386 l 795 229 q 725 61 795 121 q 532 0 655 0 m 316 114 l 505 114 q 630 141 591 114 q 669 229 669 168 l 669 282 q 630 367 669 341 q 505 394 591 394 l 316 394 l 316 114 z "},"ы":{"ha":884,"x_min":101,"x_max":783,"o":"m 101 0 l 101 758 l 217 758 l 217 505 l 328 505 q 495 446 434 505 q 556 282 556 386 l 556 229 q 496 61 556 121 q 330 0 436 0 l 101 0 m 667 0 l 667 758 l 783 758 l 783 0 l 667 0 m 217 109 l 303 109 q 407 137 375 109 q 439 229 439 165 l 439 282 q 407 371 439 343 q 303 399 375 399 l 217 399 l 217 109 z "},"ь":{"ha":884,"x_min":126,"x_max":795,"o":"m 126 0 l 126 758 l 253 758 l 253 505 l 530 505 q 725 446 655 505 q 795 282 795 386 l 795 229 q 725 61 795 121 q 532 0 655 0 l 126 0 m 253 114 l 505 114 q 630 141 591 114 q 669 229 669 168 l 669 282 q 630 367 669 341 q 505 394 591 394 l 253 394 l 253 114 z "},"э":{"ha":884,"x_min":112,"x_max":758,"o":"m 424 -13 q 199 47 278 -13 q 112 222 121 106 l 236 230 q 287 133 240 165 q 424 101 333 101 q 580 144 529 101 q 631 274 631 187 l 631 341 l 345 341 l 345 442 l 631 442 l 631 479 q 581 613 631 569 q 427 657 530 657 q 288 619 335 657 q 236 503 241 581 l 112 510 q 200 704 121 638 q 426 770 279 770 q 674 696 590 770 q 758 479 758 622 l 758 274 q 674 60 758 133 q 424 -13 590 -13 z "},"ю":{"ha":884,"x_min":76,"x_max":808,"o":"m 562 -13 q 375 58 434 -13 q 316 249 316 129 l 316 366 l 202 366 l 202 0 l 76 0 l 76 758 l 202 758 l 202 480 l 316 480 l 316 504 q 376 698 316 625 q 563 770 436 770 q 750 698 692 770 q 808 504 808 625 l 808 249 q 749 58 808 129 q 562 -13 691 -13 m 562 101 q 664 136 633 101 q 694 249 694 170 l 694 504 q 664 621 694 585 q 562 657 633 657 q 460 621 491 657 q 429 504 429 585 l 429 249 q 460 136 429 170 q 562 101 491 101 z "},"я":{"ha":884,"x_min":115,"x_max":758,"o":"m 379 376 l 631 376 l 631 644 l 379 644 q 282 617 312 644 q 253 529 253 591 l 253 501 q 282 406 253 436 q 379 376 312 376 m 631 265 l 509 265 l 270 0 l 115 0 l 354 266 q 185 331 244 271 q 126 496 126 390 l 126 524 q 191 697 126 636 q 378 758 256 758 l 758 758 l 758 0 l 631 0 l 631 265 z "},"ђ":{"ha":884,"x_min":0,"x_max":758,"o":"m 503 -263 q 426 -255 466 -263 q 342 -235 385 -247 l 367 -114 q 436 -134 403 -126 q 499 -141 470 -141 q 595 -107 558 -141 q 631 9 631 -72 l 631 447 q 593 551 631 515 q 482 587 554 587 q 366 553 426 587 q 253 455 307 519 l 253 0 l 126 0 l 126 795 l 0 795 l 0 896 l 126 896 l 126 1010 l 253 1010 l 253 896 l 505 896 l 505 795 l 253 795 l 253 568 l 290 568 q 381 670 318 633 q 523 707 443 707 q 694 645 631 707 q 758 477 758 583 l 758 -8 q 685 -200 758 -138 q 503 -263 612 -263 z "},"є":{"ha":884,"x_min":126,"x_max":771,"o":"m 771 222 q 684 47 763 106 q 460 -13 606 -13 q 210 60 294 -13 q 126 274 126 133 l 126 479 q 210 696 126 622 q 458 770 294 770 q 684 704 605 770 q 771 510 763 638 l 648 503 q 596 619 643 581 q 457 657 549 657 q 303 613 354 657 q 253 479 253 569 l 253 442 l 539 442 l 539 341 l 253 341 l 253 274 q 304 144 253 187 q 460 101 355 101 q 597 133 551 101 q 648 230 644 165 l 771 222 z "},"ѕ":{"ha":884,"x_min":101,"x_max":763,"o":"m 452 -13 q 266 16 356 -13 q 101 104 177 44 l 158 203 q 296 127 220 153 q 452 101 372 101 q 578 121 518 101 q 638 207 638 141 q 588 284 638 261 q 408 323 539 307 q 198 388 269 340 q 126 542 126 437 q 212 713 126 655 q 412 770 298 770 q 584 740 501 770 q 737 654 667 710 l 681 554 q 554 629 622 601 q 412 657 486 657 q 301 634 351 657 q 251 551 251 611 q 297 475 251 499 q 475 436 343 452 q 691 366 619 419 q 763 216 763 312 q 667 42 763 97 q 452 -13 571 -13 z "},"і":{"ha":884,"x_min":126,"x_max":758,"o":"m 126 0 l 126 114 l 379 114 l 379 644 l 126 644 l 126 758 l 505 758 l 505 114 l 758 114 l 758 0 l 126 0 m 442 896 q 364 912 394 896 q 335 968 335 927 l 335 977 q 364 1036 335 1020 q 442 1052 394 1052 q 520 1036 490 1052 q 549 977 549 1020 l 549 968 q 519 912 549 927 q 442 896 489 896 z "},"ї":{"ha":884,"x_min":126,"x_max":758,"o":"m 126 0 l 126 114 l 379 114 l 379 644 l 126 644 l 126 758 l 505 758 l 505 114 l 758 114 l 758 0 l 126 0 m 297 896 q 237 912 260 896 q 215 968 215 927 l 215 977 q 237 1036 215 1020 q 297 1052 260 1052 q 356 1036 333 1052 q 379 977 379 1020 l 379 968 q 355 912 379 927 q 297 896 332 896 m 587 896 q 528 912 551 896 q 505 968 505 927 l 505 977 q 528 1036 505 1020 q 587 1052 551 1052 q 646 1036 624 1052 q 669 977 669 1020 l 669 968 q 646 912 669 927 q 587 896 622 896 z "},"ј":{"ha":884,"x_min":128,"x_max":672,"o":"m 326 -263 q 230 -257 278 -263 q 128 -235 182 -251 l 153 -114 q 241 -136 199 -130 q 322 -141 282 -141 q 455 -107 404 -141 q 505 9 505 -72 l 505 644 l 152 644 l 152 758 l 631 758 l 631 -8 q 544 -200 631 -138 q 326 -263 456 -263 m 564 896 q 487 912 516 896 q 457 968 457 927 l 457 977 q 487 1036 457 1020 q 564 1052 516 1052 q 642 1036 612 1052 q 672 977 672 1020 l 672 968 q 641 912 672 927 q 564 896 611 896 z "},"љ":{"ha":884,"x_min":-11,"x_max":821,"o":"m 268 644 l 255 182 q 201 36 253 82 q 78 -10 150 -10 q 34 -6 57 -10 q -11 5 11 -3 l 14 126 q 45 117 29 121 q 73 114 61 114 q 119 131 100 114 q 139 198 138 149 l 154 758 l 513 758 l 513 505 l 619 505 q 766 446 712 505 q 821 288 821 388 l 821 210 q 766 56 821 112 q 620 0 712 0 l 396 0 l 396 644 l 268 644 m 513 109 l 593 109 q 677 138 650 110 q 705 223 705 165 l 705 287 q 677 371 705 343 q 593 399 650 399 l 513 399 l 513 109 z "},"њ":{"ha":884,"x_min":76,"x_max":808,"o":"m 500 109 l 581 109 q 665 134 638 109 q 692 210 692 159 l 692 288 q 665 372 692 345 q 581 399 638 399 l 500 399 l 500 109 m 192 384 l 192 0 l 76 0 l 76 758 l 192 758 l 192 492 l 384 492 l 384 758 l 500 758 l 500 505 l 606 505 q 754 446 699 505 q 808 288 808 388 l 808 210 q 754 56 808 112 q 607 0 699 0 l 384 0 l 384 384 l 192 384 z "},"ћ":{"ha":884,"x_min":0,"x_max":758,"o":"m 253 455 l 253 0 l 126 0 l 126 795 l 0 795 l 0 896 l 126 896 l 126 1010 l 253 1010 l 253 896 l 505 896 l 505 795 l 253 795 l 253 568 l 290 568 q 381 670 318 633 q 523 707 443 707 q 694 645 631 707 q 758 477 758 583 l 758 0 l 631 0 l 631 447 q 595 552 631 518 q 482 587 558 587 q 367 554 424 587 q 253 455 311 521 z "},"џ":{"ha":884,"x_min":126,"x_max":758,"o":"m 381 -189 l 381 0 l 126 0 l 126 758 l 253 758 l 253 114 l 631 114 l 631 758 l 758 758 l 758 0 l 503 0 l 503 -189 l 381 -189 z "},"ґ":{"ha":884,"x_min":189,"x_max":770,"o":"m 189 0 l 189 758 l 650 758 l 650 947 l 770 947 l 770 644 l 316 644 l 316 0 l 189 0 z "},"ⁿ":{"ha":884,"x_min":189,"x_max":694,"o":"m 189 383 l 189 1013 l 294 1013 l 294 908 l 326 908 q 360 962 340 939 q 403 999 380 985 q 449 1017 426 1011 q 497 1023 473 1023 q 575 1008 539 1023 q 638 966 611 994 q 680 898 665 938 q 694 808 694 859 l 694 383 l 590 383 l 590 787 q 581 847 590 821 q 557 889 572 872 q 520 915 542 907 q 472 923 499 923 q 422 915 446 923 q 376 893 398 907 q 336 859 356 878 q 294 813 317 840 l 294 383 l 189 383 z "},"̀":{"ha":0,"x_min":-245,"x_max":116,"o":"m 1 884 l -245 1136 l -56 1136 l 116 884 l 1 884 z "},"́":{"ha":0,"x_min":-144,"x_max":217,"o":"m -144 884 l 28 1136 l 217 1136 l -29 884 l -144 884 z "},"̂":{"ha":0,"x_min":-266,"x_max":266,"o":"m -218 889 l -266 970 l -47 1158 l 44 1158 l 266 970 l 218 889 l -1 1035 l -218 889 z "},"̃":{"ha":0,"x_min":-265,"x_max":265,"o":"m 100 896 q 27 919 57 896 q -25 970 -3 942 q -68 1019 -48 996 q -110 1042 -87 1042 q -152 1018 -134 1042 q -168 923 -169 995 l -168 909 l -265 909 l -265 928 q -222 1086 -265 1023 q -100 1149 -179 1149 q -21 1126 -52 1149 q 32 1077 10 1104 q 71 1027 53 1049 q 110 1004 88 1004 q 151 1027 134 1004 q 168 1122 168 1051 l 168 1136 l 265 1136 l 265 1117 q 222 959 265 1021 q 100 896 179 896 z "},"̄":{"ha":0,"x_min":-253,"x_max":253,"o":"m -253 953 l -253 1067 l 253 1067 l 253 953 l -253 953 z "},"̆":{"ha":0,"x_min":-293,"x_max":293,"o":"m 0 875 q -207 934 -122 875 q -293 1140 -292 994 l -167 1140 q -124 1012 -165 1049 q 0 975 -83 975 q 124 1012 83 975 q 167 1140 165 1049 l 293 1140 q 207 934 292 994 q 0 875 122 875 z "},"̇":{"ha":0,"x_min":-107,"x_max":107,"o":"m 0 896 q -78 912 -48 896 q -107 968 -107 927 l -107 977 q -78 1036 -107 1020 q 0 1052 -48 1052 q 78 1036 48 1052 q 107 977 107 1020 l 107 968 q 77 912 107 927 q 0 896 47 896 z "},"̈":{"ha":0,"x_min":-227,"x_max":227,"o":"m -145 896 q -205 912 -182 896 q -227 968 -227 927 l -227 977 q -205 1036 -227 1020 q -145 1052 -182 1052 q -86 1036 -109 1052 q -63 977 -63 1020 l -63 968 q -86 912 -63 927 q -145 896 -110 896 m 145 896 q 86 912 109 896 q 63 968 63 927 l 63 977 q 86 1036 63 1020 q 145 1052 109 1052 q 205 1036 182 1052 q 227 977 227 1020 l 227 968 q 204 912 227 927 q 145 896 181 896 z "},"̊":{"ha":0,"x_min":-202,"x_max":202,"o":"m 0 865 q -146 910 -91 865 q -202 1048 -202 955 l -202 1088 q -146 1229 -202 1183 q 0 1275 -91 1275 q 146 1229 91 1275 q 202 1088 202 1183 l 202 1048 q 146 910 202 955 q 0 865 91 865 m 0 955 q 77 976 51 955 q 104 1048 104 997 l 104 1088 q 77 1162 104 1139 q 0 1186 51 1186 q -78 1162 -52 1186 q -104 1088 -104 1139 l -104 1048 q -78 976 -104 997 q 0 955 -52 955 z "},"̋":{"ha":0,"x_min":-194,"x_max":343,"o":"m 96 884 l 167 1136 l 343 1136 l 186 884 l 96 884 m -194 884 l -124 1136 l 53 1136 l -105 884 l -194 884 z "},"̌":{"ha":0,"x_min":-266,"x_max":266,"o":"m -44 889 l -266 1077 l -218 1158 l 1 1011 l 218 1158 l 266 1077 l 47 889 l -44 889 z "},"̒":{"ha":0,"x_min":-169,"x_max":141,"o":"m -169 884 l 27 1136 l 141 1136 l 20 884 l -169 884 z "},"̦":{"ha":0,"x_min":-169,"x_max":141,"o":"m -169 -379 l -48 -126 l 141 -126 l -54 -379 l -169 -379 z "},"̧":{"ha":0,"x_min":-234,"x_max":144,"o":"m -38 0 l -13 53 q 93 6 43 43 q 144 -115 144 -32 q 87 -235 144 -197 q -40 -273 30 -273 q -176 -242 -124 -273 q -234 -139 -229 -211 l -122 -126 q -103 -160 -120 -150 q -47 -169 -86 -169 q 11 -153 -9 -169 q 30 -95 30 -138 q 15 -31 30 -52 q -38 0 -1 -10 z "},"̨":{"ha":0,"x_min":-120,"x_max":196,"o":"m 69 -271 q -65 -232 -10 -271 q -120 -121 -120 -192 q -72 -11 -120 -59 q 34 59 -24 37 l 68 29 q 9 -29 25 3 q -6 -86 -6 -61 q 17 -140 -6 -121 q 83 -158 40 -158 q 141 -154 106 -158 q 196 -145 176 -150 l 196 -259 q 135 -268 172 -264 q 69 -271 98 -271 z "},"¼":{"ha":884,"x_min":0,"x_max":884,"o":"m 227 518 l 227 610 l 399 610 l 399 885 l 380 885 q 357 840 372 860 q 321 804 342 819 q 272 781 298 789 q 218 773 246 773 l 211 867 q 273 878 242 869 q 330 907 303 888 q 375 953 356 924 q 402 1018 394 981 l 514 1018 l 514 610 l 670 610 l 670 518 l 227 518 m 0 316 l 0 442 l 402 417 l 402 341 l 0 316 m 500 341 l 500 417 l 884 442 l 884 316 l 500 341 m 735 -144 l 617 -144 l 617 -265 l 503 -265 l 503 -144 l 182 -144 l 182 -56 l 467 273 l 617 273 l 617 -56 l 735 -56 l 735 -144 m 282 -56 l 503 -56 l 503 194 l 282 -56 z "},"½":{"ha":884,"x_min":0,"x_max":884,"o":"m 227 518 l 227 610 l 399 610 l 399 885 l 380 885 q 357 840 372 860 q 321 804 342 819 q 272 781 298 789 q 218 773 246 773 l 211 867 q 273 878 242 869 q 330 907 303 888 q 375 953 356 924 q 402 1018 394 981 l 514 1018 l 514 610 l 670 610 l 670 518 l 227 518 m 0 316 l 0 442 l 402 417 l 402 341 l 0 316 m 500 341 l 500 417 l 884 442 l 884 316 l 500 341 m 189 -265 l 189 -159 q 198 -104 189 -129 q 223 -57 206 -78 q 270 -22 241 -37 q 337 0 298 -8 l 491 32 q 530 42 515 37 q 554 53 545 47 q 569 70 564 61 q 573 93 573 80 l 573 117 q 567 144 573 133 q 547 163 561 155 q 506 176 532 172 q 442 179 481 179 q 378 174 403 179 q 340 159 354 169 q 320 132 326 149 q 312 88 314 115 l 197 97 q 213 173 199 141 q 255 226 227 205 q 329 257 283 246 q 442 268 375 268 q 555 258 508 268 q 631 229 602 247 q 674 183 660 210 q 687 121 687 157 l 687 78 q 677 27 687 49 q 648 -11 667 4 q 603 -38 629 -28 q 543 -56 577 -48 l 389 -87 q 352 -97 366 -92 q 327 -110 337 -101 q 310 -134 316 -119 q 304 -173 304 -149 l 696 -173 l 696 -265 l 189 -265 z "},"¾":{"ha":884,"x_min":0,"x_max":884,"o":"m 439 510 q 322 520 370 510 q 244 549 274 529 q 199 598 213 568 q 182 668 184 628 l 295 676 q 304 639 298 653 q 326 616 311 625 q 368 604 341 607 q 439 600 395 600 q 509 603 482 600 q 553 614 537 606 q 574 629 568 620 q 581 653 581 639 l 581 673 q 574 696 581 687 q 553 713 568 706 q 510 723 537 720 q 442 726 484 726 l 376 726 l 376 817 l 442 817 q 501 819 477 817 q 538 828 524 822 q 559 845 553 835 q 566 872 566 856 l 566 898 q 557 915 566 908 q 530 928 548 923 q 490 934 514 932 q 434 936 466 936 q 381 932 403 936 q 343 922 359 929 q 322 903 330 914 q 312 874 314 891 l 197 881 q 215 948 199 920 q 259 992 230 975 q 331 1017 288 1009 q 434 1025 375 1025 q 534 1020 490 1025 q 611 1000 578 1014 q 662 963 644 986 q 679 905 679 939 l 679 885 q 671 846 679 864 q 646 816 663 828 q 609 795 631 803 q 561 785 587 788 l 561 763 q 616 753 591 760 q 658 732 640 745 q 686 704 677 721 q 696 668 696 687 l 696 650 q 681 587 696 614 q 634 544 665 561 q 554 518 602 527 q 439 510 505 510 m 0 316 l 0 442 l 402 417 l 402 341 l 0 316 m 500 341 l 500 417 l 884 442 l 884 316 l 500 341 m 735 -144 l 617 -144 l 617 -265 l 503 -265 l 503 -144 l 182 -144 l 182 -56 l 467 273 l 617 273 l 617 -56 l 735 -56 l 735 -144 m 282 -56 l 503 -56 l 503 194 l 282 -56 z "},"⅛":{"ha":884,"x_min":0,"x_max":884,"o":"m 227 518 l 227 610 l 399 610 l 399 885 l 380 885 q 357 840 372 860 q 321 804 342 819 q 272 781 298 789 q 218 773 246 773 l 211 867 q 273 878 242 869 q 330 907 303 888 q 375 953 356 924 q 402 1018 394 981 l 514 1018 l 514 610 l 670 610 l 670 518 l 227 518 m 0 316 l 0 442 l 402 417 l 402 341 l 0 316 m 500 341 l 500 417 l 884 442 l 884 316 l 500 341 m 448 -271 q 328 -261 378 -271 q 250 -232 279 -251 q 208 -186 221 -213 q 196 -124 196 -159 l 196 -106 q 204 -63 196 -82 q 229 -30 212 -44 q 269 -7 245 -15 q 322 4 293 1 l 322 27 q 278 36 298 29 q 242 54 258 43 q 219 81 227 66 q 211 115 211 96 l 211 140 q 227 198 211 174 q 273 239 242 222 q 347 261 303 254 q 448 269 390 269 q 551 262 506 269 q 625 240 595 255 q 670 199 655 223 q 686 140 686 174 l 686 115 q 677 81 686 96 q 654 54 669 66 q 619 36 639 43 q 574 27 598 29 l 574 4 q 628 -8 605 1 q 668 -30 652 -16 q 693 -64 684 -45 q 702 -106 702 -83 l 702 -124 q 689 -187 702 -160 q 648 -234 677 -215 q 569 -262 619 -253 q 448 -271 520 -271 m 448 58 q 504 61 481 58 q 543 69 528 63 q 564 86 557 76 q 572 110 572 96 l 572 129 q 564 153 572 143 q 543 168 557 163 q 504 177 528 174 q 448 179 481 179 q 393 177 415 179 q 355 168 370 174 q 333 153 340 163 q 326 129 326 143 l 326 110 q 333 86 326 96 q 355 69 340 76 q 393 61 370 63 q 448 58 415 58 m 448 -182 q 520 -177 492 -182 q 562 -164 548 -173 q 582 -143 577 -155 q 587 -112 587 -130 l 587 -101 q 582 -71 587 -83 q 562 -49 577 -58 q 520 -35 548 -39 q 448 -30 492 -30 q 376 -35 404 -30 q 335 -49 348 -39 q 316 -70 321 -58 q 311 -101 311 -82 l 311 -112 q 316 -143 311 -130 q 335 -164 321 -155 q 376 -177 348 -173 q 448 -182 404 -182 z "},"⅜":{"ha":884,"x_min":0,"x_max":884,"o":"m 439 510 q 322 520 370 510 q 244 549 274 529 q 199 598 213 568 q 182 668 184 628 l 295 676 q 304 639 298 653 q 326 616 311 625 q 368 604 341 607 q 439 600 395 600 q 509 603 482 600 q 553 614 537 606 q 574 629 568 620 q 581 653 581 639 l 581 673 q 574 696 581 687 q 553 713 568 706 q 510 723 537 720 q 442 726 484 726 l 376 726 l 376 817 l 442 817 q 501 819 477 817 q 538 828 524 822 q 559 845 553 835 q 566 872 566 856 l 566 898 q 557 915 566 908 q 530 928 548 923 q 490 934 514 932 q 434 936 466 936 q 381 932 403 936 q 343 922 359 929 q 322 903 330 914 q 312 874 314 891 l 197 881 q 215 948 199 920 q 259 992 230 975 q 331 1017 288 1009 q 434 1025 375 1025 q 534 1020 490 1025 q 611 1000 578 1014 q 662 963 644 986 q 679 905 679 939 l 679 885 q 671 846 679 864 q 646 816 663 828 q 609 795 631 803 q 561 785 587 788 l 561 763 q 616 753 591 760 q 658 732 640 745 q 686 704 677 721 q 696 668 696 687 l 696 650 q 681 587 696 614 q 634 544 665 561 q 554 518 602 527 q 439 510 505 510 m 0 316 l 0 442 l 402 417 l 402 341 l 0 316 m 500 341 l 500 417 l 884 442 l 884 316 l 500 341 m 448 -271 q 328 -261 378 -271 q 250 -232 279 -251 q 208 -186 221 -213 q 196 -124 196 -159 l 196 -106 q 204 -63 196 -82 q 229 -30 212 -44 q 269 -7 245 -15 q 322 4 293 1 l 322 27 q 278 36 298 29 q 242 54 258 43 q 219 81 227 66 q 211 115 211 96 l 211 140 q 227 198 211 174 q 273 239 242 222 q 347 261 303 254 q 448 269 390 269 q 551 262 506 269 q 625 240 595 255 q 670 199 655 223 q 686 140 686 174 l 686 115 q 677 81 686 96 q 654 54 669 66 q 619 36 639 43 q 574 27 598 29 l 574 4 q 628 -8 605 1 q 668 -30 652 -16 q 693 -64 684 -45 q 702 -106 702 -83 l 702 -124 q 689 -187 702 -160 q 648 -234 677 -215 q 569 -262 619 -253 q 448 -271 520 -271 m 448 58 q 504 61 481 58 q 543 69 528 63 q 564 86 557 76 q 572 110 572 96 l 572 129 q 564 153 572 143 q 543 168 557 163 q 504 177 528 174 q 448 179 481 179 q 393 177 415 179 q 355 168 370 174 q 333 153 340 163 q 326 129 326 143 l 326 110 q 333 86 326 96 q 355 69 340 76 q 393 61 370 63 q 448 58 415 58 m 448 -182 q 520 -177 492 -182 q 562 -164 548 -173 q 582 -143 577 -155 q 587 -112 587 -130 l 587 -101 q 582 -71 587 -83 q 562 -49 577 -58 q 520 -35 548 -39 q 448 -30 492 -30 q 376 -35 404 -30 q 335 -49 348 -39 q 316 -70 321 -58 q 311 -101 311 -82 l 311 -112 q 316 -143 311 -130 q 335 -164 321 -155 q 376 -177 348 -173 q 448 -182 404 -182 z "},"⅝":{"ha":884,"x_min":0,"x_max":884,"o":"m 442 510 q 323 518 371 510 q 245 543 275 525 q 199 589 215 559 q 182 664 184 619 l 295 672 q 306 634 298 648 q 330 612 313 620 q 372 602 346 605 q 442 598 398 598 q 508 602 481 598 q 551 614 535 606 q 574 631 567 620 q 581 659 581 643 l 581 691 q 574 717 581 706 q 553 734 568 727 q 512 744 538 741 q 447 747 486 747 l 205 747 l 205 1018 l 668 1018 l 668 929 l 319 929 l 319 842 l 473 842 q 569 833 528 842 q 639 807 610 824 q 681 763 667 790 q 696 701 696 736 l 696 658 q 680 598 696 625 q 633 551 664 571 q 553 521 601 532 q 442 510 505 510 m 0 316 l 0 442 l 402 417 l 402 341 l 0 316 m 500 341 l 500 417 l 884 442 l 884 316 l 500 341 m 448 -271 q 328 -261 378 -271 q 250 -232 279 -251 q 208 -186 221 -213 q 196 -124 196 -159 l 196 -106 q 204 -63 196 -82 q 229 -30 212 -44 q 269 -7 245 -15 q 322 4 293 1 l 322 27 q 278 36 298 29 q 242 54 258 43 q 219 81 227 66 q 211 115 211 96 l 211 140 q 227 198 211 174 q 273 239 242 222 q 347 261 303 254 q 448 269 390 269 q 551 262 506 269 q 625 240 595 255 q 670 199 655 223 q 686 140 686 174 l 686 115 q 677 81 686 96 q 654 54 669 66 q 619 36 639 43 q 574 27 598 29 l 574 4 q 628 -8 605 1 q 668 -30 652 -16 q 693 -64 684 -45 q 702 -106 702 -83 l 702 -124 q 689 -187 702 -160 q 648 -234 677 -215 q 569 -262 619 -253 q 448 -271 520 -271 m 448 58 q 504 61 481 58 q 543 69 528 63 q 564 86 557 76 q 572 110 572 96 l 572 129 q 564 153 572 143 q 543 168 557 163 q 504 177 528 174 q 448 179 481 179 q 393 177 415 179 q 355 168 370 174 q 333 153 340 163 q 326 129 326 143 l 326 110 q 333 86 326 96 q 355 69 340 76 q 393 61 370 63 q 448 58 415 58 m 448 -182 q 520 -177 492 -182 q 562 -164 548 -173 q 582 -143 577 -155 q 587 -112 587 -130 l 587 -101 q 582 -71 587 -83 q 562 -49 577 -58 q 520 -35 548 -39 q 448 -30 492 -30 q 376 -35 404 -30 q 335 -49 348 -39 q 316 -70 321 -58 q 311 -101 311 -82 l 311 -112 q 316 -143 311 -130 q 335 -164 321 -155 q 376 -177 348 -173 q 448 -182 404 -182 z "},"⅞":{"ha":884,"x_min":0,"x_max":884,"o":"m 346 518 q 383 640 362 586 q 431 742 404 694 q 495 833 458 789 q 581 922 532 878 l 189 922 l 189 1018 l 696 1018 l 696 922 q 610 824 648 872 q 544 726 572 775 q 499 625 518 677 q 468 518 480 573 l 346 518 m 0 316 l 0 442 l 402 417 l 402 341 l 0 316 m 500 341 l 500 417 l 884 442 l 884 316 l 500 341 m 448 -271 q 328 -261 378 -271 q 250 -232 279 -251 q 208 -186 221 -213 q 196 -124 196 -159 l 196 -106 q 204 -63 196 -82 q 229 -30 212 -44 q 269 -7 245 -15 q 322 4 293 1 l 322 27 q 278 36 298 29 q 242 54 258 43 q 219 81 227 66 q 211 115 211 96 l 211 140 q 227 198 211 174 q 273 239 242 222 q 347 261 303 254 q 448 269 390 269 q 551 262 506 269 q 625 240 595 255 q 670 199 655 223 q 686 140 686 174 l 686 115 q 677 81 686 96 q 654 54 669 66 q 619 36 639 43 q 574 27 598 29 l 574 4 q 628 -8 605 1 q 668 -30 652 -16 q 693 -64 684 -45 q 702 -106 702 -83 l 702 -124 q 689 -187 702 -160 q 648 -234 677 -215 q 569 -262 619 -253 q 448 -271 520 -271 m 448 58 q 504 61 481 58 q 543 69 528 63 q 564 86 557 76 q 572 110 572 96 l 572 129 q 564 153 572 143 q 543 168 557 163 q 504 177 528 174 q 448 179 481 179 q 393 177 415 179 q 355 168 370 174 q 333 153 340 163 q 326 129 326 143 l 326 110 q 333 86 326 96 q 355 69 340 76 q 393 61 370 63 q 448 58 415 58 m 448 -182 q 520 -177 492 -182 q 562 -164 548 -173 q 582 -143 577 -155 q 587 -112 587 -130 l 587 -101 q 582 -71 587 -83 q 562 -49 577 -58 q 520 -35 548 -39 q 448 -30 492 -30 q 376 -35 404 -30 q 335 -49 348 -39 q 316 -70 321 -58 q 311 -101 311 -82 l 311 -112 q 316 -143 311 -130 q 335 -164 321 -155 q 376 -177 348 -173 q 448 -182 404 -182 z "},"_":{"ha":884,"x_min":88,"x_max":795,"o":"m 88 -253 l 88 -126 l 795 -126 l 795 -253 l 88 -253 z "},"-":{"ha":884,"x_min":88,"x_max":795,"o":"m 88 379 l 88 505 l 795 505 l 795 379 l 88 379 z "},"­":{"ha":884,"x_min":88,"x_max":795,"o":"m 88 379 l 88 505 l 795 505 l 795 379 l 88 379 z "},"‐":{"ha":884,"x_min":88,"x_max":795,"o":"m 88 379 l 88 505 l 795 505 l 795 379 l 88 379 z "},"‑":{"ha":884,"x_min":88,"x_max":795,"o":"m 88 379 l 88 505 l 795 505 l 795 379 l 88 379 z "},"–":{"ha":884,"x_min":126,"x_max":758,"o":"m 126 379 l 126 505 l 758 505 l 758 379 l 126 379 z "},"—":{"ha":884,"x_min":0,"x_max":884,"o":"m 0 379 l 0 505 l 884 505 l 884 379 l 0 379 z "},"―":{"ha":884,"x_min":0,"x_max":884,"o":"m 0 379 l 0 505 l 884 505 l 884 379 l 0 379 z "},"(":{"ha":884,"x_min":253,"x_max":707,"o":"m 694 -265 q 374 -49 496 -218 q 253 379 253 120 q 374 807 253 638 q 694 1023 496 976 l 707 924 q 458 729 538 878 q 379 379 379 581 q 458 28 379 177 q 707 -167 538 -120 l 694 -265 z "},")":{"ha":884,"x_min":177,"x_max":631,"o":"m 189 -265 l 177 -167 q 426 30 346 -120 q 505 379 505 179 q 426 728 505 578 q 177 924 346 878 l 189 1023 q 509 806 388 976 q 631 379 631 636 q 509 -49 631 121 q 189 -265 388 -218 z "},"[":{"ha":884,"x_min":253,"x_max":694,"o":"m 253 -253 l 253 1010 l 694 1010 l 694 896 l 379 896 l 379 -154 l 694 -154 l 694 -253 l 253 -253 z "},"]":{"ha":884,"x_min":189,"x_max":631,"o":"m 189 -253 l 189 -154 l 505 -154 l 505 896 l 189 896 l 189 1010 l 631 1010 l 631 -253 l 189 -253 z "},"{":{"ha":884,"x_min":63,"x_max":694,"o":"m 694 -265 q 309 -218 429 -270 q 189 -56 189 -165 q 215 51 189 8 q 271 125 241 93 q 328 184 303 157 q 354 244 354 212 q 290 328 354 303 q 63 356 227 352 l 63 432 q 290 460 227 436 q 354 542 354 484 q 328 595 354 573 q 271 645 303 617 q 215 712 241 673 q 189 816 189 751 q 309 975 189 923 q 694 1023 429 1028 l 694 909 q 398 886 481 913 q 316 801 316 860 q 334 749 316 775 q 399 679 352 722 q 462 608 444 638 q 480 543 480 578 q 417 436 480 472 q 237 395 355 400 l 237 389 q 417 336 355 376 q 480 222 480 295 q 461 162 480 191 q 394 88 442 133 q 333 23 350 51 q 316 -39 316 -4 q 398 -130 316 -102 q 694 -154 481 -158 l 694 -265 z "},"}":{"ha":884,"x_min":189,"x_max":821,"o":"m 694 -56 q 574 -218 694 -165 q 189 -265 455 -270 l 189 -154 q 485 -130 403 -158 q 568 -39 568 -102 q 551 23 568 -4 q 490 88 534 51 q 423 162 442 133 q 404 222 404 191 q 467 336 404 295 q 646 389 529 376 l 646 395 q 467 436 529 400 q 404 543 404 472 q 422 608 404 578 q 485 679 439 638 q 550 749 532 722 q 568 801 568 775 q 485 886 568 860 q 189 909 403 913 l 189 1023 q 574 975 455 1028 q 694 816 694 923 q 669 712 694 751 q 612 645 643 673 q 556 595 581 617 q 530 542 530 573 q 593 460 530 484 q 821 432 657 436 l 821 356 q 593 328 657 352 q 530 244 530 303 q 556 184 530 212 q 612 125 581 157 q 669 51 643 93 q 694 -56 694 8 z "},"#":{"ha":884,"x_min":63,"x_max":821,"o":"m 524 366 l 538 644 l 361 644 l 347 366 l 524 366 m 505 0 l 518 253 l 341 253 l 328 0 l 215 0 l 227 253 l 63 253 l 63 366 l 234 366 l 247 644 l 63 644 l 63 758 l 253 758 l 265 1010 l 379 1010 l 366 758 l 543 758 l 556 1010 l 669 1010 l 657 758 l 821 758 l 821 644 l 652 644 l 638 366 l 821 366 l 821 253 l 631 253 l 619 0 l 505 0 z "},"%":{"ha":884,"x_min":51,"x_max":833,"o":"m 246 566 q 105 614 159 566 q 51 761 51 662 l 51 837 q 105 987 51 938 q 246 1035 159 1035 q 387 987 333 1035 q 441 837 441 938 l 441 761 q 387 614 441 662 q 246 566 333 566 m 246 668 q 306 689 284 668 q 327 759 327 711 l 327 840 q 306 910 327 888 q 246 933 284 933 q 186 910 208 933 q 164 840 164 888 l 164 759 q 186 689 164 711 q 246 668 208 668 m 57 212 l 764 880 l 833 807 l 125 139 l 57 212 m 639 -28 q 497 20 552 -28 q 443 168 443 68 l 443 244 q 497 393 443 345 q 639 442 552 442 q 780 393 726 442 q 833 244 833 345 l 833 168 q 780 20 833 68 q 639 -28 726 -28 m 639 74 q 698 96 677 74 q 720 165 720 117 l 720 246 q 698 317 720 294 q 639 340 677 340 q 579 317 601 340 q 557 246 557 294 l 557 165 q 579 96 557 117 q 639 74 601 74 z "},"‰":{"ha":884,"x_min":19,"x_max":859,"o":"m 221 566 q 98 610 145 566 q 51 749 51 655 l 51 850 q 98 990 51 944 q 221 1035 145 1035 q 343 990 297 1035 q 390 850 390 944 l 390 749 q 343 610 390 655 q 221 566 297 566 m 164 746 q 179 686 164 705 q 221 668 194 668 q 262 686 247 668 q 277 746 277 705 l 277 852 q 262 914 277 894 q 221 933 247 933 q 179 914 194 933 q 164 852 164 894 l 164 746 m 795 807 l 87 139 l 19 212 l 726 880 l 795 807 m 727 -28 q 665 -13 692 -28 q 621 33 638 3 q 576 -13 604 3 q 515 -28 549 -28 q 419 17 456 -28 q 383 155 383 62 l 383 256 q 420 396 383 351 q 515 442 457 442 q 578 427 551 442 q 621 380 605 412 q 665 427 638 412 q 727 442 693 442 q 823 396 787 442 q 859 256 859 351 l 859 155 q 822 17 859 62 q 727 -28 785 -28 m 484 140 q 496 80 484 98 q 528 62 508 62 q 559 80 548 62 q 571 140 571 98 l 571 271 q 559 333 571 313 q 528 352 548 352 q 496 333 508 352 q 484 271 484 313 l 484 140 m 670 140 q 682 80 670 98 q 715 62 694 62 q 746 80 735 62 q 758 140 758 98 l 758 271 q 746 333 758 313 q 715 352 735 352 q 682 333 694 352 q 670 271 670 313 l 670 140 z "},"'":{"ha":884,"x_min":341,"x_max":543,"o":"m 379 505 l 341 1010 l 543 1010 l 505 505 l 379 505 z "},"\"":{"ha":884,"x_min":152,"x_max":732,"o":"m 568 505 l 530 1010 l 732 1010 l 694 505 l 568 505 m 189 505 l 152 1010 l 354 1010 l 316 505 l 189 505 z "},"ʻ":{"ha":884,"x_min":254,"x_max":644,"o":"m 254 505 l 538 1010 l 644 1010 l 505 505 l 254 505 z "},"‘":{"ha":884,"x_min":254,"x_max":644,"o":"m 254 505 l 538 1010 l 644 1010 l 505 505 l 254 505 z "},"’":{"ha":884,"x_min":240,"x_max":630,"o":"m 240 505 l 379 1010 l 630 1010 l 346 505 l 240 505 z "},"“":{"ha":884,"x_min":64,"x_max":821,"o":"m 443 505 l 727 1010 l 821 1010 l 682 505 l 443 505 m 64 505 l 348 1010 l 442 1010 l 303 505 l 64 505 z "},"”":{"ha":884,"x_min":63,"x_max":819,"o":"m 442 505 l 581 1010 l 819 1010 l 535 505 l 442 505 m 63 505 l 202 1010 l 441 1010 l 157 505 l 63 505 z "},"‛":{"ha":884,"x_min":215,"x_max":605,"o":"m 499 505 l 215 1010 l 466 1010 l 605 505 l 499 505 z "},"‚":{"ha":884,"x_min":253,"x_max":617,"o":"m 253 -253 l 366 253 l 617 253 l 359 -253 l 253 -253 z "},"„":{"ha":884,"x_min":-63,"x_max":693,"o":"m 316 -253 l 455 253 l 693 253 l 409 -253 l 316 -253 m -63 -253 l 76 253 l 314 253 l 30 -253 l -63 -253 z "},"‹":{"ha":884,"x_min":253,"x_max":631,"o":"m 631 126 l 253 379 l 253 505 l 631 758 l 631 638 l 338 442 l 631 246 l 631 126 z "},"›":{"ha":884,"x_min":253,"x_max":631,"o":"m 253 126 l 253 246 l 547 442 l 253 638 l 253 758 l 631 505 l 631 379 l 253 126 z "},"«":{"ha":884,"x_min":90,"x_max":797,"o":"m 797 125 l 468 378 l 468 504 l 797 756 l 797 636 l 543 441 l 797 245 l 797 125 m 418 125 l 90 378 l 90 504 l 418 756 l 418 636 l 164 441 l 418 245 l 418 125 z "},"»":{"ha":884,"x_min":88,"x_max":795,"o":"m 88 126 l 88 246 l 343 442 l 88 638 l 88 758 l 417 505 l 417 379 l 88 126 m 467 126 l 467 246 l 722 442 l 467 638 l 467 758 l 795 505 l 795 379 l 467 126 z "},"*":{"ha":884,"x_min":76,"x_max":807,"o":"m 731 352 l 481 559 l 516 253 l 365 253 l 400 558 l 152 352 l 76 484 l 371 633 l 76 782 l 152 913 l 400 706 l 365 1010 l 516 1010 l 481 705 l 731 913 l 807 782 l 511 633 l 807 484 l 731 352 z "},"†":{"ha":884,"x_min":101,"x_max":783,"o":"m 379 -253 l 379 644 l 253 644 l 202 379 l 101 379 l 139 758 l 375 758 l 366 1010 l 518 1010 l 509 758 l 745 758 l 783 379 l 682 379 l 631 644 l 505 644 l 505 -253 l 379 -253 z "},"‡":{"ha":884,"x_min":101,"x_max":783,"o":"m 366 -253 l 375 0 l 139 0 l 101 290 l 202 290 l 253 114 l 379 114 l 379 644 l 253 644 l 202 467 l 101 467 l 139 758 l 375 758 l 366 1010 l 518 1010 l 509 758 l 745 758 l 783 467 l 682 467 l 631 644 l 505 644 l 505 114 l 631 114 l 682 290 l 783 290 l 745 0 l 509 0 l 518 -253 l 366 -253 z "},".":{"ha":884,"x_min":302,"x_max":583,"o":"m 443 -13 q 341 16 380 -13 q 302 106 302 44 l 302 141 q 341 233 302 203 q 443 263 380 263 q 545 233 506 263 q 583 141 583 203 l 583 106 q 544 16 583 44 q 443 -13 505 -13 z "},",":{"ha":884,"x_min":253,"x_max":617,"o":"m 253 -253 l 366 253 l 617 253 l 359 -253 l 253 -253 z "},":":{"ha":884,"x_min":302,"x_max":583,"o":"m 443 492 q 341 518 380 492 q 302 598 302 544 l 302 659 q 341 741 302 715 q 443 768 380 768 q 545 741 506 768 q 583 659 583 715 l 583 598 q 544 518 583 544 q 443 492 505 492 m 443 -13 q 341 13 380 -13 q 302 93 302 39 l 302 154 q 341 236 302 210 q 443 263 380 263 q 545 236 506 263 q 583 154 583 210 l 583 93 q 544 13 583 39 q 443 -13 505 -13 z "},";":{"ha":884,"x_min":253,"x_max":617,"o":"m 443 492 q 341 518 380 492 q 302 598 302 544 l 302 659 q 341 741 302 715 q 443 768 380 768 q 545 741 506 768 q 583 659 583 715 l 583 598 q 544 518 583 544 q 443 492 505 492 m 253 -253 l 366 253 l 617 253 l 359 -253 l 253 -253 z "},"…":{"ha":884,"x_min":51,"x_max":833,"o":"m 744 -11 q 679 15 705 -11 q 654 95 654 40 l 654 155 q 679 237 654 211 q 744 264 705 264 q 809 237 784 264 q 833 155 833 211 l 833 95 q 808 15 833 40 q 744 -11 783 -11 m 442 -11 q 378 15 403 -11 q 352 95 352 40 l 352 155 q 378 237 352 211 q 442 264 403 264 q 507 237 482 264 q 532 155 532 211 l 532 95 q 506 15 532 40 q 442 -11 481 -11 m 141 -11 q 76 15 101 -11 q 51 95 51 40 l 51 155 q 76 237 51 211 q 141 264 101 264 q 205 237 181 264 q 230 155 230 211 l 230 95 q 205 15 230 40 q 141 -11 181 -11 z "},"!":{"ha":884,"x_min":321,"x_max":564,"o":"m 391 379 l 354 1010 l 530 1010 l 492 379 l 391 379 m 443 -13 q 350 13 380 -13 q 321 93 321 39 l 321 129 q 350 211 321 184 q 443 237 380 237 q 535 211 506 237 q 564 129 564 184 l 564 93 q 535 13 564 39 q 443 -13 505 -13 z "},"¡":{"ha":884,"x_min":321,"x_max":564,"o":"m 442 1023 q 535 997 505 1023 q 564 917 564 971 l 564 881 q 535 799 564 826 q 442 773 505 773 q 350 799 379 773 q 321 881 321 826 l 321 917 q 350 997 321 971 q 442 1023 380 1023 m 494 631 l 532 0 l 355 0 l 393 631 l 494 631 z "}}}
